<ttFont>
<head>
    <!-- Most of this table will be recalculated by the compiler -->
    <tableVersion value="1.0"/>
    <fontRevision value="2.01"/>
    <checkSumAdjustment value="0xd23aa492"/>
    <magicNumber value="0x5f0f3cf5"/>
    <flags value="00000000 00000011"/>
    <unitsPerEm value="1000"/>
    <created value="Wed Feb  7 19:23:04 2018"/>
    <modified value="Wed Feb  7 11:23:09 2018"/>
    <xMin value="-397"/>
    <yMin value="-577"/>
    <xMax value="1731"/>
    <yMax value="879"/>
    <macStyle value="00000000 00000000"/>
    <lowestRecPPEM value="7"/>
    <fontDirectionHint value="2"/>
    <indexToLocFormat value="0"/>
    <glyphDataFormat value="0"/>
  </head>
    <TTGlyph name=".notdef" xMin="180" yMin="0" xMax="570" yMax="701">
      <contour>
        <pt x="570" y="701" on="1"/>
        <pt x="570" y="0" on="1"/>
        <pt x="180" y="0" on="1"/>
        <pt x="180" y="701" on="1"/>
      </contour>
      <contour>
        <pt x="516" y="50" on="1"/>
        <pt x="516" y="651" on="1"/>
        <pt x="234" y="651" on="1"/>
        <pt x="234" y="50" on="1"/>
      </contour>
    </TTGlyph>
    <TTGlyph name="A" xMin="20" yMin="0" xMax="404" yMax="666">
      <contour>
        <pt x="307" y="195" on="1"/>
        <pt x="117" y="195" on="1"/>
        <pt x="72" y="0" on="1"/>
        <pt x="20" y="0" on="1"/>
        <pt x="176" y="666" on="1"/>
        <pt x="248" y="666" on="1"/>
        <pt x="404" y="0" on="1"/>
        <pt x="352" y="0" on="1"/>
      </contour>
      <contour>
        <pt x="297" y="240" on="1"/>
        <pt x="212" y="609" on="1"/>
        <pt x="127" y="240" on="1"/>
      </contour>
    </TTGlyph>
    <TTGlyph name="AE" xMin="10" yMin="0" xMax="630" yMax="666">
      <contour>
        <pt x="404" y="621" on="1"/>
        <pt x="404" y="358" on="1"/>
        <pt x="601" y="358" on="1"/>
        <pt x="601" y="313" on="1"/>
        <pt x="404" y="313" on="1"/>
        <pt x="404" y="45" on="1"/>
        <pt x="630" y="45" on="1"/>
        <pt x="630" y="0" on="1"/>
        <pt x="354" y="0" on="1"/>
        <pt x="354" y="195" on="1"/>
        <pt x="155" y="195" on="1"/>
        <pt x="65" y="0" on="1"/>
        <pt x="10" y="0" on="1"/>
        <pt x="323" y="666" on="1"/>
        <pt x="630" y="666" on="1"/>
        <pt x="630" y="621" on="1"/>
      </contour>
      <contour>
        <pt x="354" y="240" on="1"/>
        <pt x="354" y="625" on="1"/>
        <pt x="176" y="240" on="1"/>
      </contour>
    </TTGlyph>
    <TTGlyph name="Aacute" xMin="20" yMin="0" xMax="404" yMax="813">
      <component glyphName="A" x="0" y="0" flags="0x0"/>
      <component glyphName="acute" x="66" y="100" flags="0x4"/>
    </TTGlyph>
    <TTGlyph name="Abreve" xMin="20" yMin="0" xMax="404" yMax="813">
      <component glyphName="A" x="0" y="0" flags="0x0"/>
      <component glyphName="breve" x="37" y="100" flags="0x4"/>
    </TTGlyph>
    <TTGlyph name="Acircumflex" xMin="20" yMin="0" xMax="404" yMax="813">
      <component glyphName="A" x="0" y="0" flags="0x0"/>
      <component glyphName="circumflex" x="38" y="100" flags="0x4"/>
    </TTGlyph>
    <TTGlyph name="Adieresis" xMin="20" yMin="0" xMax="404" yMax="792">
      <component glyphName="dieresis" x="37" y="100" flags="0x4"/>
      <component glyphName="A" x="0" y="0" flags="0x0"/>
    </TTGlyph>
    <TTGlyph name="Agrave" xMin="20" yMin="0" xMax="404" yMax="813">
      <component glyphName="A" x="0" y="0" flags="0x0"/>
      <component glyphName="grave" x="3" y="100" flags="0x4"/>
    </TTGlyph>
    <TTGlyph name="Amacron" xMin="20" yMin="0" xMax="404" yMax="780">
      <component glyphName="A" x="0" y="0" flags="0x0"/>
      <component glyphName="macron" x="35" y="100" flags="0x4"/>
    </TTGlyph>
    <TTGlyph name="Aogonek" xMin="20" yMin="-170" xMax="404" yMax="666">
      <component glyphName="A" x="0" y="0" flags="0x0"/>
      <component glyphName="ogonek" x="182" y="0" flags="0x0"/>
    </TTGlyph>
    <TTGlyph name="Aring" xMin="20" yMin="0" xMax="404" yMax="831">
      <component glyphName="A" x="0" y="0" flags="0x0"/>
      <component glyphName="ring" x="37" y="100" flags="0x4"/>
    </TTGlyph>
    <TTGlyph name="Atilde" xMin="20" yMin="0" xMax="404" yMax="803">
      <component glyphName="A" x="0" y="0" flags="0x0"/>
      <component glyphName="tilde" x="44" y="100" flags="0x4"/>
    </TTGlyph>
    <TTGlyph name="B" xMin="75" yMin="0" xMax="396" yMax="666">
      <contour>
        <pt x="356" y="321" on="0"/>
        <pt x="396" y="255" on="0"/>
        <pt x="396" y="207" on="1"/>
        <pt x="396" y="150" on="1"/>
        <pt x="396" y="82" on="0"/>
        <pt x="316" y="0" on="0"/>
        <pt x="237" y="0" on="1"/>
        <pt x="75" y="0" on="1"/>
        <pt x="75" y="666" on="1"/>
        <pt x="231" y="666" on="1"/>
        <pt x="310" y="666" on="0"/>
        <pt x="390" y="584" on="0"/>
        <pt x="390" y="516" on="1"/>
        <pt x="390" y="462" on="1"/>
        <pt x="390" y="367" on="0"/>
        <pt x="315" y="336" on="1"/>
      </contour>
      <contour>
        <pt x="125" y="621" on="1"/>
        <pt x="125" y="357" on="1"/>
        <pt x="231" y="357" on="1"/>
        <pt x="340" y="357" on="0"/>
        <pt x="340" y="462" on="1"/>
        <pt x="340" y="516" on="1"/>
        <pt x="340" y="621" on="0"/>
        <pt x="231" y="621" on="1"/>
      </contour>
      <contour>
        <pt x="346" y="207" on="1"/>
        <pt x="346" y="312" on="0"/>
        <pt x="237" y="312" on="1"/>
        <pt x="125" y="312" on="1"/>
        <pt x="125" y="45" on="1"/>
        <pt x="237" y="45" on="1"/>
        <pt x="346" y="45" on="0"/>
        <pt x="346" y="150" on="1"/>
      </contour>
    </TTGlyph>
    <TTGlyph name="C" xMin="65" yMin="-5" xMax="349" yMax="671">
      <contour>
        <pt x="65" y="601" on="0"/>
        <pt x="148" y="671" on="0"/>
        <pt x="234" y="671" on="1"/>
        <pt x="291" y="671" on="0"/>
        <pt x="347" y="655" on="1"/>
        <pt x="347" y="608" on="1"/>
        <pt x="290" y="625" on="0"/>
        <pt x="234" y="625" on="1"/>
        <pt x="168" y="625" on="0"/>
        <pt x="115" y="580" on="0"/>
        <pt x="115" y="536" on="1"/>
        <pt x="115" y="130" on="1"/>
        <pt x="115" y="86" on="0"/>
        <pt x="168" y="41" on="0"/>
        <pt x="234" y="41" on="1"/>
        <pt x="292" y="41" on="0"/>
        <pt x="349" y="58" on="1"/>
        <pt x="349" y="11" on="1"/>
        <pt x="299" y="-5" on="0"/>
        <pt x="234" y="-5" on="1"/>
        <pt x="148" y="-5" on="0"/>
        <pt x="65" y="65" on="0"/>
        <pt x="65" y="130" on="1"/>
        <pt x="65" y="536" on="1"/>
      </contour>
    </TTGlyph>
    <TTGlyph name="Cacute" xMin="65" yMin="-5" xMax="349" yMax="813">
      <component glyphName="C" x="0" y="0" flags="0x0"/>
      <component glyphName="acute" x="72" y="100" flags="0x4"/>
    </TTGlyph>
    <TTGlyph name="Ccaron" xMin="65" yMin="-5" xMax="349" yMax="813">
      <component glyphName="C" x="0" y="0" flags="0x0"/>
      <component glyphName="caron" x="47" y="100" flags="0x4"/>
    </TTGlyph>
    <TTGlyph name="Ccedilla" xMin="65" yMin="-179" xMax="349" yMax="671">
      <component glyphName="C" x="0" y="0" flags="0x0"/>
      <component glyphName="cedilla" x="55" y="0" flags="0x0"/>
    </TTGlyph>
    <TTGlyph name="D" xMin="75" yMin="0" xMax="393" yMax="666">
      <contour>
        <pt x="313" y="666" on="0"/>
        <pt x="393" y="584" on="0"/>
        <pt x="393" y="516" on="1"/>
        <pt x="393" y="150" on="1"/>
        <pt x="393" y="82" on="0"/>
        <pt x="313" y="0" on="0"/>
        <pt x="234" y="0" on="1"/>
        <pt x="75" y="0" on="1"/>
        <pt x="75" y="666" on="1"/>
        <pt x="234" y="666" on="1"/>
      </contour>
      <contour>
        <pt x="343" y="621" on="0"/>
        <pt x="234" y="621" on="1"/>
        <pt x="125" y="621" on="1"/>
        <pt x="125" y="45" on="1"/>
        <pt x="234" y="45" on="1"/>
        <pt x="343" y="45" on="0"/>
        <pt x="343" y="150" on="1"/>
        <pt x="343" y="516" on="1"/>
      </contour>
    </TTGlyph>
    <TTGlyph name="Dcaron" xMin="75" yMin="0" xMax="393" yMax="813">
      <component glyphName="D" x="0" y="0" flags="0x0"/>
      <component glyphName="caron" x="48" y="100" flags="0x4"/>
    </TTGlyph>
    <TTGlyph name="Dcroat" xMin="15" yMin="0" xMax="393" yMax="666">
      <contour>
        <pt x="313" y="666" on="0"/>
        <pt x="393" y="584" on="0"/>
        <pt x="393" y="516" on="1"/>
        <pt x="393" y="150" on="1"/>
        <pt x="393" y="82" on="0"/>
        <pt x="313" y="0" on="0"/>
        <pt x="234" y="0" on="1"/>
        <pt x="75" y="0" on="1"/>
        <pt x="75" y="311" on="1"/>
        <pt x="15" y="311" on="1"/>
        <pt x="15" y="356" on="1"/>
        <pt x="75" y="356" on="1"/>
        <pt x="75" y="666" on="1"/>
        <pt x="234" y="666" on="1"/>
      </contour>
      <contour>
        <pt x="343" y="516" on="1"/>
        <pt x="343" y="621" on="0"/>
        <pt x="234" y="621" on="1"/>
        <pt x="125" y="621" on="1"/>
        <pt x="125" y="356" on="1"/>
        <pt x="238" y="356" on="1"/>
        <pt x="238" y="311" on="1"/>
        <pt x="125" y="311" on="1"/>
        <pt x="125" y="45" on="1"/>
        <pt x="234" y="45" on="1"/>
        <pt x="343" y="45" on="0"/>
        <pt x="343" y="150" on="1"/>
      </contour>
    </TTGlyph>
    <TTGlyph name="E" xMin="75" yMin="0" xMax="351" yMax="666">
      <contour>
        <pt x="351" y="621" on="1"/>
        <pt x="125" y="621" on="1"/>
        <pt x="125" y="358" on="1"/>
        <pt x="322" y="358" on="1"/>
        <pt x="322" y="313" on="1"/>
        <pt x="125" y="313" on="1"/>
        <pt x="125" y="45" on="1"/>
        <pt x="351" y="45" on="1"/>
        <pt x="351" y="0" on="1"/>
        <pt x="75" y="0" on="1"/>
        <pt x="75" y="666" on="1"/>
        <pt x="351" y="666" on="1"/>
      </contour>
    </TTGlyph>
    <TTGlyph name="Eacute" xMin="75" yMin="0" xMax="351" yMax="813">
      <component glyphName="E" x="0" y="0" flags="0x0"/>
      <component glyphName="acute" x="68" y="100" flags="0x4"/>
    </TTGlyph>
    <TTGlyph name="Ecaron" xMin="75" yMin="0" xMax="351" yMax="813">
      <component glyphName="E" x="0" y="0" flags="0x0"/>
      <component glyphName="caron" x="41" y="100" flags="0x4"/>
    </TTGlyph>
    <TTGlyph name="Ecircumflex" xMin="75" yMin="0" xMax="351" yMax="813">
      <component glyphName="E" x="0" y="0" flags="0x0"/>
      <component glyphName="circumflex" x="33" y="100" flags="0x4"/>
    </TTGlyph>
    <TTGlyph name="Edieresis" xMin="75" yMin="0" xMax="351" yMax="792">
      <component glyphName="E" x="0" y="0" flags="0x0"/>
      <component glyphName="dieresis" x="41" y="100" flags="0x4"/>
    </TTGlyph>
    <TTGlyph name="Edotaccent" xMin="75" yMin="0" xMax="351" yMax="821">
      <component glyphName="E" x="0" y="0" flags="0x0"/>
      <component glyphName="dotaccent" x="46" y="100" flags="0x4"/>
    </TTGlyph>
    <TTGlyph name="Egrave" xMin="75" yMin="0" xMax="351" yMax="813">
      <component glyphName="E" x="0" y="0" flags="0x0"/>
      <component glyphName="grave" x="11" y="100" flags="0x4"/>
    </TTGlyph>
    <TTGlyph name="Emacron" xMin="75" yMin="0" xMax="351" yMax="780">
      <component glyphName="E" x="0" y="0" flags="0x0"/>
      <component glyphName="macron" x="40" y="100" flags="0x4"/>
    </TTGlyph>
    <TTGlyph name="Eogonek" xMin="75" yMin="-170" xMax="351" yMax="666">
      <component glyphName="E" x="0" y="0" flags="0x0"/>
      <component glyphName="ogonek" x="130" y="0" flags="0x0"/>
    </TTGlyph>
    <TTGlyph name="Eth" xMin="-1" yMin="0" xMax="393" yMax="666">
      <contour>
        <pt x="313" y="666" on="0"/>
        <pt x="393" y="584" on="0"/>
        <pt x="393" y="516" on="1"/>
        <pt x="393" y="150" on="1"/>
        <pt x="393" y="82" on="0"/>
        <pt x="313" y="0" on="0"/>
        <pt x="234" y="0" on="1"/>
        <pt x="75" y="0" on="1"/>
        <pt x="75" y="304" on="1"/>
        <pt x="-1" y="304" on="1"/>
        <pt x="-1" y="349" on="1"/>
        <pt x="75" y="349" on="1"/>
        <pt x="75" y="666" on="1"/>
        <pt x="234" y="666" on="1"/>
      </contour>
      <contour>
        <pt x="343" y="516" on="1"/>
        <pt x="343" y="621" on="0"/>
        <pt x="234" y="621" on="1"/>
        <pt x="125" y="621" on="1"/>
        <pt x="125" y="349" on="1"/>
        <pt x="247" y="349" on="1"/>
        <pt x="247" y="304" on="1"/>
        <pt x="125" y="304" on="1"/>
        <pt x="125" y="45" on="1"/>
        <pt x="234" y="45" on="1"/>
        <pt x="343" y="45" on="0"/>
        <pt x="343" y="150" on="1"/>
      </contour>
    </TTGlyph>
    <TTGlyph name="Euro" xMin="13" yMin="-5" xMax="349" yMax="671">
      <contour>
        <pt x="292" y="41" on="0"/>
        <pt x="349" y="58" on="1"/>
        <pt x="349" y="11" on="1"/>
        <pt x="299" y="-5" on="0"/>
        <pt x="234" y="-5" on="1"/>
        <pt x="148" y="-5" on="0"/>
        <pt x="65" y="65" on="0"/>
        <pt x="65" y="130" on="1"/>
        <pt x="65" y="253" on="1"/>
        <pt x="13" y="253" on="1"/>
        <pt x="13" y="293" on="1"/>
        <pt x="65" y="293" on="1"/>
        <pt x="65" y="385" on="1"/>
        <pt x="13" y="385" on="1"/>
        <pt x="13" y="425" on="1"/>
        <pt x="65" y="425" on="1"/>
        <pt x="65" y="536" on="1"/>
        <pt x="65" y="601" on="0"/>
        <pt x="148" y="671" on="0"/>
        <pt x="234" y="671" on="1"/>
        <pt x="291" y="671" on="0"/>
        <pt x="347" y="655" on="1"/>
        <pt x="347" y="608" on="1"/>
        <pt x="290" y="625" on="0"/>
        <pt x="234" y="625" on="1"/>
        <pt x="168" y="625" on="0"/>
        <pt x="115" y="580" on="0"/>
        <pt x="115" y="536" on="1"/>
        <pt x="115" y="425" on="1"/>
        <pt x="284" y="425" on="1"/>
        <pt x="284" y="385" on="1"/>
        <pt x="115" y="385" on="1"/>
        <pt x="115" y="293" on="1"/>
        <pt x="284" y="293" on="1"/>
        <pt x="284" y="253" on="1"/>
        <pt x="115" y="253" on="1"/>
        <pt x="115" y="130" on="1"/>
        <pt x="115" y="86" on="0"/>
        <pt x="168" y="41" on="0"/>
        <pt x="234" y="41" on="1"/>
      </contour>
    </TTGlyph>
    <TTGlyph name="F" xMin="75" yMin="0" xMax="342" yMax="666">
      <contour>
        <pt x="342" y="621" on="1"/>
        <pt x="125" y="621" on="1"/>
        <pt x="125" y="348" on="1"/>
        <pt x="333" y="348" on="1"/>
        <pt x="333" y="303" on="1"/>
        <pt x="125" y="303" on="1"/>
        <pt x="125" y="0" on="1"/>
        <pt x="75" y="0" on="1"/>
        <pt x="75" y="666" on="1"/>
        <pt x="342" y="666" on="1"/>
      </contour>
    </TTGlyph>
    <TTGlyph name="G" xMin="65" yMin="-5" xMax="373" yMax="671">
      <contour>
        <pt x="65" y="671" on="0"/>
        <pt x="239" y="671" on="1"/>
        <pt x="299" y="671" on="0"/>
        <pt x="355" y="655" on="1"/>
        <pt x="355" y="606" on="1"/>
        <pt x="296" y="625" on="0"/>
        <pt x="240" y="625" on="1"/>
        <pt x="172" y="625" on="0"/>
        <pt x="115" y="577" on="0"/>
        <pt x="115" y="530" on="1"/>
        <pt x="115" y="130" on="1"/>
        <pt x="115" y="40" on="0"/>
        <pt x="218" y="40" on="1"/>
        <pt x="255" y="40" on="0"/>
        <pt x="312" y="56" on="0"/>
        <pt x="323" y="64" on="1"/>
        <pt x="323" y="319" on="1"/>
        <pt x="373" y="319" on="1"/>
        <pt x="373" y="34" on="1"/>
        <pt x="343" y="16" on="0"/>
        <pt x="276" y="-5" on="0"/>
        <pt x="218" y="-5" on="1"/>
        <pt x="150" y="-5" on="0"/>
        <pt x="65" y="59" on="0"/>
        <pt x="65" y="130" on="1"/>
        <pt x="65" y="530" on="1"/>
      </contour>
    </TTGlyph>
    <TTGlyph name="Gbreve" xMin="65" yMin="-5" xMax="373" yMax="813">
      <component glyphName="G" x="0" y="0" flags="0x0"/>
      <component glyphName="breve" x="48" y="100" flags="0x4"/>
    </TTGlyph>
    <TTGlyph name="H" xMin="75" yMin="0" xMax="410" yMax="666">
      <contour>
        <pt x="410" y="666" on="1"/>
        <pt x="410" y="0" on="1"/>
        <pt x="359" y="0" on="1"/>
        <pt x="359" y="304" on="1"/>
        <pt x="125" y="304" on="1"/>
        <pt x="125" y="0" on="1"/>
        <pt x="75" y="0" on="1"/>
        <pt x="75" y="666" on="1"/>
        <pt x="125" y="666" on="1"/>
        <pt x="125" y="349" on="1"/>
        <pt x="359" y="349" on="1"/>
        <pt x="359" y="666" on="1"/>
      </contour>
    </TTGlyph>
    <TTGlyph name="I" xMin="75" yMin="0" xMax="125" yMax="666">
      <contour>
        <pt x="125" y="0" on="1"/>
        <pt x="75" y="0" on="1"/>
        <pt x="75" y="666" on="1"/>
        <pt x="125" y="666" on="1"/>
      </contour>
    </TTGlyph>
    <TTGlyph name="Iacute" xMin="75" yMin="0" xMax="171" yMax="813">
      <component glyphName="I" x="0" y="0" flags="0x0"/>
      <component glyphName="acute" x="-50" y="100" flags="0x4"/>
    </TTGlyph>
    <TTGlyph name="Icircumflex" xMin="35" yMin="0" xMax="177" yMax="813">
      <component glyphName="I" x="0" y="0" flags="0x0"/>
      <component glyphName="circumflex" x="-69" y="100" flags="0x4"/>
    </TTGlyph>
    <TTGlyph name="Idieresis" xMin="3" yMin="0" xMax="194" yMax="792">
      <component glyphName="I" x="0" y="0" flags="0x0"/>
      <component glyphName="dieresis" x="-76" y="100" flags="0x4"/>
    </TTGlyph>
    <TTGlyph name="Idotaccent" xMin="65" yMin="0" xMax="131" yMax="821">
      <component glyphName="I" x="0" y="0" flags="0x0"/>
      <component glyphName="dotaccent" x="-75" y="100" flags="0x4"/>
    </TTGlyph>
    <TTGlyph name="Igrave" xMin="29" yMin="0" xMax="125" yMax="813">
      <component glyphName="I" x="0" y="0" flags="0x0"/>
      <component glyphName="grave" x="-100" y="100" flags="0x4"/>
    </TTGlyph>
    <TTGlyph name="Imacron" xMin="-4" yMin="0" xMax="206" yMax="780">
      <component glyphName="I" x="0" y="0" flags="0x0"/>
      <component glyphName="macron" x="-74" y="100" flags="0x4"/>
    </TTGlyph>
    <TTGlyph name="Iogonek" xMin="35" yMin="-170" xMax="125" yMax="666">
      <component glyphName="I" x="0" y="0" flags="0x0"/>
      <component glyphName="ogonek" x="-95" y="0" flags="0x0"/>
    </TTGlyph>
    <TTGlyph name="J" xMin="11" yMin="-149" xMax="125" yMax="666">
      <contour>
        <pt x="125" y="195" on="1"/>
        <pt x="125" y="118" on="0"/>
        <pt x="107" y="9" on="0"/>
        <pt x="92" y="-44" on="1"/>
        <pt x="61" y="-149" on="1"/>
        <pt x="11" y="-149" on="1"/>
        <pt x="41" y="-43" on="1"/>
        <pt x="58" y="18" on="0"/>
        <pt x="75" y="123" on="0"/>
        <pt x="75" y="194" on="1"/>
        <pt x="75" y="666" on="1"/>
        <pt x="125" y="666" on="1"/>
      </contour>
    </TTGlyph>
    <TTGlyph name="K" xMin="75" yMin="0" xMax="399" yMax="666">
      <contour>
        <pt x="125" y="0" on="1"/>
        <pt x="75" y="0" on="1"/>
        <pt x="75" y="666" on="1"/>
        <pt x="125" y="666" on="1"/>
      </contour>
      <contour>
        <pt x="247" y="332" on="1"/>
        <pt x="399" y="0" on="1"/>
        <pt x="343" y="0" on="1"/>
        <pt x="192" y="330" on="1"/>
        <pt x="337" y="666" on="1"/>
        <pt x="392" y="666" on="1"/>
      </contour>
    </TTGlyph>
    <TTGlyph name="L" xMin="75" yMin="0" xMax="334" yMax="666">
      <contour>
        <pt x="125" y="45" on="1"/>
        <pt x="334" y="45" on="1"/>
        <pt x="334" y="0" on="1"/>
        <pt x="75" y="0" on="1"/>
        <pt x="75" y="666" on="1"/>
        <pt x="125" y="666" on="1"/>
      </contour>
    </TTGlyph>
    <TTGlyph name="Lacute" xMin="75" yMin="0" xMax="334" yMax="813">
      <component glyphName="L" x="0" y="0" flags="0x0"/>
      <component glyphName="acute" x="-50" y="100" flags="0x4"/>
    </TTGlyph>
    <TTGlyph name="Lcaron" xMin="75" yMin="0" xMax="334" yMax="711">
      <contour>
        <pt x="228" y="711" on="0"/>
        <pt x="242" y="699" on="0"/>
        <pt x="242" y="687" on="1"/>
        <pt x="242" y="666" on="0"/>
        <pt x="198" y="598" on="1"/>
        <pt x="167" y="598" on="1"/>
        <pt x="194" y="711" on="1"/>
        <pt x="217" y="711" on="1"/>
      </contour>
      <contour>
        <pt x="125" y="45" on="1"/>
        <pt x="334" y="45" on="1"/>
        <pt x="334" y="0" on="1"/>
        <pt x="75" y="0" on="1"/>
        <pt x="75" y="666" on="1"/>
        <pt x="125" y="666" on="1"/>
      </contour>
    </TTGlyph>
    <TTGlyph name="Lslash" xMin="20" yMin="0" xMax="334" yMax="666">
      <contour>
        <pt x="334" y="45" on="1"/>
        <pt x="334" y="0" on="1"/>
        <pt x="75" y="0" on="1"/>
        <pt x="75" y="284" on="1"/>
        <pt x="20" y="253" on="1"/>
        <pt x="20" y="298" on="1"/>
        <pt x="75" y="329" on="1"/>
        <pt x="75" y="666" on="1"/>
        <pt x="125" y="666" on="1"/>
        <pt x="125" y="356" on="1"/>
        <pt x="225" y="412" on="1"/>
        <pt x="225" y="367" on="1"/>
        <pt x="125" y="311" on="1"/>
        <pt x="125" y="45" on="1"/>
      </contour>
    </TTGlyph>
    <TTGlyph name="M" xMin="75" yMin="0" xMax="526" yMax="666">
      <contour>
        <pt x="526" y="0" on="1"/>
        <pt x="478" y="0" on="1"/>
        <pt x="478" y="384" on="1"/>
        <pt x="478" y="457" on="0"/>
        <pt x="480" y="568" on="0"/>
        <pt x="481" y="582" on="1"/>
        <pt x="332" y="180" on="1"/>
        <pt x="268" y="180" on="1"/>
        <pt x="118" y="582" on="1"/>
        <pt x="119" y="566" on="0"/>
        <pt x="122" y="449" on="0"/>
        <pt x="122" y="385" on="1"/>
        <pt x="122" y="0" on="1"/>
        <pt x="75" y="0" on="1"/>
        <pt x="75" y="666" on="1"/>
        <pt x="141" y="666" on="1"/>
        <pt x="300" y="227" on="1"/>
        <pt x="459" y="666" on="1"/>
        <pt x="526" y="666" on="1"/>
      </contour>
    </TTGlyph>
    <TTGlyph name="N" xMin="75" yMin="0" xMax="416" yMax="666">
      <contour>
        <pt x="416" y="0" on="1"/>
        <pt x="350" y="0" on="1"/>
        <pt x="201" y="377" on="1"/>
        <pt x="122" y="580" on="1"/>
        <pt x="124" y="378" on="1"/>
        <pt x="124" y="0" on="1"/>
        <pt x="75" y="0" on="1"/>
        <pt x="75" y="666" on="1"/>
        <pt x="140" y="666" on="1"/>
        <pt x="289" y="287" on="1"/>
        <pt x="368" y="84" on="1"/>
        <pt x="366" y="286" on="1"/>
        <pt x="366" y="666" on="1"/>
        <pt x="416" y="666" on="1"/>
      </contour>
    </TTGlyph>
    <TTGlyph name="Nacute" xMin="75" yMin="0" xMax="416" yMax="813">
      <component glyphName="N" x="0" y="0" flags="0x0"/>
      <component glyphName="acute" x="103" y="100" flags="0x4"/>
    </TTGlyph>
    <TTGlyph name="Ncaron" xMin="75" yMin="0" xMax="416" yMax="813">
      <component glyphName="N" x="0" y="0" flags="0x0"/>
      <component glyphName="caron" x="74" y="100" flags="0x4"/>
    </TTGlyph>
    <TTGlyph name="Ntilde" xMin="75" yMin="0" xMax="416" yMax="803">
      <component glyphName="N" x="0" y="0" flags="0x0"/>
      <component glyphName="tilde" x="80" y="100" flags="0x4"/>
    </TTGlyph>
    <TTGlyph name="O" xMin="65" yMin="-10" xMax="383" yMax="676">
      <contour>
        <pt x="65" y="591" on="0"/>
        <pt x="145" y="676" on="0"/>
        <pt x="224" y="676" on="1"/>
        <pt x="303" y="676" on="0"/>
        <pt x="383" y="591" on="0"/>
        <pt x="383" y="523" on="1"/>
        <pt x="383" y="143" on="1"/>
        <pt x="383" y="75" on="0"/>
        <pt x="303" y="-10" on="0"/>
        <pt x="224" y="-10" on="1"/>
        <pt x="145" y="-10" on="0"/>
        <pt x="65" y="75" on="0"/>
        <pt x="65" y="143" on="1"/>
        <pt x="65" y="523" on="1"/>
      </contour>
      <contour>
        <pt x="333" y="631" on="0"/>
        <pt x="224" y="631" on="1"/>
        <pt x="115" y="631" on="0"/>
        <pt x="115" y="523" on="1"/>
        <pt x="115" y="143" on="1"/>
        <pt x="115" y="35" on="0"/>
        <pt x="224" y="35" on="1"/>
        <pt x="333" y="35" on="0"/>
        <pt x="333" y="143" on="1"/>
        <pt x="333" y="523" on="1"/>
      </contour>
    </TTGlyph>
    <TTGlyph name="OE" xMin="85" yMin="0" xMax="629" yMax="666">
      <contour>
        <pt x="403" y="621" on="1"/>
        <pt x="403" y="358" on="1"/>
        <pt x="600" y="358" on="1"/>
        <pt x="600" y="313" on="1"/>
        <pt x="403" y="313" on="1"/>
        <pt x="403" y="45" on="1"/>
        <pt x="629" y="45" on="1"/>
        <pt x="629" y="0" on="1"/>
        <pt x="244" y="0" on="1"/>
        <pt x="165" y="0" on="0"/>
        <pt x="85" y="82" on="0"/>
        <pt x="85" y="150" on="1"/>
        <pt x="85" y="516" on="1"/>
        <pt x="85" y="584" on="0"/>
        <pt x="165" y="666" on="0"/>
        <pt x="244" y="666" on="1"/>
        <pt x="629" y="666" on="1"/>
        <pt x="629" y="621" on="1"/>
      </contour>
      <contour>
        <pt x="353" y="45" on="1"/>
        <pt x="353" y="621" on="1"/>
        <pt x="244" y="621" on="1"/>
        <pt x="135" y="621" on="0"/>
        <pt x="135" y="516" on="1"/>
        <pt x="135" y="150" on="1"/>
        <pt x="135" y="45" on="0"/>
        <pt x="244" y="45" on="1"/>
      </contour>
    </TTGlyph>
    <TTGlyph name="Oacute" xMin="65" yMin="-10" xMax="383" yMax="813">
      <component glyphName="O" x="0" y="0" flags="0x0"/>
      <component glyphName="acute" x="75" y="100" flags="0x4"/>
    </TTGlyph>
    <TTGlyph name="Ocircumflex" xMin="65" yMin="-10" xMax="383" yMax="813">
      <component glyphName="O" x="0" y="0" flags="0x0"/>
      <component glyphName="circumflex" x="48" y="100" flags="0x4"/>
    </TTGlyph>
    <TTGlyph name="Odieresis" xMin="65" yMin="-10" xMax="383" yMax="792">
      <component glyphName="O" x="0" y="0" flags="0x0"/>
      <component glyphName="dieresis" x="49" y="100" flags="0x4"/>
    </TTGlyph>
    <TTGlyph name="Ograve" xMin="65" yMin="-10" xMax="383" yMax="813">
      <component glyphName="O" x="0" y="0" flags="0x0"/>
      <component glyphName="grave" x="14" y="100" flags="0x4"/>
    </TTGlyph>
    <TTGlyph name="Ohungarumlaut" xMin="65" yMin="-10" xMax="383" yMax="813">
      <component glyphName="O" x="0" y="0" flags="0x0"/>
      <component glyphName="hungarumlaut" x="76" y="100" flags="0x4"/>
    </TTGlyph>
    <TTGlyph name="Omacron" xMin="65" yMin="-10" xMax="383" yMax="780">
      <component glyphName="O" x="0" y="0" flags="0x0"/>
      <component glyphName="macron" x="50" y="100" flags="0x4"/>
    </TTGlyph>
    <TTGlyph name="Oslash" xMin="65" yMin="-10" xMax="383" yMax="676">
      <contour>
        <pt x="360" y="611" on="1"/>
        <pt x="383" y="575" on="0"/>
        <pt x="383" y="523" on="1"/>
        <pt x="383" y="143" on="1"/>
        <pt x="383" y="75" on="0"/>
        <pt x="303" y="-10" on="0"/>
        <pt x="224" y="-10" on="1"/>
        <pt x="159" y="-10" on="0"/>
        <pt x="118" y="21" on="1"/>
        <pt x="109" y="0" on="1"/>
        <pt x="65" y="0" on="1"/>
        <pt x="88" y="55" on="1"/>
        <pt x="65" y="91" on="0"/>
        <pt x="65" y="143" on="1"/>
        <pt x="65" y="523" on="1"/>
        <pt x="65" y="591" on="0"/>
        <pt x="145" y="676" on="0"/>
        <pt x="224" y="676" on="1"/>
        <pt x="289" y="676" on="0"/>
        <pt x="330" y="645" on="1"/>
        <pt x="339" y="666" on="1"/>
        <pt x="383" y="666" on="1"/>
      </contour>
      <contour>
        <pt x="115" y="130" on="0"/>
        <pt x="116" y="124" on="1"/>
        <pt x="311" y="598" on="1"/>
        <pt x="284" y="631" on="0"/>
        <pt x="224" y="631" on="1"/>
        <pt x="115" y="631" on="0"/>
        <pt x="115" y="523" on="1"/>
        <pt x="115" y="143" on="1"/>
      </contour>
      <contour>
        <pt x="333" y="536" on="0"/>
        <pt x="332" y="542" on="1"/>
        <pt x="137" y="68" on="1"/>
        <pt x="164" y="35" on="0"/>
        <pt x="224" y="35" on="1"/>
        <pt x="333" y="35" on="0"/>
        <pt x="333" y="143" on="1"/>
        <pt x="333" y="523" on="1"/>
      </contour>
    </TTGlyph>
    <TTGlyph name="Otilde" xMin="65" yMin="-10" xMax="383" yMax="803">
      <component glyphName="O" x="0" y="0" flags="0x0"/>
      <component glyphName="tilde" x="51" y="100" flags="0x4"/>
    </TTGlyph>
    <TTGlyph name="P" xMin="75" yMin="0" xMax="381" yMax="666">
      <contour>
        <pt x="301" y="666" on="0"/>
        <pt x="381" y="584" on="0"/>
        <pt x="381" y="516" on="1"/>
        <pt x="381" y="389" on="1"/>
        <pt x="381" y="321" on="0"/>
        <pt x="301" y="239" on="0"/>
        <pt x="222" y="239" on="1"/>
        <pt x="125" y="239" on="1"/>
        <pt x="125" y="0" on="1"/>
        <pt x="75" y="0" on="1"/>
        <pt x="75" y="666" on="1"/>
        <pt x="222" y="666" on="1"/>
      </contour>
      <contour>
        <pt x="331" y="621" on="0"/>
        <pt x="222" y="621" on="1"/>
        <pt x="125" y="621" on="1"/>
        <pt x="125" y="284" on="1"/>
        <pt x="222" y="284" on="1"/>
        <pt x="331" y="284" on="0"/>
        <pt x="331" y="389" on="1"/>
        <pt x="331" y="516" on="1"/>
      </contour>
    </TTGlyph>
    <TTGlyph name="Q" xMin="65" yMin="-104" xMax="427" yMax="676">
      <contour>
        <pt x="362" y="-104" on="1"/>
        <pt x="274" y="-5" on="1"/>
        <pt x="249" y="-10" on="0"/>
        <pt x="224" y="-10" on="1"/>
        <pt x="145" y="-10" on="0"/>
        <pt x="65" y="75" on="0"/>
        <pt x="65" y="143" on="1"/>
        <pt x="65" y="523" on="1"/>
        <pt x="65" y="591" on="0"/>
        <pt x="145" y="676" on="0"/>
        <pt x="224" y="676" on="1"/>
        <pt x="303" y="676" on="0"/>
        <pt x="383" y="591" on="0"/>
        <pt x="383" y="523" on="1"/>
        <pt x="383" y="143" on="1"/>
        <pt x="383" y="101" on="0"/>
        <pt x="352" y="35" on="0"/>
        <pt x="321" y="15" on="1"/>
        <pt x="427" y="-104" on="1"/>
      </contour>
      <contour>
        <pt x="115" y="35" on="0"/>
        <pt x="224" y="35" on="1"/>
        <pt x="333" y="35" on="0"/>
        <pt x="333" y="143" on="1"/>
        <pt x="333" y="523" on="1"/>
        <pt x="333" y="631" on="0"/>
        <pt x="224" y="631" on="1"/>
        <pt x="115" y="631" on="0"/>
        <pt x="115" y="523" on="1"/>
        <pt x="115" y="143" on="1"/>
      </contour>
    </TTGlyph>
    <TTGlyph name="R" xMin="75" yMin="0" xMax="400" yMax="666">
      <contour>
        <pt x="345" y="0" on="1"/>
        <pt x="246" y="276" on="1"/>
        <pt x="238" y="275" on="0"/>
        <pt x="222" y="275" on="1"/>
        <pt x="125" y="275" on="1"/>
        <pt x="125" y="0" on="1"/>
        <pt x="75" y="0" on="1"/>
        <pt x="75" y="666" on="1"/>
        <pt x="222" y="666" on="1"/>
        <pt x="301" y="666" on="0"/>
        <pt x="381" y="584" on="0"/>
        <pt x="381" y="516" on="1"/>
        <pt x="381" y="425" on="1"/>
        <pt x="381" y="375" on="0"/>
        <pt x="338" y="303" on="0"/>
        <pt x="295" y="287" on="1"/>
        <pt x="400" y="0" on="1"/>
      </contour>
      <contour>
        <pt x="222" y="322" on="1"/>
        <pt x="279" y="322" on="0"/>
        <pt x="331" y="375" on="0"/>
        <pt x="331" y="425" on="1"/>
        <pt x="331" y="516" on="1"/>
        <pt x="331" y="621" on="0"/>
        <pt x="222" y="621" on="1"/>
        <pt x="125" y="621" on="1"/>
        <pt x="125" y="322" on="1"/>
      </contour>
    </TTGlyph>
    <TTGlyph name="Racute" xMin="75" yMin="0" xMax="400" yMax="813">
      <component glyphName="R" x="0" y="0" flags="0x0"/>
      <component glyphName="acute" x="80" y="100" flags="0x4"/>
    </TTGlyph>
    <TTGlyph name="Rcaron" xMin="75" yMin="0" xMax="400" yMax="813">
      <component glyphName="R" x="0" y="0" flags="0x0"/>
      <component glyphName="caron" x="48" y="100" flags="0x4"/>
    </TTGlyph>
    <TTGlyph name="S" xMin="30" yMin="-5" xMax="339" yMax="671">
      <contour>
        <pt x="30" y="600" on="0"/>
        <pt x="113" y="671" on="0"/>
        <pt x="192" y="671" on="1"/>
        <pt x="263" y="671" on="0"/>
        <pt x="316" y="656" on="1"/>
        <pt x="316" y="608" on="1"/>
        <pt x="295" y="616" on="0"/>
        <pt x="227" y="625" on="0"/>
        <pt x="192" y="625" on="1"/>
        <pt x="80" y="625" on="0"/>
        <pt x="80" y="539" on="1"/>
        <pt x="80" y="482" on="1"/>
        <pt x="80" y="446" on="0"/>
        <pt x="109" y="401" on="0"/>
        <pt x="141" y="383" on="1"/>
        <pt x="258" y="318" on="1"/>
        <pt x="300" y="295" on="0"/>
        <pt x="339" y="232" on="0"/>
        <pt x="339" y="186" on="1"/>
        <pt x="339" y="134" on="1"/>
        <pt x="339" y="68" on="0"/>
        <pt x="252" y="-5" on="0"/>
        <pt x="163" y="-5" on="1"/>
        <pt x="127" y="-5" on="0"/>
        <pt x="56" y="6" on="0"/>
        <pt x="34" y="14" on="1"/>
        <pt x="34" y="62" on="1"/>
        <pt x="59" y="53" on="0"/>
        <pt x="129" y="41" on="0"/>
        <pt x="163" y="41" on="1"/>
        <pt x="229" y="41" on="0"/>
        <pt x="289" y="91" on="0"/>
        <pt x="289" y="134" on="1"/>
        <pt x="289" y="183" on="1"/>
        <pt x="289" y="218" on="0"/>
        <pt x="264" y="260" on="0"/>
        <pt x="231" y="278" on="1"/>
        <pt x="114" y="342" on="1"/>
        <pt x="71" y="365" on="0"/>
        <pt x="30" y="430" on="0"/>
        <pt x="30" y="479" on="1"/>
        <pt x="30" y="537" on="1"/>
      </contour>
    </TTGlyph>
    <TTGlyph name="Sacute" xMin="30" yMin="-5" xMax="339" yMax="813">
      <component glyphName="S" x="0" y="0" flags="0x0"/>
      <component glyphName="acute" x="39" y="100" flags="0x4"/>
    </TTGlyph>
    <TTGlyph name="Scaron" xMin="30" yMin="-5" xMax="339" yMax="813">
      <component glyphName="S" x="0" y="0" flags="0x0"/>
      <component glyphName="caron" x="20" y="100" flags="0x4"/>
    </TTGlyph>
    <TTGlyph name="T" xMin="10" yMin="0" xMax="324" yMax="666">
      <contour>
        <pt x="324" y="621" on="1"/>
        <pt x="192" y="621" on="1"/>
        <pt x="192" y="0" on="1"/>
        <pt x="142" y="0" on="1"/>
        <pt x="142" y="621" on="1"/>
        <pt x="10" y="621" on="1"/>
        <pt x="10" y="666" on="1"/>
        <pt x="324" y="666" on="1"/>
      </contour>
    </TTGlyph>
    <TTGlyph name="Tcaron" xMin="10" yMin="0" xMax="324" yMax="813">
      <component glyphName="T" x="0" y="0" flags="0x0"/>
      <component glyphName="caron" x="-9" y="100" flags="0x4"/>
    </TTGlyph>
    <TTGlyph name="Thorn" xMin="85" yMin="0" xMax="391" yMax="666">
      <contour>
        <pt x="311" y="540" on="0"/>
        <pt x="391" y="458" on="0"/>
        <pt x="391" y="390" on="1"/>
        <pt x="391" y="276" on="1"/>
        <pt x="391" y="208" on="0"/>
        <pt x="311" y="126" on="0"/>
        <pt x="232" y="126" on="1"/>
        <pt x="135" y="126" on="1"/>
        <pt x="135" y="0" on="1"/>
        <pt x="85" y="0" on="1"/>
        <pt x="85" y="666" on="1"/>
        <pt x="135" y="666" on="1"/>
        <pt x="135" y="540" on="1"/>
        <pt x="232" y="540" on="1"/>
      </contour>
      <contour>
        <pt x="341" y="390" on="1"/>
        <pt x="341" y="495" on="0"/>
        <pt x="232" y="495" on="1"/>
        <pt x="135" y="495" on="1"/>
        <pt x="135" y="173" on="1"/>
        <pt x="232" y="173" on="1"/>
        <pt x="289" y="173" on="0"/>
        <pt x="341" y="226" on="0"/>
        <pt x="341" y="276" on="1"/>
      </contour>
    </TTGlyph>
    <TTGlyph name="U" xMin="70" yMin="-10" xMax="388" yMax="666">
      <contour>
        <pt x="388" y="143" on="1"/>
        <pt x="388" y="75" on="0"/>
        <pt x="308" y="-10" on="0"/>
        <pt x="229" y="-10" on="1"/>
        <pt x="150" y="-10" on="0"/>
        <pt x="70" y="75" on="0"/>
        <pt x="70" y="143" on="1"/>
        <pt x="70" y="666" on="1"/>
        <pt x="120" y="666" on="1"/>
        <pt x="120" y="143" on="1"/>
        <pt x="120" y="35" on="0"/>
        <pt x="229" y="35" on="1"/>
        <pt x="338" y="35" on="0"/>
        <pt x="338" y="143" on="1"/>
        <pt x="338" y="666" on="1"/>
        <pt x="388" y="666" on="1"/>
      </contour>
    </TTGlyph>
    <TTGlyph name="Uacute" xMin="70" yMin="-10" xMax="388" yMax="813">
      <component glyphName="U" x="0" y="0" flags="0x0"/>
      <component glyphName="acute" x="82" y="100" flags="0x4"/>
    </TTGlyph>
    <TTGlyph name="Ucircumflex" xMin="70" yMin="-10" xMax="388" yMax="813">
      <component glyphName="U" x="0" y="0" flags="0x0"/>
      <component glyphName="circumflex" x="53" y="100" flags="0x4"/>
    </TTGlyph>
    <TTGlyph name="Udieresis" xMin="70" yMin="-10" xMax="388" yMax="792">
      <component glyphName="U" x="0" y="0" flags="0x0"/>
      <component glyphName="dieresis" x="54" y="100" flags="0x4"/>
    </TTGlyph>
    <TTGlyph name="Ugrave" xMin="70" yMin="-10" xMax="388" yMax="813">
      <component glyphName="U" x="0" y="0" flags="0x0"/>
      <component glyphName="grave" x="26" y="100" flags="0x4"/>
    </TTGlyph>
    <TTGlyph name="Uhungarumlaut" xMin="70" yMin="-10" xMax="388" yMax="813">
      <component glyphName="hungarumlaut" x="73" y="100" flags="0x4"/>
      <component glyphName="U" x="0" y="0" flags="0x0"/>
    </TTGlyph>
    <TTGlyph name="Umacron" xMin="70" yMin="-10" xMax="388" yMax="780">
      <component glyphName="U" x="0" y="0" flags="0x0"/>
      <component glyphName="macron" x="54" y="100" flags="0x4"/>
    </TTGlyph>
    <TTGlyph name="Uogonek" xMin="70" yMin="-160" xMax="388" yMax="666">
      <component glyphName="U" x="0" y="0" flags="0x0"/>
      <component glyphName="ogonek" x="97" y="10" flags="0x4"/>
    </TTGlyph>
    <TTGlyph name="Uring" xMin="70" yMin="-10" xMax="388" yMax="831">
      <component glyphName="U" x="0" y="0" flags="0x0"/>
      <component glyphName="ring" x="57" y="100" flags="0x4"/>
    </TTGlyph>
    <TTGlyph name="V" xMin="15" yMin="0" xMax="387" yMax="666">
      <contour>
        <pt x="237" y="0" on="1"/>
        <pt x="165" y="0" on="1"/>
        <pt x="15" y="666" on="1"/>
        <pt x="67" y="666" on="1"/>
        <pt x="143" y="322" on="1"/>
        <pt x="201" y="53" on="1"/>
        <pt x="259" y="323" on="1"/>
        <pt x="335" y="666" on="1"/>
        <pt x="387" y="666" on="1"/>
      </contour>
    </TTGlyph>
    <TTGlyph name="W" xMin="25" yMin="0" xMax="588" yMax="666">
      <contour>
        <pt x="472" y="0" on="1"/>
        <pt x="400" y="0" on="1"/>
        <pt x="339" y="351" on="1"/>
        <pt x="325" y="433" on="0"/>
        <pt x="308" y="569" on="0"/>
        <pt x="306" y="587" on="1"/>
        <pt x="304" y="568" on="0"/>
        <pt x="288" y="431" on="0"/>
        <pt x="274" y="352" on="1"/>
        <pt x="213" y="0" on="1"/>
        <pt x="141" y="0" on="1"/>
        <pt x="25" y="666" on="1"/>
        <pt x="77" y="666" on="1"/>
        <pt x="151" y="220" on="1"/>
        <pt x="161" y="156" on="0"/>
        <pt x="175" y="60" on="0"/>
        <pt x="177" y="45" on="1"/>
        <pt x="179" y="60" on="0"/>
        <pt x="194" y="166" on="0"/>
        <pt x="203" y="221" on="1"/>
        <pt x="277" y="666" on="1"/>
        <pt x="336" y="666" on="1"/>
        <pt x="410" y="220" on="1"/>
        <pt x="419" y="164" on="0"/>
        <pt x="434" y="63" on="0"/>
        <pt x="436" y="45" on="1"/>
        <pt x="438" y="63" on="0"/>
        <pt x="453" y="164" on="0"/>
        <pt x="462" y="220" on="1"/>
        <pt x="536" y="666" on="1"/>
        <pt x="588" y="666" on="1"/>
      </contour>
    </TTGlyph>
    <TTGlyph name="X" xMin="15" yMin="0" xMax="357" yMax="666">
      <contour>
        <pt x="211" y="333" on="1"/>
        <pt x="357" y="0" on="1"/>
        <pt x="302" y="0" on="1"/>
        <pt x="186" y="272" on="1"/>
        <pt x="70" y="0" on="1"/>
        <pt x="15" y="0" on="1"/>
        <pt x="160" y="333" on="1"/>
        <pt x="15" y="666" on="1"/>
        <pt x="70" y="666" on="1"/>
        <pt x="186" y="393" on="1"/>
        <pt x="302" y="666" on="1"/>
        <pt x="357" y="666" on="1"/>
      </contour>
    </TTGlyph>
    <TTGlyph name="Y" xMin="5" yMin="0" xMax="385" yMax="666">
      <contour>
        <pt x="220" y="230" on="1"/>
        <pt x="220" y="0" on="1"/>
        <pt x="170" y="0" on="1"/>
        <pt x="170" y="230" on="1"/>
        <pt x="5" y="666" on="1"/>
        <pt x="57" y="666" on="1"/>
        <pt x="134" y="463" on="1"/>
        <pt x="196" y="294" on="1"/>
        <pt x="257" y="462" on="1"/>
        <pt x="333" y="666" on="1"/>
        <pt x="385" y="666" on="1"/>
      </contour>
    </TTGlyph>
    <TTGlyph name="Yacute" xMin="5" yMin="0" xMax="385" yMax="813">
      <component glyphName="Y" x="0" y="0" flags="0x0"/>
      <component glyphName="acute" x="45" y="100" flags="0x4"/>
    </TTGlyph>
    <TTGlyph name="Ydieresis" xMin="5" yMin="0" xMax="385" yMax="792">
      <component glyphName="dieresis" x="14" y="100" flags="0x4"/>
      <component glyphName="Y" x="0" y="0" flags="0x0"/>
    </TTGlyph>
    <TTGlyph name="Z" xMin="30" yMin="0" xMax="341" yMax="666">
      <contour>
        <pt x="341" y="621" on="1"/>
        <pt x="83" y="45" on="1"/>
        <pt x="335" y="45" on="1"/>
        <pt x="335" y="0" on="1"/>
        <pt x="30" y="0" on="1"/>
        <pt x="30" y="45" on="1"/>
        <pt x="288" y="621" on="1"/>
        <pt x="36" y="621" on="1"/>
        <pt x="36" y="666" on="1"/>
        <pt x="341" y="666" on="1"/>
      </contour>
    </TTGlyph>
    <TTGlyph name="Zacute" xMin="30" yMin="0" xMax="341" yMax="813">
      <component glyphName="Z" x="0" y="0" flags="0x0"/>
      <component glyphName="acute" x="36" y="100" flags="0x4"/>
    </TTGlyph>
    <TTGlyph name="Zcaron" xMin="30" yMin="0" xMax="341" yMax="813">
      <component glyphName="Z" x="0" y="0" flags="0x0"/>
      <component glyphName="caron" x="16" y="100" flags="0x4"/>
    </TTGlyph>
    <TTGlyph name="Zdotaccent" xMin="30" yMin="0" xMax="341" yMax="821">
      <component glyphName="Z" x="0" y="0" flags="0x0"/>
      <component glyphName="dotaccent" x="10" y="100" flags="0x4"/>
    </TTGlyph>
    <TTGlyph name="a" xMin="35" yMin="-4" xMax="352" yMax="568">
      <contour>
        <pt x="84" y="557" on="0"/>
        <pt x="153" y="568" on="0"/>
        <pt x="188" y="568" on="1"/>
        <pt x="352" y="568" on="0"/>
        <pt x="352" y="432" on="1"/>
        <pt x="352" y="0" on="1"/>
        <pt x="303" y="0" on="1"/>
        <pt x="303" y="40" on="1"/>
        <pt x="274" y="18" on="0"/>
        <pt x="221" y="-4" on="0"/>
        <pt x="175" y="-4" on="1"/>
        <pt x="103" y="-4" on="0"/>
        <pt x="35" y="66" on="0"/>
        <pt x="35" y="130" on="1"/>
        <pt x="35" y="162" on="1"/>
        <pt x="35" y="211" on="0"/>
        <pt x="93" y="277" on="0"/>
        <pt x="155" y="295" on="1"/>
        <pt x="303" y="337" on="1"/>
        <pt x="303" y="432" on="1"/>
        <pt x="303" y="477" on="0"/>
        <pt x="254" y="520" on="0"/>
        <pt x="188" y="520" on="1"/>
        <pt x="155" y="520" on="0"/>
        <pt x="85" y="509" on="0"/>
        <pt x="61" y="500" on="1"/>
        <pt x="61" y="550" on="1"/>
      </contour>
      <contour>
        <pt x="171" y="253" on="1"/>
        <pt x="122" y="238" on="0"/>
        <pt x="84" y="196" on="0"/>
        <pt x="84" y="160" on="1"/>
        <pt x="84" y="129" on="1"/>
        <pt x="84" y="83" on="0"/>
        <pt x="127" y="40" on="0"/>
        <pt x="178" y="40" on="1"/>
        <pt x="215" y="40" on="0"/>
        <pt x="281" y="66" on="0"/>
        <pt x="303" y="86" on="1"/>
        <pt x="303" y="290" on="1"/>
      </contour>
    </TTGlyph>
    <TTGlyph name="aacute" xMin="35" yMin="-4" xMax="352" yMax="713">
      <component glyphName="a" x="0" y="0" flags="0x0"/>
      <component glyphName="acute" x="58" y="0" flags="0x0"/>
    </TTGlyph>
    <TTGlyph name="abreve" xMin="35" yMin="-4" xMax="352" yMax="713">
      <component glyphName="a" x="0" y="0" flags="0x0"/>
      <component glyphName="breve" x="37" y="0" flags="0x0"/>
    </TTGlyph>
    <TTGlyph name="acircumflex" xMin="35" yMin="-4" xMax="352" yMax="713">
      <component glyphName="a" x="0" y="0" flags="0x0"/>
      <component glyphName="circumflex" x="40" y="0" flags="0x0"/>
    </TTGlyph>
    <TTGlyph name="acute" xMin="129" yMin="608" xMax="221" yMax="713">
      <contour>
        <pt x="166" y="608" on="1"/>
        <pt x="129" y="608" on="1"/>
        <pt x="166" y="713" on="1"/>
        <pt x="221" y="713" on="1"/>
      </contour>
    </TTGlyph>
    <TTGlyph name="adieresis" xMin="35" yMin="-4" xMax="352" yMax="692">
      <component glyphName="a" x="0" y="0" flags="0x0"/>
      <component glyphName="dieresis" x="35" y="0" flags="0x0"/>
    </TTGlyph>
    <TTGlyph name="ae" xMin="35" yMin="-5" xMax="618" yMax="573">
      <contour>
        <pt x="350" y="538" on="0"/>
        <pt x="417" y="573" on="0"/>
        <pt x="462" y="573" on="1"/>
        <pt x="541" y="573" on="0"/>
        <pt x="618" y="488" on="0"/>
        <pt x="618" y="419" on="1"/>
        <pt x="618" y="252" on="1"/>
        <pt x="353" y="252" on="1"/>
        <pt x="353" y="139" on="1"/>
        <pt x="353" y="42" on="0"/>
        <pt x="489" y="42" on="1"/>
        <pt x="543" y="42" on="0"/>
        <pt x="600" y="59" on="1"/>
        <pt x="600" y="10" on="1"/>
        <pt x="549" y="-5" on="0"/>
        <pt x="489" y="-5" on="1"/>
        <pt x="377" y="-5" on="0"/>
        <pt x="333" y="48" on="1"/>
        <pt x="307" y="25" on="0"/>
        <pt x="220" y="-4" on="0"/>
        <pt x="175" y="-4" on="1"/>
        <pt x="103" y="-4" on="0"/>
        <pt x="35" y="66" on="0"/>
        <pt x="35" y="130" on="1"/>
        <pt x="35" y="162" on="1"/>
        <pt x="35" y="211" on="0"/>
        <pt x="93" y="277" on="0"/>
        <pt x="155" y="295" on="1"/>
        <pt x="303" y="337" on="1"/>
        <pt x="303" y="432" on="1"/>
        <pt x="303" y="477" on="0"/>
        <pt x="254" y="520" on="0"/>
        <pt x="188" y="520" on="1"/>
        <pt x="155" y="520" on="0"/>
        <pt x="85" y="509" on="0"/>
        <pt x="61" y="500" on="1"/>
        <pt x="61" y="550" on="1"/>
        <pt x="84" y="557" on="0"/>
        <pt x="153" y="568" on="0"/>
        <pt x="188" y="568" on="1"/>
        <pt x="292" y="568" on="0"/>
        <pt x="331" y="513" on="1"/>
      </contour>
      <contour>
        <pt x="568" y="528" on="0"/>
        <pt x="462" y="528" on="1"/>
        <pt x="405" y="528" on="0"/>
        <pt x="353" y="470" on="0"/>
        <pt x="353" y="419" on="1"/>
        <pt x="353" y="297" on="1"/>
        <pt x="568" y="297" on="1"/>
        <pt x="568" y="419" on="1"/>
      </contour>
      <contour>
        <pt x="171" y="253" on="1"/>
        <pt x="122" y="238" on="0"/>
        <pt x="84" y="196" on="0"/>
        <pt x="84" y="160" on="1"/>
        <pt x="84" y="129" on="1"/>
        <pt x="84" y="83" on="0"/>
        <pt x="127" y="40" on="0"/>
        <pt x="178" y="40" on="1"/>
        <pt x="217" y="40" on="0"/>
        <pt x="282" y="62" on="0"/>
        <pt x="303" y="81" on="1"/>
        <pt x="303" y="290" on="1"/>
      </contour>
    </TTGlyph>
    <TTGlyph name="agrave" xMin="35" yMin="-4" xMax="352" yMax="713">
      <component glyphName="a" x="0" y="0" flags="0x0"/>
      <component glyphName="grave" x="3" y="0" flags="0x0"/>
    </TTGlyph>
    <TTGlyph name="amacron" xMin="35" yMin="-4" xMax="352" yMax="680">
      <component glyphName="a" x="0" y="0" flags="0x0"/>
      <component glyphName="macron" x="28" y="0" flags="0x0"/>
    </TTGlyph>
    <TTGlyph name="ampersand" xMin="53" yMin="-10" xMax="428" yMax="671">
      <contour>
        <pt x="428" y="319" on="1"/>
        <pt x="388" y="319" on="1"/>
        <pt x="388" y="143" on="1"/>
        <pt x="388" y="76" on="0"/>
        <pt x="302" y="-10" on="0"/>
        <pt x="222" y="-10" on="1"/>
        <pt x="142" y="-10" on="0"/>
        <pt x="53" y="76" on="0"/>
        <pt x="53" y="143" on="1"/>
        <pt x="53" y="211" on="1"/>
        <pt x="53" y="259" on="0"/>
        <pt x="93" y="326" on="0"/>
        <pt x="133" y="341" on="1"/>
        <pt x="54" y="371" on="0"/>
        <pt x="54" y="472" on="1"/>
        <pt x="54" y="526" on="1"/>
        <pt x="54" y="593" on="0"/>
        <pt x="142" y="671" on="0"/>
        <pt x="233" y="671" on="1"/>
        <pt x="299" y="671" on="0"/>
        <pt x="358" y="652" on="1"/>
        <pt x="358" y="602" on="1"/>
        <pt x="299" y="623" on="0"/>
        <pt x="233" y="623" on="1"/>
        <pt x="161" y="623" on="0"/>
        <pt x="104" y="572" on="0"/>
        <pt x="104" y="526" on="1"/>
        <pt x="104" y="472" on="1"/>
        <pt x="104" y="364" on="0"/>
        <pt x="203" y="364" on="1"/>
        <pt x="338" y="364" on="1"/>
        <pt x="338" y="421" on="1"/>
        <pt x="388" y="421" on="1"/>
        <pt x="388" y="364" on="1"/>
        <pt x="428" y="364" on="1"/>
      </contour>
      <contour>
        <pt x="338" y="319" on="1"/>
        <pt x="205" y="319" on="1"/>
        <pt x="152" y="319" on="0"/>
        <pt x="103" y="261" on="0"/>
        <pt x="103" y="211" on="1"/>
        <pt x="103" y="143" on="1"/>
        <pt x="103" y="94" on="0"/>
        <pt x="164" y="35" on="0"/>
        <pt x="222" y="35" on="1"/>
        <pt x="279" y="35" on="0"/>
        <pt x="338" y="93" on="0"/>
        <pt x="338" y="143" on="1"/>
      </contour>
    </TTGlyph>
    <TTGlyph name="aogonek" xMin="35" yMin="-170" xMax="352" yMax="568">
      <component glyphName="a" x="0" y="0" flags="0x0"/>
      <component glyphName="ogonek" x="131" y="0" flags="0x0"/>
    </TTGlyph>
    <TTGlyph name="apostrophemod" xMin="30" yMin="520" xMax="117" yMax="708">
      <component glyphName="quoteright" x="0" y="0" flags="0x0"/>
    </TTGlyph>
    <TTGlyph name="approxequal" xMin="47" yMin="216" xMax="376" yMax="451">
      <contour>
        <pt x="374" y="443" on="0"/>
        <pt x="376" y="432" on="0"/>
        <pt x="376" y="424" on="1"/>
        <pt x="376" y="387" on="0"/>
        <pt x="332" y="346" on="0"/>
        <pt x="298" y="346" on="1"/>
        <pt x="271" y="346" on="0"/>
        <pt x="245" y="359" on="1"/>
        <pt x="171" y="395" on="1"/>
        <pt x="143" y="408" on="0"/>
        <pt x="124" y="408" on="1"/>
        <pt x="106" y="408" on="0"/>
        <pt x="84" y="388" on="0"/>
        <pt x="84" y="368" on="1"/>
        <pt x="84" y="364" on="0"/>
        <pt x="86" y="352" on="1"/>
        <pt x="49" y="352" on="1"/>
        <pt x="49" y="354" on="0"/>
        <pt x="47" y="365" on="0"/>
        <pt x="47" y="373" on="1"/>
        <pt x="47" y="410" on="0"/>
        <pt x="92" y="451" on="0"/>
        <pt x="125" y="451" on="1"/>
        <pt x="153" y="451" on="0"/>
        <pt x="178" y="438" on="1"/>
        <pt x="252" y="402" on="1"/>
        <pt x="280" y="388" on="0"/>
        <pt x="301" y="388" on="1"/>
        <pt x="319" y="388" on="0"/>
        <pt x="339" y="408" on="0"/>
        <pt x="339" y="428" on="1"/>
        <pt x="339" y="433" on="0"/>
        <pt x="337" y="445" on="1"/>
        <pt x="374" y="445" on="1"/>
      </contour>
      <contour>
        <pt x="374" y="313" on="0"/>
        <pt x="376" y="302" on="0"/>
        <pt x="376" y="294" on="1"/>
        <pt x="376" y="257" on="0"/>
        <pt x="332" y="216" on="0"/>
        <pt x="298" y="216" on="1"/>
        <pt x="271" y="216" on="0"/>
        <pt x="245" y="229" on="1"/>
        <pt x="171" y="265" on="1"/>
        <pt x="143" y="278" on="0"/>
        <pt x="124" y="278" on="1"/>
        <pt x="106" y="278" on="0"/>
        <pt x="84" y="258" on="0"/>
        <pt x="84" y="238" on="1"/>
        <pt x="84" y="234" on="0"/>
        <pt x="86" y="222" on="1"/>
        <pt x="49" y="222" on="1"/>
        <pt x="49" y="224" on="0"/>
        <pt x="47" y="235" on="0"/>
        <pt x="47" y="243" on="1"/>
        <pt x="47" y="280" on="0"/>
        <pt x="92" y="321" on="0"/>
        <pt x="125" y="321" on="1"/>
        <pt x="153" y="321" on="0"/>
        <pt x="178" y="308" on="1"/>
        <pt x="252" y="272" on="1"/>
        <pt x="280" y="258" on="0"/>
        <pt x="301" y="258" on="1"/>
        <pt x="319" y="258" on="0"/>
        <pt x="339" y="278" on="0"/>
        <pt x="339" y="298" on="1"/>
        <pt x="339" y="303" on="0"/>
        <pt x="337" y="315" on="1"/>
        <pt x="374" y="315" on="1"/>
      </contour>
    </TTGlyph>
    <TTGlyph name="aring" xMin="35" yMin="-4" xMax="352" yMax="731">
      <component glyphName="a" x="0" y="0" flags="0x0"/>
      <component glyphName="ring" x="34" y="0" flags="0x0"/>
    </TTGlyph>
    <TTGlyph name="asciicircum" xMin="4" yMin="374" xMax="276" yMax="644">
      <contour>
        <pt x="229" y="374" on="1"/>
        <pt x="140" y="622" on="1"/>
        <pt x="51" y="374" on="1"/>
        <pt x="4" y="374" on="1"/>
        <pt x="104" y="644" on="1"/>
        <pt x="177" y="644" on="1"/>
        <pt x="276" y="374" on="1"/>
      </contour>
    </TTGlyph>
    <TTGlyph name="asciitilde" xMin="23" yMin="283" xMax="352" yMax="388">
      <contour>
        <pt x="350" y="380" on="0"/>
        <pt x="352" y="369" on="0"/>
        <pt x="352" y="361" on="1"/>
        <pt x="352" y="324" on="0"/>
        <pt x="308" y="283" on="0"/>
        <pt x="274" y="283" on="1"/>
        <pt x="247" y="283" on="0"/>
        <pt x="221" y="296" on="1"/>
        <pt x="147" y="332" on="1"/>
        <pt x="119" y="345" on="0"/>
        <pt x="100" y="345" on="1"/>
        <pt x="82" y="345" on="0"/>
        <pt x="60" y="325" on="0"/>
        <pt x="60" y="305" on="1"/>
        <pt x="60" y="301" on="0"/>
        <pt x="62" y="289" on="1"/>
        <pt x="25" y="289" on="1"/>
        <pt x="25" y="291" on="0"/>
        <pt x="23" y="302" on="0"/>
        <pt x="23" y="310" on="1"/>
        <pt x="23" y="347" on="0"/>
        <pt x="68" y="388" on="0"/>
        <pt x="101" y="388" on="1"/>
        <pt x="129" y="388" on="0"/>
        <pt x="154" y="375" on="1"/>
        <pt x="228" y="339" on="1"/>
        <pt x="256" y="325" on="0"/>
        <pt x="277" y="325" on="1"/>
        <pt x="295" y="325" on="0"/>
        <pt x="315" y="345" on="0"/>
        <pt x="315" y="365" on="1"/>
        <pt x="315" y="370" on="0"/>
        <pt x="313" y="382" on="1"/>
        <pt x="350" y="382" on="1"/>
      </contour>
    </TTGlyph>
    <TTGlyph name="asterisk" xMin="70" yMin="444" xMax="414" yMax="771">
      <contour>
        <pt x="279" y="580" on="0"/>
        <pt x="299" y="553" on="1"/>
        <pt x="361" y="468" on="1"/>
        <pt x="328" y="444" on="1"/>
        <pt x="267" y="528" on="1"/>
        <pt x="246" y="557" on="0"/>
        <pt x="242" y="578" on="1"/>
        <pt x="235" y="553" on="0"/>
        <pt x="217" y="529" on="1"/>
        <pt x="156" y="444" on="1"/>
        <pt x="123" y="468" on="1"/>
        <pt x="184" y="552" on="1"/>
        <pt x="205" y="580" on="0"/>
        <pt x="224" y="591" on="1"/>
        <pt x="201" y="589" on="0"/>
        <pt x="169" y="599" on="1"/>
        <pt x="70" y="631" on="1"/>
        <pt x="82" y="670" on="1"/>
        <pt x="181" y="638" on="1"/>
        <pt x="213" y="628" on="0"/>
        <pt x="231" y="612" on="1"/>
        <pt x="221" y="634" on="0"/>
        <pt x="221" y="667" on="1"/>
        <pt x="221" y="771" on="1"/>
        <pt x="262" y="771" on="1"/>
        <pt x="262" y="667" on="1"/>
        <pt x="262" y="637" on="0"/>
        <pt x="253" y="612" on="1"/>
        <pt x="269" y="628" on="0"/>
        <pt x="301" y="638" on="1"/>
        <pt x="401" y="671" on="1"/>
        <pt x="414" y="632" on="1"/>
        <pt x="315" y="600" on="1"/>
        <pt x="283" y="589" on="0"/>
        <pt x="260" y="591" on="1"/>
      </contour>
    </TTGlyph>
    <TTGlyph name="at" xMin="76" yMin="-106" xMax="773" yMax="648">
      <contour>
        <pt x="608" y="648" on="0"/>
        <pt x="773" y="466" on="0"/>
        <pt x="773" y="282" on="1"/>
        <pt x="773" y="151" on="0"/>
        <pt x="699" y="33" on="0"/>
        <pt x="627" y="33" on="1"/>
        <pt x="554" y="33" on="0"/>
        <pt x="526" y="79" on="1"/>
        <pt x="511" y="67" on="0"/>
        <pt x="450" y="44" on="0"/>
        <pt x="404" y="44" on="1"/>
        <pt x="345" y="44" on="0"/>
        <pt x="278" y="103" on="0"/>
        <pt x="278" y="158" on="1"/>
        <pt x="278" y="169" on="1"/>
        <pt x="278" y="222" on="0"/>
        <pt x="339" y="276" on="0"/>
        <pt x="401" y="295" on="1"/>
        <pt x="509" y="327" on="1"/>
        <pt x="509" y="382" on="1"/>
        <pt x="509" y="421" on="0"/>
        <pt x="473" y="462" on="0"/>
        <pt x="426" y="462" on="1"/>
        <pt x="398" y="462" on="0"/>
        <pt x="347" y="455" on="0"/>
        <pt x="304" y="445" on="1"/>
        <pt x="304" y="490" on="1"/>
        <pt x="370" y="506" on="0"/>
        <pt x="426" y="506" on="1"/>
        <pt x="492" y="506" on="0"/>
        <pt x="555" y="439" on="0"/>
        <pt x="555" y="382" on="1"/>
        <pt x="555" y="157" on="1"/>
        <pt x="555" y="114" on="0"/>
        <pt x="590" y="76" on="0"/>
        <pt x="627" y="76" on="1"/>
        <pt x="673" y="76" on="0"/>
        <pt x="726" y="170" on="0"/>
        <pt x="726" y="282" on="1"/>
        <pt x="726" y="445" on="0"/>
        <pt x="585" y="606" on="0"/>
        <pt x="424" y="606" on="1"/>
        <pt x="264" y="606" on="0"/>
        <pt x="123" y="436" on="0"/>
        <pt x="123" y="271" on="1"/>
        <pt x="123" y="106" on="0"/>
        <pt x="264" y="-64" on="0"/>
        <pt x="424" y="-64" on="1"/>
        <pt x="508" y="-64" on="1"/>
        <pt x="508" y="-106" on="1"/>
        <pt x="424" y="-106" on="1"/>
        <pt x="241" y="-106" on="0"/>
        <pt x="76" y="86" on="0"/>
        <pt x="76" y="271" on="1"/>
        <pt x="76" y="455" on="0"/>
        <pt x="243" y="648" on="0"/>
        <pt x="424" y="648" on="1"/>
      </contour>
      <contour>
        <pt x="509" y="281" on="1"/>
        <pt x="408" y="251" on="1"/>
        <pt x="364" y="238" on="0"/>
        <pt x="328" y="207" on="0"/>
        <pt x="328" y="169" on="1"/>
        <pt x="328" y="157" on="1"/>
        <pt x="328" y="87" on="0"/>
        <pt x="404" y="87" on="1"/>
        <pt x="435" y="87" on="0"/>
        <pt x="481" y="102" on="0"/>
        <pt x="509" y="119" on="0"/>
        <pt x="509" y="120" on="1"/>
      </contour>
    </TTGlyph>
    <TTGlyph name="atilde" xMin="35" yMin="-4" xMax="352" yMax="703">
      <component glyphName="a" x="0" y="0" flags="0x0"/>
      <component glyphName="tilde" x="37" y="0" flags="0x0"/>
    </TTGlyph>
    <TTGlyph name="b" xMin="75" yMin="0" xMax="378" yMax="713">
      <contour>
        <pt x="124" y="539" on="1"/>
        <pt x="192" y="566" on="0"/>
        <pt x="243" y="566" on="1"/>
        <pt x="306" y="566" on="0"/>
        <pt x="378" y="495" on="0"/>
        <pt x="378" y="432" on="1"/>
        <pt x="378" y="148" on="1"/>
        <pt x="378" y="78" on="0"/>
        <pt x="298" y="0" on="0"/>
        <pt x="231" y="0" on="1"/>
        <pt x="75" y="0" on="1"/>
        <pt x="75" y="713" on="1"/>
        <pt x="124" y="713" on="1"/>
      </contour>
      <contour>
        <pt x="328" y="476" on="0"/>
        <pt x="284" y="519" on="0"/>
        <pt x="243" y="519" on="1"/>
        <pt x="216" y="519" on="0"/>
        <pt x="162" y="505" on="0"/>
        <pt x="125" y="491" on="1"/>
        <pt x="125" y="45" on="1"/>
        <pt x="220" y="45" on="1"/>
        <pt x="328" y="45" on="0"/>
        <pt x="328" y="148" on="1"/>
        <pt x="328" y="432" on="1"/>
      </contour>
    </TTGlyph>
    <TTGlyph name="backslash" xMin="31" yMin="-120" xMax="344" yMax="764">
      <contour>
        <pt x="344" y="-120" on="1"/>
        <pt x="300" y="-120" on="1"/>
        <pt x="31" y="764" on="1"/>
        <pt x="75" y="764" on="1"/>
      </contour>
    </TTGlyph>
    <TTGlyph name="bar" xMin="80" yMin="-140" xMax="123" yMax="784">
      <contour>
        <pt x="123" y="-140" on="1"/>
        <pt x="80" y="-140" on="1"/>
        <pt x="80" y="784" on="1"/>
        <pt x="123" y="784" on="1"/>
      </contour>
    </TTGlyph>
    <TTGlyph name="braceleft" xMin="60" yMin="-120" xMax="285" yMax="764">
      <contour>
        <pt x="185" y="383" on="0"/>
        <pt x="149" y="327" on="0"/>
        <pt x="101" y="322" on="1"/>
        <pt x="149" y="317" on="0"/>
        <pt x="185" y="261" on="0"/>
        <pt x="185" y="207" on="1"/>
        <pt x="185" y="-4" on="1"/>
        <pt x="185" y="-39" on="0"/>
        <pt x="228" y="-78" on="0"/>
        <pt x="278" y="-78" on="1"/>
        <pt x="285" y="-78" on="1"/>
        <pt x="285" y="-120" on="1"/>
        <pt x="277" y="-120" on="1"/>
        <pt x="211" y="-120" on="0"/>
        <pt x="140" y="-59" on="0"/>
        <pt x="140" y="-4" on="1"/>
        <pt x="140" y="227" on="1"/>
        <pt x="140" y="261" on="0"/>
        <pt x="100" y="301" on="0"/>
        <pt x="62" y="301" on="1"/>
        <pt x="60" y="301" on="1"/>
        <pt x="60" y="343" on="1"/>
        <pt x="62" y="343" on="1"/>
        <pt x="100" y="343" on="0"/>
        <pt x="140" y="383" on="0"/>
        <pt x="140" y="417" on="1"/>
        <pt x="140" y="648" on="1"/>
        <pt x="140" y="703" on="0"/>
        <pt x="211" y="764" on="0"/>
        <pt x="277" y="764" on="1"/>
        <pt x="285" y="764" on="1"/>
        <pt x="285" y="722" on="1"/>
        <pt x="278" y="722" on="1"/>
        <pt x="228" y="722" on="0"/>
        <pt x="185" y="683" on="0"/>
        <pt x="185" y="648" on="1"/>
        <pt x="185" y="437" on="1"/>
      </contour>
    </TTGlyph>
    <TTGlyph name="braceright" xMin="50" yMin="-120" xMax="275" yMax="764">
      <contour>
        <pt x="275" y="301" on="1"/>
        <pt x="273" y="301" on="1"/>
        <pt x="235" y="301" on="0"/>
        <pt x="195" y="261" on="0"/>
        <pt x="195" y="227" on="1"/>
        <pt x="195" y="-4" on="1"/>
        <pt x="195" y="-59" on="0"/>
        <pt x="124" y="-120" on="0"/>
        <pt x="58" y="-120" on="1"/>
        <pt x="50" y="-120" on="1"/>
        <pt x="50" y="-78" on="1"/>
        <pt x="57" y="-78" on="1"/>
        <pt x="107" y="-78" on="0"/>
        <pt x="150" y="-39" on="0"/>
        <pt x="150" y="-4" on="1"/>
        <pt x="150" y="207" on="1"/>
        <pt x="150" y="261" on="0"/>
        <pt x="186" y="317" on="0"/>
        <pt x="234" y="322" on="1"/>
        <pt x="186" y="327" on="0"/>
        <pt x="150" y="383" on="0"/>
        <pt x="150" y="437" on="1"/>
        <pt x="150" y="648" on="1"/>
        <pt x="150" y="683" on="0"/>
        <pt x="107" y="722" on="0"/>
        <pt x="57" y="722" on="1"/>
        <pt x="50" y="722" on="1"/>
        <pt x="50" y="764" on="1"/>
        <pt x="58" y="764" on="1"/>
        <pt x="124" y="764" on="0"/>
        <pt x="195" y="703" on="0"/>
        <pt x="195" y="648" on="1"/>
        <pt x="195" y="417" on="1"/>
        <pt x="195" y="383" on="0"/>
        <pt x="235" y="343" on="0"/>
        <pt x="273" y="343" on="1"/>
        <pt x="275" y="343" on="1"/>
      </contour>
    </TTGlyph>
    <TTGlyph name="bracketleft" xMin="80" yMin="-120" xMax="249" yMax="764">
      <contour>
        <pt x="125" y="-80" on="1"/>
        <pt x="249" y="-80" on="1"/>
        <pt x="249" y="-120" on="1"/>
        <pt x="80" y="-120" on="1"/>
        <pt x="80" y="764" on="1"/>
        <pt x="249" y="764" on="1"/>
        <pt x="249" y="724" on="1"/>
        <pt x="125" y="724" on="1"/>
      </contour>
    </TTGlyph>
    <TTGlyph name="bracketright" xMin="26" yMin="-120" xMax="195" yMax="764">
      <contour>
        <pt x="195" y="764" on="1"/>
        <pt x="195" y="-120" on="1"/>
        <pt x="26" y="-120" on="1"/>
        <pt x="26" y="-80" on="1"/>
        <pt x="150" y="-80" on="1"/>
        <pt x="150" y="724" on="1"/>
        <pt x="26" y="724" on="1"/>
        <pt x="26" y="764" on="1"/>
      </contour>
    </TTGlyph>
    <TTGlyph name="breve" xMin="68" yMin="608" xMax="282" yMax="713">
      <contour>
        <pt x="280" y="667" on="0"/>
        <pt x="225" y="608" on="0"/>
        <pt x="175" y="608" on="1"/>
        <pt x="125" y="608" on="0"/>
        <pt x="70" y="667" on="0"/>
        <pt x="68" y="713" on="1"/>
        <pt x="111" y="713" on="1"/>
        <pt x="112" y="683" on="0"/>
        <pt x="145" y="648" on="0"/>
        <pt x="175" y="648" on="1"/>
        <pt x="205" y="648" on="0"/>
        <pt x="238" y="683" on="0"/>
        <pt x="239" y="713" on="1"/>
        <pt x="282" y="713" on="1"/>
      </contour>
    </TTGlyph>
    <TTGlyph name="brokenbar" xMin="80" yMin="-140" xMax="123" yMax="784">
      <contour>
        <pt x="123" y="409" on="1"/>
        <pt x="80" y="409" on="1"/>
        <pt x="80" y="784" on="1"/>
        <pt x="123" y="784" on="1"/>
      </contour>
      <contour>
        <pt x="123" y="-140" on="1"/>
        <pt x="80" y="-140" on="1"/>
        <pt x="80" y="235" on="1"/>
        <pt x="123" y="235" on="1"/>
      </contour>
    </TTGlyph>
    <TTGlyph name="bullet" xMin="72" yMin="257" xMax="202" yMax="387">
      <contour>
        <pt x="72" y="387" on="0"/>
        <pt x="137" y="387" on="1"/>
        <pt x="171" y="387" on="0"/>
        <pt x="202" y="352" on="0"/>
        <pt x="202" y="322" on="1"/>
        <pt x="202" y="292" on="0"/>
        <pt x="171" y="257" on="0"/>
        <pt x="137" y="257" on="1"/>
        <pt x="72" y="257" on="0"/>
        <pt x="72" y="322" on="1"/>
      </contour>
    </TTGlyph>
    <TTGlyph name="c" xMin="65" yMin="-5" xMax="329" yMax="568">
      <contour>
        <pt x="65" y="499" on="0"/>
        <pt x="141" y="568" on="0"/>
        <pt x="226" y="568" on="1"/>
        <pt x="284" y="568" on="0"/>
        <pt x="327" y="555" on="1"/>
        <pt x="327" y="509" on="1"/>
        <pt x="282" y="522" on="0"/>
        <pt x="226" y="522" on="1"/>
        <pt x="161" y="522" on="0"/>
        <pt x="115" y="478" on="0"/>
        <pt x="115" y="433" on="1"/>
        <pt x="115" y="129" on="1"/>
        <pt x="115" y="84" on="0"/>
        <pt x="161" y="41" on="0"/>
        <pt x="226" y="41" on="1"/>
        <pt x="284" y="41" on="0"/>
        <pt x="329" y="56" on="1"/>
        <pt x="329" y="9" on="1"/>
        <pt x="279" y="-5" on="0"/>
        <pt x="226" y="-5" on="1"/>
        <pt x="141" y="-5" on="0"/>
        <pt x="65" y="63" on="0"/>
        <pt x="65" y="129" on="1"/>
        <pt x="65" y="433" on="1"/>
      </contour>
    </TTGlyph>
    <TTGlyph name="cacute" xMin="65" yMin="-5" xMax="329" yMax="713">
      <component glyphName="c" x="0" y="0" flags="0x0"/>
      <component glyphName="acute" x="77" y="0" flags="0x0"/>
    </TTGlyph>
    <TTGlyph name="caron" xMin="104" yMin="608" xMax="246" yMax="713">
      <contour>
        <pt x="246" y="713" on="1"/>
        <pt x="198" y="608" on="1"/>
        <pt x="152" y="608" on="1"/>
        <pt x="104" y="713" on="1"/>
        <pt x="140" y="713" on="1"/>
        <pt x="175" y="645" on="1"/>
        <pt x="210" y="713" on="1"/>
      </contour>
    </TTGlyph>
    <TTGlyph name="ccaron" xMin="65" yMin="-5" xMax="329" yMax="713">
      <component glyphName="c" x="0" y="0" flags="0x0"/>
      <component glyphName="caron" x="43" y="0" flags="0x0"/>
    </TTGlyph>
    <TTGlyph name="ccedilla" xMin="65" yMin="-179" xMax="329" yMax="568">
      <component glyphName="c" x="0" y="0" flags="0x0"/>
      <component glyphName="cedilla" x="42" y="0" flags="0x0"/>
    </TTGlyph>
    <TTGlyph name="cedilla" xMin="107" yMin="-179" xMax="242" yMax="6">
      <contour>
        <pt x="172" y="-40" on="1"/>
        <pt x="204" y="-42" on="0"/>
        <pt x="242" y="-77" on="0"/>
        <pt x="242" y="-107" on="1"/>
        <pt x="242" y="-142" on="0"/>
        <pt x="193" y="-179" on="0"/>
        <pt x="156" y="-179" on="1"/>
        <pt x="125" y="-179" on="0"/>
        <pt x="107" y="-172" on="1"/>
        <pt x="107" y="-139" on="1"/>
        <pt x="125" y="-147" on="0"/>
        <pt x="152" y="-147" on="1"/>
        <pt x="177" y="-147" on="0"/>
        <pt x="208" y="-127" on="0"/>
        <pt x="208" y="-107" on="1"/>
        <pt x="208" y="-86" on="0"/>
        <pt x="180" y="-67" on="0"/>
        <pt x="150" y="-67" on="1"/>
        <pt x="136" y="-67" on="1"/>
        <pt x="151" y="6" on="1"/>
        <pt x="182" y="6" on="1"/>
      </contour>
    </TTGlyph>
    <TTGlyph name="cent" xMin="75" yMin="-80" xMax="339" yMax="653">
      <contour>
        <pt x="339" y="9" on="1"/>
        <pt x="298" y="-3" on="0"/>
        <pt x="257" y="-4" on="1"/>
        <pt x="257" y="-80" on="1"/>
        <pt x="212" y="-80" on="1"/>
        <pt x="212" y="-4" on="1"/>
        <pt x="140" y="0" on="0"/>
        <pt x="75" y="68" on="0"/>
        <pt x="75" y="129" on="1"/>
        <pt x="75" y="433" on="1"/>
        <pt x="75" y="494" on="0"/>
        <pt x="140" y="562" on="0"/>
        <pt x="211" y="567" on="1"/>
        <pt x="211" y="653" on="1"/>
        <pt x="256" y="653" on="1"/>
        <pt x="256" y="568" on="1"/>
        <pt x="305" y="565" on="0"/>
        <pt x="337" y="555" on="1"/>
        <pt x="337" y="509" on="1"/>
        <pt x="291" y="522" on="0"/>
        <pt x="236" y="522" on="1"/>
        <pt x="171" y="522" on="0"/>
        <pt x="125" y="478" on="0"/>
        <pt x="125" y="433" on="1"/>
        <pt x="125" y="129" on="1"/>
        <pt x="125" y="84" on="0"/>
        <pt x="171" y="41" on="0"/>
        <pt x="236" y="41" on="1"/>
        <pt x="294" y="41" on="0"/>
        <pt x="339" y="56" on="1"/>
      </contour>
    </TTGlyph>
    <TTGlyph name="circumflex" xMin="104" yMin="608" xMax="246" yMax="713">
      <contour>
        <pt x="210" y="608" on="1"/>
        <pt x="175" y="676" on="1"/>
        <pt x="140" y="608" on="1"/>
        <pt x="104" y="608" on="1"/>
        <pt x="152" y="713" on="1"/>
        <pt x="198" y="713" on="1"/>
        <pt x="246" y="608" on="1"/>
      </contour>
    </TTGlyph>
    <TTGlyph name="colon" xMin="30" yMin="-5" xMax="96" yMax="419">
      <contour>
        <pt x="30" y="419" on="0"/>
        <pt x="63" y="419" on="1"/>
        <pt x="96" y="419" on="0"/>
        <pt x="96" y="382" on="1"/>
        <pt x="96" y="345" on="0"/>
        <pt x="63" y="345" on="1"/>
        <pt x="30" y="345" on="0"/>
        <pt x="30" y="382" on="1"/>
      </contour>
      <contour>
        <pt x="30" y="69" on="0"/>
        <pt x="63" y="69" on="1"/>
        <pt x="96" y="69" on="0"/>
        <pt x="96" y="32" on="1"/>
        <pt x="96" y="-5" on="0"/>
        <pt x="63" y="-5" on="1"/>
        <pt x="30" y="-5" on="0"/>
        <pt x="30" y="32" on="1"/>
      </contour>
    </TTGlyph>
    <TTGlyph name="comma" xMin="4" yMin="-124" xMax="97" yMax="69">
      <contour>
        <pt x="81" y="69" on="0"/>
        <pt x="97" y="56" on="0"/>
        <pt x="97" y="43" on="1"/>
        <pt x="97" y="11" on="0"/>
        <pt x="36" y="-124" on="1"/>
        <pt x="4" y="-124" on="1"/>
        <pt x="44" y="69" on="1"/>
        <pt x="69" y="69" on="1"/>
      </contour>
    </TTGlyph>
    <TTGlyph name="copyright" xMin="50" yMin="0" xMax="631" yMax="644">
      <contour>
        <pt x="50" y="422" on="0"/>
        <pt x="100" y="563" on="0"/>
        <pt x="229" y="644" on="0"/>
        <pt x="342" y="644" on="1"/>
        <pt x="456" y="644" on="0"/>
        <pt x="583" y="564" on="0"/>
        <pt x="631" y="424" on="0"/>
        <pt x="631" y="321" on="1"/>
        <pt x="631" y="170" on="0"/>
        <pt x="500" y="0" on="0"/>
        <pt x="342" y="0" on="1"/>
        <pt x="180" y="0" on="0"/>
        <pt x="50" y="168" on="0"/>
        <pt x="50" y="321" on="1"/>
      </contour>
      <contour>
        <pt x="584" y="413" on="0"/>
        <pt x="548" y="532" on="0"/>
        <pt x="443" y="600" on="0"/>
        <pt x="342" y="600" on="1"/>
        <pt x="241" y="600" on="0"/>
        <pt x="134" y="531" on="0"/>
        <pt x="97" y="412" on="0"/>
        <pt x="97" y="321" on="1"/>
        <pt x="97" y="231" on="0"/>
        <pt x="135" y="112" on="0"/>
        <pt x="242" y="44" on="0"/>
        <pt x="342" y="44" on="1"/>
        <pt x="439" y="44" on="0"/>
        <pt x="545" y="113" on="0"/>
        <pt x="584" y="233" on="0"/>
        <pt x="584" y="321" on="1"/>
      </contour>
      <contour>
        <pt x="226" y="436" on="0"/>
        <pt x="285" y="501" on="0"/>
        <pt x="356" y="501" on="1"/>
        <pt x="398" y="501" on="0"/>
        <pt x="429" y="494" on="1"/>
        <pt x="429" y="447" on="1"/>
        <pt x="399" y="458" on="0"/>
        <pt x="356" y="458" on="1"/>
        <pt x="319" y="458" on="0"/>
        <pt x="283" y="437" on="0"/>
        <pt x="273" y="402" on="0"/>
        <pt x="273" y="374" on="1"/>
        <pt x="273" y="269" on="1"/>
        <pt x="273" y="241" on="0"/>
        <pt x="283" y="207" on="0"/>
        <pt x="319" y="186" on="0"/>
        <pt x="356" y="186" on="1"/>
        <pt x="400" y="186" on="0"/>
        <pt x="430" y="197" on="1"/>
        <pt x="430" y="149" on="1"/>
        <pt x="392" y="142" on="0"/>
        <pt x="356" y="142" on="1"/>
        <pt x="285" y="142" on="0"/>
        <pt x="226" y="207" on="0"/>
        <pt x="226" y="269" on="1"/>
        <pt x="226" y="374" on="1"/>
      </contour>
    </TTGlyph>
    <TTGlyph name="currency" xMin="53" yMin="148" xMax="407" yMax="518">
      <contour>
        <pt x="375" y="256" on="0"/>
        <pt x="363" y="226" on="1"/>
        <pt x="407" y="183" on="1"/>
        <pt x="372" y="148" on="1"/>
        <pt x="334" y="185" on="1"/>
        <pt x="298" y="155" on="0"/>
        <pt x="230" y="155" on="1"/>
        <pt x="162" y="155" on="0"/>
        <pt x="126" y="185" on="1"/>
        <pt x="88" y="148" on="1"/>
        <pt x="53" y="183" on="1"/>
        <pt x="97" y="226" on="1"/>
        <pt x="85" y="256" on="0"/>
        <pt x="85" y="298" on="1"/>
        <pt x="85" y="368" on="1"/>
        <pt x="85" y="410" on="0"/>
        <pt x="97" y="440" on="1"/>
        <pt x="53" y="483" on="1"/>
        <pt x="88" y="518" on="1"/>
        <pt x="126" y="481" on="1"/>
        <pt x="162" y="511" on="0"/>
        <pt x="230" y="511" on="1"/>
        <pt x="298" y="511" on="0"/>
        <pt x="334" y="481" on="1"/>
        <pt x="372" y="518" on="1"/>
        <pt x="407" y="483" on="1"/>
        <pt x="363" y="440" on="1"/>
        <pt x="375" y="410" on="0"/>
        <pt x="375" y="368" on="1"/>
        <pt x="375" y="298" on="1"/>
      </contour>
      <contour>
        <pt x="286" y="199" on="0"/>
        <pt x="326" y="246" on="0"/>
        <pt x="326" y="298" on="1"/>
        <pt x="326" y="368" on="1"/>
        <pt x="326" y="420" on="0"/>
        <pt x="286" y="467" on="0"/>
        <pt x="230" y="467" on="1"/>
        <pt x="174" y="467" on="0"/>
        <pt x="134" y="420" on="0"/>
        <pt x="134" y="368" on="1"/>
        <pt x="134" y="298" on="1"/>
        <pt x="134" y="246" on="0"/>
        <pt x="174" y="199" on="0"/>
        <pt x="230" y="199" on="1"/>
      </contour>
    </TTGlyph>
    <TTGlyph name="d" xMin="65" yMin="-3" xMax="368" yMax="713">
      <contour>
        <pt x="368" y="0" on="1"/>
        <pt x="319" y="0" on="1"/>
        <pt x="319" y="31" on="1"/>
        <pt x="299" y="16" on="0"/>
        <pt x="248" y="-3" on="0"/>
        <pt x="209" y="-3" on="1"/>
        <pt x="138" y="-3" on="0"/>
        <pt x="65" y="72" on="0"/>
        <pt x="65" y="142" on="1"/>
        <pt x="65" y="421" on="1"/>
        <pt x="65" y="489" on="0"/>
        <pt x="147" y="563" on="0"/>
        <pt x="211" y="563" on="1"/>
        <pt x="318" y="563" on="1"/>
        <pt x="318" y="713" on="1"/>
        <pt x="368" y="713" on="1"/>
      </contour>
      <contour>
        <pt x="223" y="517" on="1"/>
        <pt x="170" y="517" on="0"/>
        <pt x="115" y="469" on="0"/>
        <pt x="115" y="421" on="1"/>
        <pt x="115" y="141" on="1"/>
        <pt x="115" y="42" on="0"/>
        <pt x="210" y="42" on="1"/>
        <pt x="246" y="42" on="0"/>
        <pt x="301" y="65" on="0"/>
        <pt x="318" y="82" on="1"/>
        <pt x="318" y="517" on="1"/>
      </contour>
    </TTGlyph>
    <TTGlyph name="dagger" xMin="56" yMin="-29" xMax="287" yMax="764">
      <contour>
        <pt x="193" y="728" on="0"/>
        <pt x="190" y="651" on="0"/>
        <pt x="189" y="640" on="1"/>
        <pt x="197" y="641" on="0"/>
        <pt x="255" y="644" on="0"/>
        <pt x="287" y="644" on="1"/>
        <pt x="287" y="604" on="1"/>
        <pt x="255" y="604" on="0"/>
        <pt x="197" y="607" on="0"/>
        <pt x="189" y="608" on="1"/>
        <pt x="190" y="597" on="0"/>
        <pt x="193" y="522" on="0"/>
        <pt x="193" y="485" on="1"/>
        <pt x="193" y="-29" on="1"/>
        <pt x="150" y="-29" on="1"/>
        <pt x="150" y="485" on="1"/>
        <pt x="150" y="522" on="0"/>
        <pt x="153" y="597" on="0"/>
        <pt x="154" y="608" on="1"/>
        <pt x="147" y="607" on="0"/>
        <pt x="92" y="604" on="0"/>
        <pt x="56" y="604" on="1"/>
        <pt x="56" y="644" on="1"/>
        <pt x="92" y="644" on="0"/>
        <pt x="147" y="641" on="0"/>
        <pt x="154" y="640" on="1"/>
        <pt x="153" y="651" on="0"/>
        <pt x="150" y="728" on="0"/>
        <pt x="150" y="764" on="1"/>
        <pt x="193" y="764" on="1"/>
      </contour>
    </TTGlyph>
    <TTGlyph name="daggerdbl" xMin="56" yMin="-29" xMax="287" yMax="764">
      <contour>
        <pt x="193" y="728" on="0"/>
        <pt x="190" y="651" on="0"/>
        <pt x="189" y="640" on="1"/>
        <pt x="196" y="641" on="0"/>
        <pt x="251" y="644" on="0"/>
        <pt x="287" y="644" on="1"/>
        <pt x="287" y="604" on="1"/>
        <pt x="251" y="604" on="0"/>
        <pt x="196" y="607" on="0"/>
        <pt x="189" y="608" on="1"/>
        <pt x="191" y="458" on="0"/>
        <pt x="191" y="368" on="1"/>
        <pt x="191" y="277" on="0"/>
        <pt x="189" y="127" on="1"/>
        <pt x="196" y="128" on="0"/>
        <pt x="251" y="131" on="0"/>
        <pt x="287" y="131" on="1"/>
        <pt x="287" y="91" on="1"/>
        <pt x="251" y="91" on="0"/>
        <pt x="196" y="94" on="0"/>
        <pt x="189" y="95" on="1"/>
        <pt x="190" y="86" on="0"/>
        <pt x="193" y="17" on="0"/>
        <pt x="193" y="-29" on="1"/>
        <pt x="150" y="-29" on="1"/>
        <pt x="150" y="17" on="0"/>
        <pt x="153" y="86" on="0"/>
        <pt x="154" y="95" on="1"/>
        <pt x="147" y="94" on="0"/>
        <pt x="92" y="91" on="0"/>
        <pt x="56" y="91" on="1"/>
        <pt x="56" y="131" on="1"/>
        <pt x="92" y="131" on="0"/>
        <pt x="147" y="128" on="0"/>
        <pt x="154" y="127" on="1"/>
        <pt x="153" y="202" on="0"/>
        <pt x="153" y="368" on="1"/>
        <pt x="153" y="533" on="0"/>
        <pt x="154" y="608" on="1"/>
        <pt x="147" y="607" on="0"/>
        <pt x="92" y="604" on="0"/>
        <pt x="56" y="604" on="1"/>
        <pt x="56" y="644" on="1"/>
        <pt x="92" y="644" on="0"/>
        <pt x="147" y="641" on="0"/>
        <pt x="154" y="640" on="1"/>
        <pt x="153" y="651" on="0"/>
        <pt x="150" y="728" on="0"/>
        <pt x="150" y="764" on="1"/>
        <pt x="193" y="764" on="1"/>
      </contour>
    </TTGlyph>
    <TTGlyph name="danda" xMin="150" yMin="0" xMax="195" yMax="644">
      <contour>
        <pt x="195" y="644" on="1"/>
        <pt x="195" y="0" on="1"/>
        <pt x="150" y="0" on="1"/>
        <pt x="150" y="644" on="1"/>
      </contour>
    </TTGlyph>
    <TTGlyph name="dcaron" xMin="65" yMin="-3" xMax="484" yMax="713">
      <contour>
        <pt x="368" y="0" on="1"/>
        <pt x="319" y="0" on="1"/>
        <pt x="319" y="31" on="1"/>
        <pt x="299" y="16" on="0"/>
        <pt x="248" y="-3" on="0"/>
        <pt x="209" y="-3" on="1"/>
        <pt x="138" y="-3" on="0"/>
        <pt x="65" y="72" on="0"/>
        <pt x="65" y="142" on="1"/>
        <pt x="65" y="421" on="1"/>
        <pt x="65" y="489" on="0"/>
        <pt x="147" y="563" on="0"/>
        <pt x="211" y="563" on="1"/>
        <pt x="318" y="563" on="1"/>
        <pt x="318" y="713" on="1"/>
        <pt x="368" y="713" on="1"/>
      </contour>
      <contour>
        <pt x="470" y="711" on="0"/>
        <pt x="484" y="699" on="0"/>
        <pt x="484" y="687" on="1"/>
        <pt x="484" y="666" on="0"/>
        <pt x="440" y="598" on="1"/>
        <pt x="409" y="598" on="1"/>
        <pt x="436" y="711" on="1"/>
        <pt x="459" y="711" on="1"/>
      </contour>
      <contour>
        <pt x="223" y="517" on="1"/>
        <pt x="170" y="517" on="0"/>
        <pt x="115" y="469" on="0"/>
        <pt x="115" y="421" on="1"/>
        <pt x="115" y="141" on="1"/>
        <pt x="115" y="42" on="0"/>
        <pt x="210" y="42" on="1"/>
        <pt x="246" y="42" on="0"/>
        <pt x="301" y="65" on="0"/>
        <pt x="318" y="82" on="1"/>
        <pt x="318" y="517" on="1"/>
      </contour>
    </TTGlyph>
    <TTGlyph name="dcroat" xMin="65" yMin="-3" xMax="408" yMax="713">
      <contour>
        <pt x="408" y="625" on="1"/>
        <pt x="368" y="625" on="1"/>
        <pt x="368" y="0" on="1"/>
        <pt x="319" y="0" on="1"/>
        <pt x="319" y="31" on="1"/>
        <pt x="299" y="16" on="0"/>
        <pt x="248" y="-3" on="0"/>
        <pt x="209" y="-3" on="1"/>
        <pt x="138" y="-3" on="0"/>
        <pt x="65" y="72" on="0"/>
        <pt x="65" y="142" on="1"/>
        <pt x="65" y="421" on="1"/>
        <pt x="65" y="489" on="0"/>
        <pt x="147" y="563" on="0"/>
        <pt x="211" y="563" on="1"/>
        <pt x="318" y="563" on="1"/>
        <pt x="318" y="625" on="1"/>
        <pt x="195" y="625" on="1"/>
        <pt x="195" y="666" on="1"/>
        <pt x="318" y="666" on="1"/>
        <pt x="318" y="713" on="1"/>
        <pt x="368" y="713" on="1"/>
        <pt x="368" y="666" on="1"/>
        <pt x="408" y="666" on="1"/>
      </contour>
      <contour>
        <pt x="318" y="517" on="1"/>
        <pt x="223" y="517" on="1"/>
        <pt x="170" y="517" on="0"/>
        <pt x="115" y="469" on="0"/>
        <pt x="115" y="421" on="1"/>
        <pt x="115" y="141" on="1"/>
        <pt x="115" y="42" on="0"/>
        <pt x="210" y="42" on="1"/>
        <pt x="246" y="42" on="0"/>
        <pt x="301" y="65" on="0"/>
        <pt x="318" y="82" on="1"/>
      </contour>
    </TTGlyph>
    <TTGlyph name="degree" xMin="55" yMin="510" xMax="304" yMax="779">
      <contour>
        <pt x="55" y="706" on="0"/>
        <pt x="113" y="779" on="0"/>
        <pt x="179" y="779" on="1"/>
        <pt x="245" y="779" on="0"/>
        <pt x="304" y="706" on="0"/>
        <pt x="304" y="644" on="1"/>
        <pt x="304" y="583" on="0"/>
        <pt x="245" y="510" on="0"/>
        <pt x="179" y="510" on="1"/>
        <pt x="55" y="510" on="0"/>
        <pt x="55" y="644" on="1"/>
      </contour>
      <contour>
        <pt x="264" y="688" on="0"/>
        <pt x="229" y="738" on="0"/>
        <pt x="179" y="738" on="1"/>
        <pt x="129" y="738" on="0"/>
        <pt x="95" y="689" on="0"/>
        <pt x="95" y="643" on="1"/>
        <pt x="95" y="597" on="0"/>
        <pt x="129" y="549" on="0"/>
        <pt x="179" y="549" on="1"/>
        <pt x="229" y="549" on="0"/>
        <pt x="264" y="598" on="0"/>
        <pt x="264" y="643" on="1"/>
      </contour>
    </TTGlyph>
    <TTGlyph name="dieresis" xMin="79" yMin="626" xMax="270" yMax="692">
      <contour>
        <pt x="79" y="692" on="0"/>
        <pt x="112" y="692" on="1"/>
        <pt x="145" y="692" on="0"/>
        <pt x="145" y="659" on="1"/>
        <pt x="145" y="626" on="0"/>
        <pt x="112" y="626" on="1"/>
        <pt x="79" y="626" on="0"/>
        <pt x="79" y="659" on="1"/>
      </contour>
      <contour>
        <pt x="204" y="692" on="0"/>
        <pt x="237" y="692" on="1"/>
        <pt x="270" y="692" on="0"/>
        <pt x="270" y="659" on="1"/>
        <pt x="270" y="626" on="0"/>
        <pt x="237" y="626" on="1"/>
        <pt x="204" y="626" on="0"/>
        <pt x="204" y="659" on="1"/>
      </contour>
    </TTGlyph>
    <TTGlyph name="divide" xMin="40" yMin="115" xMax="381" yMax="524">
      <contour>
        <pt x="181" y="524" on="0"/>
        <pt x="214" y="524" on="1"/>
        <pt x="247" y="524" on="0"/>
        <pt x="247" y="491" on="1"/>
        <pt x="247" y="458" on="0"/>
        <pt x="214" y="458" on="1"/>
        <pt x="181" y="458" on="0"/>
        <pt x="181" y="491" on="1"/>
      </contour>
      <contour>
        <pt x="381" y="301" on="1"/>
        <pt x="40" y="301" on="1"/>
        <pt x="40" y="341" on="1"/>
        <pt x="381" y="341" on="1"/>
      </contour>
      <contour>
        <pt x="181" y="181" on="0"/>
        <pt x="214" y="181" on="1"/>
        <pt x="247" y="181" on="0"/>
        <pt x="247" y="148" on="1"/>
        <pt x="247" y="115" on="0"/>
        <pt x="214" y="115" on="1"/>
        <pt x="181" y="115" on="0"/>
        <pt x="181" y="148" on="1"/>
      </contour>
    </TTGlyph>
    <TTGlyph name="dollar" xMin="30" yMin="-80" xMax="339" yMax="733">
      <contour>
        <pt x="300" y="295" on="0"/>
        <pt x="339" y="232" on="0"/>
        <pt x="339" y="186" on="1"/>
        <pt x="339" y="134" on="1"/>
        <pt x="339" y="75" on="0"/>
        <pt x="269" y="4" on="0"/>
        <pt x="198" y="-3" on="1"/>
        <pt x="198" y="-80" on="1"/>
        <pt x="153" y="-80" on="1"/>
        <pt x="153" y="-5" on="1"/>
        <pt x="120" y="-4" on="0"/>
        <pt x="55" y="7" on="0"/>
        <pt x="34" y="14" on="1"/>
        <pt x="34" y="62" on="1"/>
        <pt x="59" y="53" on="0"/>
        <pt x="129" y="41" on="0"/>
        <pt x="163" y="41" on="1"/>
        <pt x="229" y="41" on="0"/>
        <pt x="289" y="91" on="0"/>
        <pt x="289" y="134" on="1"/>
        <pt x="289" y="183" on="1"/>
        <pt x="289" y="218" on="0"/>
        <pt x="264" y="260" on="0"/>
        <pt x="231" y="278" on="1"/>
        <pt x="114" y="342" on="1"/>
        <pt x="71" y="365" on="0"/>
        <pt x="30" y="430" on="0"/>
        <pt x="30" y="479" on="1"/>
        <pt x="30" y="537" on="1"/>
        <pt x="30" y="594" on="0"/>
        <pt x="97" y="663" on="0"/>
        <pt x="163" y="670" on="1"/>
        <pt x="163" y="733" on="1"/>
        <pt x="208" y="733" on="1"/>
        <pt x="208" y="671" on="1"/>
        <pt x="267" y="670" on="0"/>
        <pt x="316" y="656" on="1"/>
        <pt x="316" y="608" on="1"/>
        <pt x="295" y="616" on="0"/>
        <pt x="227" y="625" on="0"/>
        <pt x="192" y="625" on="1"/>
        <pt x="80" y="625" on="0"/>
        <pt x="80" y="539" on="1"/>
        <pt x="80" y="482" on="1"/>
        <pt x="80" y="446" on="0"/>
        <pt x="109" y="401" on="0"/>
        <pt x="141" y="383" on="1"/>
        <pt x="258" y="318" on="1"/>
      </contour>
    </TTGlyph>
    <TTGlyph name="dotaccent" xMin="140" yMin="655" xMax="206" yMax="721">
      <contour>
        <pt x="140" y="721" on="0"/>
        <pt x="173" y="721" on="1"/>
        <pt x="206" y="721" on="0"/>
        <pt x="206" y="688" on="1"/>
        <pt x="206" y="655" on="0"/>
        <pt x="173" y="655" on="1"/>
        <pt x="140" y="655" on="0"/>
        <pt x="140" y="688" on="1"/>
      </contour>
    </TTGlyph>
    <TTGlyph name="dotlessi" xMin="75" yMin="0" xMax="125" yMax="563">
      <contour>
        <pt x="125" y="0" on="1"/>
        <pt x="75" y="0" on="1"/>
        <pt x="75" y="563" on="1"/>
        <pt x="125" y="563" on="1"/>
      </contour>
    </TTGlyph>
    <TTGlyph name="dottedcircle" xMin="44" yMin="30" xMax="616" yMax="604">
      <contour>
        <pt x="257" y="580" on="0"/>
        <pt x="282" y="604" on="0"/>
        <pt x="301" y="604" on="1"/>
        <pt x="321" y="604" on="0"/>
        <pt x="345" y="580" on="0"/>
        <pt x="345" y="560" on="1"/>
        <pt x="345" y="541" on="0"/>
        <pt x="321" y="516" on="0"/>
        <pt x="301" y="516" on="1"/>
        <pt x="282" y="516" on="0"/>
        <pt x="257" y="541" on="0"/>
        <pt x="257" y="560" on="1"/>
      </contour>
      <contour>
        <pt x="383" y="565" on="0"/>
        <pt x="409" y="590" on="0"/>
        <pt x="428" y="590" on="1"/>
        <pt x="447" y="590" on="0"/>
        <pt x="471" y="565" on="0"/>
        <pt x="471" y="545" on="1"/>
        <pt x="471" y="527" on="0"/>
        <pt x="446" y="501" on="0"/>
        <pt x="428" y="501" on="1"/>
        <pt x="409" y="501" on="0"/>
        <pt x="383" y="527" on="0"/>
        <pt x="383" y="545" on="1"/>
      </contour>
      <contour>
        <pt x="139" y="536" on="0"/>
        <pt x="164" y="561" on="0"/>
        <pt x="183" y="561" on="1"/>
        <pt x="202" y="561" on="0"/>
        <pt x="227" y="536" on="0"/>
        <pt x="227" y="517" on="1"/>
        <pt x="227" y="497" on="0"/>
        <pt x="202" y="472" on="0"/>
        <pt x="183" y="472" on="1"/>
        <pt x="164" y="472" on="0"/>
        <pt x="139" y="497" on="0"/>
        <pt x="139" y="517" on="1"/>
      </contour>
      <contour>
        <pt x="478" y="496" on="0"/>
        <pt x="503" y="522" on="0"/>
        <pt x="522" y="522" on="1"/>
        <pt x="541" y="522" on="0"/>
        <pt x="566" y="497" on="0"/>
        <pt x="566" y="477" on="1"/>
        <pt x="566" y="458" on="0"/>
        <pt x="541" y="433" on="0"/>
        <pt x="522" y="433" on="1"/>
        <pt x="503" y="433" on="0"/>
        <pt x="478" y="458" on="0"/>
        <pt x="478" y="477" on="1"/>
      </contour>
      <contour>
        <pt x="57" y="426" on="0"/>
        <pt x="83" y="451" on="0"/>
        <pt x="103" y="451" on="1"/>
        <pt x="121" y="451" on="0"/>
        <pt x="147" y="426" on="0"/>
        <pt x="147" y="407" on="1"/>
        <pt x="147" y="388" on="0"/>
        <pt x="121" y="363" on="0"/>
        <pt x="103" y="363" on="1"/>
        <pt x="83" y="363" on="0"/>
        <pt x="57" y="388" on="0"/>
        <pt x="57" y="407" on="1"/>
      </contour>
      <contour>
        <pt x="528" y="379" on="0"/>
        <pt x="553" y="403" on="0"/>
        <pt x="572" y="403" on="1"/>
        <pt x="591" y="403" on="0"/>
        <pt x="616" y="378" on="0"/>
        <pt x="616" y="359" on="1"/>
        <pt x="616" y="340" on="0"/>
        <pt x="591" y="315" on="0"/>
        <pt x="572" y="315" on="1"/>
        <pt x="553" y="315" on="0"/>
        <pt x="528" y="340" on="0"/>
        <pt x="528" y="359" on="1"/>
      </contour>
      <contour>
        <pt x="44" y="300" on="0"/>
        <pt x="69" y="326" on="0"/>
        <pt x="88" y="326" on="1"/>
        <pt x="107" y="326" on="0"/>
        <pt x="132" y="301" on="0"/>
        <pt x="132" y="281" on="1"/>
        <pt x="132" y="262" on="0"/>
        <pt x="107" y="238" on="0"/>
        <pt x="88" y="238" on="1"/>
        <pt x="69" y="238" on="0"/>
        <pt x="44" y="262" on="0"/>
        <pt x="44" y="281" on="1"/>
      </contour>
      <contour>
        <pt x="518" y="245" on="0"/>
        <pt x="544" y="270" on="0"/>
        <pt x="563" y="270" on="1"/>
        <pt x="581" y="270" on="0"/>
        <pt x="606" y="244" on="0"/>
        <pt x="606" y="225" on="1"/>
        <pt x="606" y="206" on="0"/>
        <pt x="581" y="181" on="0"/>
        <pt x="563" y="181" on="1"/>
        <pt x="544" y="181" on="0"/>
        <pt x="518" y="206" on="0"/>
        <pt x="518" y="225" on="1"/>
      </contour>
      <contour>
        <pt x="96" y="184" on="0"/>
        <pt x="121" y="209" on="0"/>
        <pt x="140" y="209" on="1"/>
        <pt x="159" y="209" on="0"/>
        <pt x="184" y="184" on="0"/>
        <pt x="184" y="165" on="1"/>
        <pt x="184" y="146" on="0"/>
        <pt x="159" y="121" on="0"/>
        <pt x="140" y="121" on="1"/>
        <pt x="121" y="121" on="0"/>
        <pt x="96" y="146" on="0"/>
        <pt x="96" y="165" on="1"/>
      </contour>
      <contour>
        <pt x="445" y="146" on="0"/>
        <pt x="470" y="171" on="0"/>
        <pt x="489" y="171" on="1"/>
        <pt x="508" y="171" on="0"/>
        <pt x="534" y="146" on="0"/>
        <pt x="534" y="127" on="1"/>
        <pt x="534" y="108" on="0"/>
        <pt x="508" y="83" on="0"/>
        <pt x="489" y="83" on="1"/>
        <pt x="470" y="83" on="0"/>
        <pt x="445" y="108" on="0"/>
        <pt x="445" y="127" on="1"/>
      </contour>
      <contour>
        <pt x="197" y="108" on="0"/>
        <pt x="223" y="134" on="0"/>
        <pt x="242" y="134" on="1"/>
        <pt x="261" y="134" on="0"/>
        <pt x="286" y="108" on="0"/>
        <pt x="286" y="90" on="1"/>
        <pt x="286" y="70" on="0"/>
        <pt x="261" y="44" on="0"/>
        <pt x="242" y="44" on="1"/>
        <pt x="223" y="44" on="0"/>
        <pt x="197" y="70" on="0"/>
        <pt x="197" y="90" on="1"/>
      </contour>
      <contour>
        <pt x="324" y="94" on="0"/>
        <pt x="349" y="118" on="0"/>
        <pt x="368" y="118" on="1"/>
        <pt x="388" y="118" on="0"/>
        <pt x="413" y="93" on="0"/>
        <pt x="413" y="74" on="1"/>
        <pt x="413" y="55" on="0"/>
        <pt x="388" y="30" on="0"/>
        <pt x="368" y="30" on="1"/>
        <pt x="349" y="30" on="0"/>
        <pt x="324" y="55" on="0"/>
        <pt x="324" y="74" on="1"/>
      </contour>
    </TTGlyph>
    <TTGlyph name="doubledanda" xMin="130" yMin="0" xMax="367" yMax="644">
      <contour>
        <pt x="175" y="644" on="1"/>
        <pt x="175" y="0" on="1"/>
        <pt x="130" y="0" on="1"/>
        <pt x="130" y="644" on="1"/>
      </contour>
      <contour>
        <pt x="367" y="644" on="1"/>
        <pt x="367" y="0" on="1"/>
        <pt x="322" y="0" on="1"/>
        <pt x="322" y="644" on="1"/>
      </contour>
    </TTGlyph>
    <TTGlyph name="dvA" xMin="35" yMin="0" xMax="570" yMax="649">
      <contour>
        <pt x="570" y="644" on="1"/>
        <pt x="570" y="604" on="1"/>
        <pt x="470" y="604" on="1"/>
        <pt x="470" y="0" on="1"/>
        <pt x="425" y="0" on="1"/>
        <pt x="425" y="213" on="1"/>
        <pt x="295" y="213" on="1"/>
        <pt x="295" y="160" on="1"/>
        <pt x="295" y="101" on="0"/>
        <pt x="219" y="34" on="0"/>
        <pt x="149" y="34" on="1"/>
        <pt x="93" y="34" on="0"/>
        <pt x="35" y="49" on="1"/>
        <pt x="35" y="93" on="1"/>
        <pt x="95" y="76" on="0"/>
        <pt x="149" y="76" on="1"/>
        <pt x="201" y="76" on="0"/>
        <pt x="250" y="121" on="0"/>
        <pt x="250" y="160" on="1"/>
        <pt x="250" y="240" on="1"/>
        <pt x="250" y="280" on="0"/>
        <pt x="214" y="324" on="0"/>
        <pt x="159" y="325" on="1"/>
        <pt x="98" y="325" on="1"/>
        <pt x="98" y="367" on="1"/>
        <pt x="159" y="367" on="1"/>
        <pt x="214" y="368" on="0"/>
        <pt x="250" y="412" on="0"/>
        <pt x="250" y="452" on="1"/>
        <pt x="250" y="523" on="1"/>
        <pt x="250" y="562" on="0"/>
        <pt x="201" y="607" on="0"/>
        <pt x="149" y="607" on="1"/>
        <pt x="98" y="607" on="0"/>
        <pt x="45" y="588" on="1"/>
        <pt x="45" y="634" on="1"/>
        <pt x="92" y="649" on="0"/>
        <pt x="149" y="649" on="1"/>
        <pt x="219" y="649" on="0"/>
        <pt x="295" y="582" on="0"/>
        <pt x="295" y="523" on="1"/>
        <pt x="295" y="452" on="1"/>
        <pt x="295" y="365" on="0"/>
        <pt x="241" y="346" on="1"/>
        <pt x="291" y="327" on="0"/>
        <pt x="295" y="253" on="1"/>
        <pt x="425" y="253" on="1"/>
        <pt x="425" y="644" on="1"/>
      </contour>
    </TTGlyph>
    <TTGlyph name="dvAA" xMin="65" yMin="0" xMax="805" yMax="649">
      <component glyphName="dvA" x="30" y="0" flags="0x0"/>
      <component glyphName="dvmAA" x="580" y="0" flags="0x0"/>
    </TTGlyph>
    <TTGlyph name="dvAI" xMin="-20" yMin="-5" xMax="443" yMax="873">
      <contour>
        <pt x="443" y="644" on="1"/>
        <pt x="443" y="604" on="1"/>
        <pt x="355" y="604" on="1"/>
        <pt x="355" y="395" on="1"/>
        <pt x="355" y="343" on="0"/>
        <pt x="297" y="278" on="0"/>
        <pt x="239" y="278" on="1"/>
        <pt x="223" y="278" on="0"/>
        <pt x="215" y="279" on="1"/>
        <pt x="215" y="321" on="1"/>
        <pt x="222" y="320" on="0"/>
        <pt x="235" y="320" on="1"/>
        <pt x="277" y="320" on="0"/>
        <pt x="310" y="360" on="0"/>
        <pt x="310" y="395" on="1"/>
        <pt x="310" y="604" on="1"/>
        <pt x="120" y="604" on="1"/>
        <pt x="120" y="112" on="1"/>
        <pt x="120" y="37" on="0"/>
        <pt x="220" y="37" on="1"/>
        <pt x="253" y="37" on="0"/>
        <pt x="319" y="49" on="0"/>
        <pt x="341" y="57" on="1"/>
        <pt x="341" y="15" on="1"/>
        <pt x="323" y="7" on="0"/>
        <pt x="256" y="-5" on="0"/>
        <pt x="220" y="-5" on="1"/>
        <pt x="149" y="-5" on="0"/>
        <pt x="75" y="55" on="0"/>
        <pt x="75" y="112" on="1"/>
        <pt x="75" y="604" on="1"/>
        <pt x="-20" y="604" on="1"/>
        <pt x="-20" y="644" on="1"/>
        <pt x="306" y="644" on="1"/>
        <pt x="142" y="873" on="1"/>
        <pt x="194" y="873" on="1"/>
        <pt x="353" y="644" on="1"/>
      </contour>
    </TTGlyph>
    <TTGlyph name="dvAU" xMin="65" yMin="0" xMax="805" yMax="873">
      <component glyphName="dvA" x="30" y="0" flags="0x0"/>
      <component glyphName="dvmAU" x="580" y="0" flags="0x0"/>
    </TTGlyph>
    <TTGlyph name="dvAbbreviationsign" xMin="55" yMin="201" xMax="304" yMax="470">
      <contour>
        <pt x="55" y="397" on="0"/>
        <pt x="113" y="470" on="0"/>
        <pt x="179" y="470" on="1"/>
        <pt x="245" y="470" on="0"/>
        <pt x="304" y="397" on="0"/>
        <pt x="304" y="335" on="1"/>
        <pt x="304" y="274" on="0"/>
        <pt x="245" y="201" on="0"/>
        <pt x="179" y="201" on="1"/>
        <pt x="55" y="201" on="0"/>
        <pt x="55" y="335" on="1"/>
      </contour>
      <contour>
        <pt x="95" y="288" on="0"/>
        <pt x="129" y="240" on="0"/>
        <pt x="179" y="240" on="1"/>
        <pt x="229" y="240" on="0"/>
        <pt x="264" y="289" on="0"/>
        <pt x="264" y="334" on="1"/>
        <pt x="264" y="379" on="0"/>
        <pt x="229" y="429" on="0"/>
        <pt x="179" y="429" on="1"/>
        <pt x="129" y="429" on="0"/>
        <pt x="95" y="380" on="0"/>
        <pt x="95" y="334" on="1"/>
      </contour>
    </TTGlyph>
    <TTGlyph name="dvAcandra" xMin="35" yMin="0" xMax="594" yMax="819">
      <component glyphName="dvA" x="0" y="0" flags="0x0"/>
      <component glyphName="dvmEcandra" x="550" y="0" flags="0x0"/>
    </TTGlyph>
    <TTGlyph name="dvAnusvara" xMin="-136" yMin="727" xMax="-70" yMax="793">
      <contour>
        <pt x="-136" y="793" on="0"/>
        <pt x="-103" y="793" on="1"/>
        <pt x="-70" y="793" on="0"/>
        <pt x="-70" y="760" on="1"/>
        <pt x="-70" y="727" on="0"/>
        <pt x="-103" y="727" on="1"/>
        <pt x="-136" y="727" on="0"/>
        <pt x="-136" y="760" on="1"/>
      </contour>
    </TTGlyph>
    <TTGlyph name="dvAnusvara.amI" xMin="13" yMin="707" xMax="79" yMax="773">
      <component glyphName="dvAnusvara" x="149" y="-20" flags="0x4"/>
    </TTGlyph>
    <TTGlyph name="dvAvagraha" xMin="61" yMin="-5" xMax="380" yMax="644">
      <contour>
        <pt x="380" y="-5" on="0"/>
        <pt x="223" y="-5" on="1"/>
        <pt x="221" y="-5" on="1"/>
        <pt x="64" y="-5" on="0"/>
        <pt x="64" y="127" on="1"/>
        <pt x="64" y="197" on="1"/>
        <pt x="109" y="197" on="1"/>
        <pt x="109" y="127" on="1"/>
        <pt x="109" y="84" on="0"/>
        <pt x="155" y="37" on="0"/>
        <pt x="221" y="37" on="1"/>
        <pt x="223" y="37" on="1"/>
        <pt x="289" y="37" on="0"/>
        <pt x="335" y="84" on="0"/>
        <pt x="335" y="127" on="1"/>
        <pt x="335" y="203" on="1"/>
        <pt x="335" y="236" on="0"/>
        <pt x="312" y="280" on="0"/>
        <pt x="281" y="297" on="1"/>
        <pt x="144" y="369" on="1"/>
        <pt x="98" y="393" on="0"/>
        <pt x="61" y="458" on="0"/>
        <pt x="61" y="505" on="1"/>
        <pt x="61" y="532" on="1"/>
        <pt x="61" y="588" on="0"/>
        <pt x="124" y="644" on="0"/>
        <pt x="199" y="644" on="1"/>
        <pt x="357" y="644" on="1"/>
        <pt x="357" y="602" on="1"/>
        <pt x="199" y="602" on="1"/>
        <pt x="159" y="602" on="0"/>
        <pt x="118" y="585" on="0"/>
        <pt x="106" y="555" on="0"/>
        <pt x="106" y="532" on="1"/>
        <pt x="106" y="505" on="1"/>
        <pt x="106" y="472" on="0"/>
        <pt x="129" y="428" on="0"/>
        <pt x="160" y="411" on="1"/>
        <pt x="297" y="339" on="1"/>
        <pt x="343" y="315" on="0"/>
        <pt x="380" y="250" on="0"/>
        <pt x="380" y="203" on="1"/>
        <pt x="380" y="127" on="1"/>
      </contour>
    </TTGlyph>
    <TTGlyph name="dvB" xMin="-20" yMin="74" xMax="330" yMax="644">
      <contour>
        <pt x="330" y="604" on="1"/>
        <pt x="-20" y="604" on="1"/>
        <pt x="-20" y="644" on="1"/>
        <pt x="330" y="644" on="1"/>
      </contour>
      <contour>
        <pt x="50" y="445" on="0"/>
        <pt x="120" y="505" on="0"/>
        <pt x="190" y="505" on="1"/>
        <pt x="263" y="505" on="0"/>
        <pt x="330" y="446" on="0"/>
        <pt x="330" y="388" on="1"/>
        <pt x="330" y="191" on="1"/>
        <pt x="330" y="133" on="0"/>
        <pt x="263" y="74" on="0"/>
        <pt x="190" y="74" on="1"/>
        <pt x="120" y="74" on="0"/>
        <pt x="50" y="134" on="0"/>
        <pt x="50" y="191" on="1"/>
        <pt x="50" y="388" on="1"/>
      </contour>
      <contour>
        <pt x="285" y="463" on="0"/>
        <pt x="190" y="463" on="1"/>
        <pt x="128" y="463" on="0"/>
        <pt x="106" y="429" on="1"/>
        <pt x="285" y="203" on="1"/>
        <pt x="285" y="387" on="1"/>
      </contour>
      <contour>
        <pt x="95" y="154" on="0"/>
        <pt x="137" y="116" on="0"/>
        <pt x="190" y="116" on="1"/>
        <pt x="226" y="116" on="0"/>
        <pt x="268" y="134" on="0"/>
        <pt x="277" y="152" on="1"/>
        <pt x="95" y="382" on="1"/>
        <pt x="95" y="191" on="1"/>
      </contour>
    </TTGlyph>
    <TTGlyph name="dvBA" xMin="-20" yMin="0" xMax="427" yMax="644">
      <contour>
        <pt x="427" y="644" on="1"/>
        <pt x="427" y="604" on="1"/>
        <pt x="327" y="604" on="1"/>
        <pt x="327" y="0" on="1"/>
        <pt x="285" y="0" on="1"/>
        <pt x="285" y="88" on="1"/>
        <pt x="274" y="83" on="0"/>
        <pt x="228" y="74" on="0"/>
        <pt x="196" y="74" on="1"/>
        <pt x="126" y="74" on="0"/>
        <pt x="50" y="138" on="0"/>
        <pt x="50" y="195" on="1"/>
        <pt x="50" y="385" on="1"/>
        <pt x="50" y="441" on="0"/>
        <pt x="126" y="505" on="0"/>
        <pt x="196" y="505" on="1"/>
        <pt x="228" y="505" on="0"/>
        <pt x="274" y="496" on="0"/>
        <pt x="285" y="491" on="1"/>
        <pt x="285" y="604" on="1"/>
        <pt x="-20" y="604" on="1"/>
        <pt x="-20" y="644" on="1"/>
      </contour>
      <contour>
        <pt x="102" y="463" on="0"/>
        <pt x="95" y="393" on="1"/>
        <pt x="285" y="248" on="1"/>
        <pt x="285" y="449" on="1"/>
        <pt x="274" y="454" on="0"/>
        <pt x="228" y="463" on="0"/>
        <pt x="196" y="463" on="1"/>
      </contour>
      <contour>
        <pt x="228" y="116" on="0"/>
        <pt x="274" y="125" on="0"/>
        <pt x="285" y="130" on="1"/>
        <pt x="285" y="202" on="1"/>
        <pt x="95" y="346" on="1"/>
        <pt x="95" y="195" on="1"/>
        <pt x="95" y="116" on="0"/>
        <pt x="196" y="116" on="1"/>
      </contour>
    </TTGlyph>
    <TTGlyph name="dvBH" xMin="50" yMin="63" xMax="481" yMax="649">
      <contour>
        <pt x="304" y="346" on="1"/>
        <pt x="304" y="175" on="1"/>
        <pt x="304" y="118" on="0"/>
        <pt x="244" y="63" on="0"/>
        <pt x="177" y="63" on="1"/>
        <pt x="110" y="63" on="0"/>
        <pt x="50" y="118" on="0"/>
        <pt x="50" y="175" on="1"/>
        <pt x="50" y="276" on="1"/>
        <pt x="50" y="333" on="0"/>
        <pt x="110" y="386" on="0"/>
        <pt x="177" y="386" on="1"/>
        <pt x="259" y="386" on="1"/>
        <pt x="259" y="532" on="1"/>
        <pt x="259" y="570" on="0"/>
        <pt x="226" y="607" on="0"/>
        <pt x="180" y="607" on="1"/>
        <pt x="134" y="607" on="0"/>
        <pt x="101" y="569" on="0"/>
        <pt x="101" y="532" on="1"/>
        <pt x="101" y="516" on="0"/>
        <pt x="105" y="481" on="0"/>
        <pt x="106" y="476" on="1"/>
        <pt x="61" y="476" on="1"/>
        <pt x="60" y="481" on="0"/>
        <pt x="56" y="517" on="0"/>
        <pt x="56" y="532" on="1"/>
        <pt x="56" y="649" on="0"/>
        <pt x="180" y="649" on="1"/>
        <pt x="304" y="649" on="0"/>
        <pt x="304" y="532" on="1"/>
        <pt x="304" y="386" on="1"/>
        <pt x="481" y="386" on="1"/>
        <pt x="481" y="346" on="1"/>
      </contour>
      <contour>
        <pt x="177" y="346" on="1"/>
        <pt x="128" y="346" on="0"/>
        <pt x="95" y="313" on="0"/>
        <pt x="95" y="276" on="1"/>
        <pt x="95" y="175" on="1"/>
        <pt x="95" y="139" on="0"/>
        <pt x="128" y="105" on="0"/>
        <pt x="177" y="105" on="1"/>
        <pt x="226" y="105" on="0"/>
        <pt x="259" y="138" on="0"/>
        <pt x="259" y="175" on="1"/>
        <pt x="259" y="346" on="1"/>
      </contour>
    </TTGlyph>
    <TTGlyph name="dvBHA" xMin="50" yMin="0" xMax="591" yMax="649">
      <contour>
        <pt x="259" y="570" on="0"/>
        <pt x="226" y="607" on="0"/>
        <pt x="180" y="607" on="1"/>
        <pt x="134" y="607" on="0"/>
        <pt x="101" y="569" on="0"/>
        <pt x="101" y="532" on="1"/>
        <pt x="101" y="518" on="0"/>
        <pt x="104" y="482" on="0"/>
        <pt x="105" y="476" on="1"/>
        <pt x="60" y="476" on="1"/>
        <pt x="59" y="481" on="0"/>
        <pt x="56" y="516" on="0"/>
        <pt x="56" y="532" on="1"/>
        <pt x="56" y="649" on="0"/>
        <pt x="180" y="649" on="1"/>
        <pt x="304" y="649" on="0"/>
        <pt x="304" y="532" on="1"/>
        <pt x="304" y="386" on="1"/>
        <pt x="446" y="386" on="1"/>
        <pt x="446" y="644" on="1"/>
        <pt x="591" y="644" on="1"/>
        <pt x="591" y="604" on="1"/>
        <pt x="491" y="604" on="1"/>
        <pt x="491" y="0" on="1"/>
        <pt x="446" y="0" on="1"/>
        <pt x="446" y="346" on="1"/>
        <pt x="304" y="346" on="1"/>
        <pt x="304" y="175" on="1"/>
        <pt x="304" y="118" on="0"/>
        <pt x="244" y="63" on="0"/>
        <pt x="177" y="63" on="1"/>
        <pt x="110" y="63" on="0"/>
        <pt x="50" y="118" on="0"/>
        <pt x="50" y="175" on="1"/>
        <pt x="50" y="276" on="1"/>
        <pt x="50" y="333" on="0"/>
        <pt x="110" y="386" on="0"/>
        <pt x="177" y="386" on="1"/>
        <pt x="259" y="386" on="1"/>
        <pt x="259" y="532" on="1"/>
      </contour>
      <contour>
        <pt x="177" y="346" on="1"/>
        <pt x="128" y="346" on="0"/>
        <pt x="95" y="313" on="0"/>
        <pt x="95" y="276" on="1"/>
        <pt x="95" y="175" on="1"/>
        <pt x="95" y="139" on="0"/>
        <pt x="128" y="105" on="0"/>
        <pt x="177" y="105" on="1"/>
        <pt x="226" y="105" on="0"/>
        <pt x="259" y="138" on="0"/>
        <pt x="259" y="175" on="1"/>
        <pt x="259" y="346" on="1"/>
      </contour>
    </TTGlyph>
    <TTGlyph name="dvBH_LA" xMin="50" yMin="0" xMax="1014" yMax="649">
      <contour>
        <pt x="1014" y="644" on="1"/>
        <pt x="1014" y="604" on="1"/>
        <pt x="914" y="604" on="1"/>
        <pt x="914" y="0" on="1"/>
        <pt x="869" y="0" on="1"/>
        <pt x="869" y="418" on="1"/>
        <pt x="834" y="434" on="0"/>
        <pt x="789" y="434" on="1"/>
        <pt x="742" y="434" on="0"/>
        <pt x="699" y="392" on="0"/>
        <pt x="699" y="357" on="1"/>
        <pt x="699" y="206" on="1"/>
        <pt x="654" y="206" on="1"/>
        <pt x="654" y="357" on="1"/>
        <pt x="654" y="393" on="0"/>
        <pt x="616" y="434" on="0"/>
        <pt x="569" y="434" on="1"/>
        <pt x="520" y="434" on="0"/>
        <pt x="484" y="392" on="0"/>
        <pt x="484" y="354" on="1"/>
        <pt x="484" y="146" on="1"/>
        <pt x="484" y="95" on="0"/>
        <pt x="531" y="40" on="0"/>
        <pt x="594" y="40" on="1"/>
        <pt x="619" y="40" on="0"/>
        <pt x="651" y="45" on="1"/>
        <pt x="651" y="5" on="1"/>
        <pt x="624" y="0" on="0"/>
        <pt x="594" y="0" on="1"/>
        <pt x="439" y="0" on="0"/>
        <pt x="439" y="146" on="1"/>
        <pt x="439" y="346" on="1"/>
        <pt x="304" y="346" on="1"/>
        <pt x="304" y="175" on="1"/>
        <pt x="304" y="118" on="0"/>
        <pt x="244" y="63" on="0"/>
        <pt x="177" y="63" on="1"/>
        <pt x="110" y="63" on="0"/>
        <pt x="50" y="118" on="0"/>
        <pt x="50" y="175" on="1"/>
        <pt x="50" y="276" on="1"/>
        <pt x="50" y="333" on="0"/>
        <pt x="110" y="386" on="0"/>
        <pt x="177" y="386" on="1"/>
        <pt x="259" y="386" on="1"/>
        <pt x="259" y="532" on="1"/>
        <pt x="259" y="570" on="0"/>
        <pt x="226" y="607" on="0"/>
        <pt x="180" y="607" on="1"/>
        <pt x="134" y="607" on="0"/>
        <pt x="101" y="569" on="0"/>
        <pt x="101" y="532" on="1"/>
        <pt x="101" y="516" on="0"/>
        <pt x="105" y="481" on="0"/>
        <pt x="106" y="476" on="1"/>
        <pt x="61" y="476" on="1"/>
        <pt x="60" y="481" on="0"/>
        <pt x="56" y="517" on="0"/>
        <pt x="56" y="532" on="1"/>
        <pt x="56" y="649" on="0"/>
        <pt x="180" y="649" on="1"/>
        <pt x="304" y="649" on="0"/>
        <pt x="304" y="532" on="1"/>
        <pt x="304" y="386" on="1"/>
        <pt x="442" y="386" on="1"/>
        <pt x="450" y="429" on="0"/>
        <pt x="513" y="476" on="0"/>
        <pt x="569" y="476" on="1"/>
        <pt x="644" y="476" on="0"/>
        <pt x="676" y="433" on="1"/>
        <pt x="692" y="453" on="0"/>
        <pt x="750" y="476" on="0"/>
        <pt x="789" y="476" on="1"/>
        <pt x="812" y="476" on="0"/>
        <pt x="848" y="469" on="0"/>
        <pt x="869" y="460" on="1"/>
        <pt x="869" y="604" on="1"/>
        <pt x="364" y="604" on="1"/>
        <pt x="364" y="644" on="1"/>
      </contour>
      <contour>
        <pt x="259" y="346" on="1"/>
        <pt x="177" y="346" on="1"/>
        <pt x="128" y="346" on="0"/>
        <pt x="95" y="313" on="0"/>
        <pt x="95" y="276" on="1"/>
        <pt x="95" y="175" on="1"/>
        <pt x="95" y="139" on="0"/>
        <pt x="128" y="105" on="0"/>
        <pt x="177" y="105" on="1"/>
        <pt x="226" y="105" on="0"/>
        <pt x="259" y="138" on="0"/>
        <pt x="259" y="175" on="1"/>
      </contour>
    </TTGlyph>
    <TTGlyph name="dvBH_NA" xMin="50" yMin="0" xMax="967" yMax="649">
      <contour>
        <pt x="967" y="644" on="1"/>
        <pt x="967" y="604" on="1"/>
        <pt x="867" y="604" on="1"/>
        <pt x="867" y="0" on="1"/>
        <pt x="822" y="0" on="1"/>
        <pt x="822" y="436" on="1"/>
        <pt x="667" y="436" on="1"/>
        <pt x="668" y="434" on="0"/>
        <pt x="674" y="417" on="0"/>
        <pt x="680" y="383" on="0"/>
        <pt x="680" y="361" on="1"/>
        <pt x="680" y="175" on="1"/>
        <pt x="680" y="119" on="0"/>
        <pt x="617" y="63" on="0"/>
        <pt x="557" y="63" on="1"/>
        <pt x="497" y="63" on="0"/>
        <pt x="434" y="119" on="0"/>
        <pt x="434" y="175" on="1"/>
        <pt x="434" y="346" on="1"/>
        <pt x="304" y="346" on="1"/>
        <pt x="304" y="175" on="1"/>
        <pt x="304" y="118" on="0"/>
        <pt x="244" y="63" on="0"/>
        <pt x="177" y="63" on="1"/>
        <pt x="110" y="63" on="0"/>
        <pt x="50" y="118" on="0"/>
        <pt x="50" y="175" on="1"/>
        <pt x="50" y="276" on="1"/>
        <pt x="50" y="333" on="0"/>
        <pt x="110" y="386" on="0"/>
        <pt x="177" y="386" on="1"/>
        <pt x="259" y="386" on="1"/>
        <pt x="259" y="532" on="1"/>
        <pt x="259" y="570" on="0"/>
        <pt x="226" y="607" on="0"/>
        <pt x="180" y="607" on="1"/>
        <pt x="134" y="607" on="0"/>
        <pt x="101" y="569" on="0"/>
        <pt x="101" y="532" on="1"/>
        <pt x="101" y="516" on="0"/>
        <pt x="104" y="481" on="0"/>
        <pt x="105" y="476" on="1"/>
        <pt x="60" y="476" on="1"/>
        <pt x="59" y="481" on="0"/>
        <pt x="56" y="515" on="0"/>
        <pt x="56" y="532" on="1"/>
        <pt x="56" y="649" on="0"/>
        <pt x="180" y="649" on="1"/>
        <pt x="304" y="649" on="0"/>
        <pt x="304" y="532" on="1"/>
        <pt x="304" y="386" on="1"/>
        <pt x="435" y="386" on="1"/>
        <pt x="445" y="476" on="0"/>
        <pt x="557" y="476" on="1"/>
        <pt x="822" y="476" on="1"/>
        <pt x="822" y="604" on="1"/>
        <pt x="364" y="604" on="1"/>
        <pt x="364" y="644" on="1"/>
      </contour>
      <contour>
        <pt x="635" y="361" on="1"/>
        <pt x="635" y="382" on="0"/>
        <pt x="629" y="415" on="0"/>
        <pt x="623" y="434" on="0"/>
        <pt x="622" y="436" on="1"/>
        <pt x="557" y="436" on="1"/>
        <pt x="514" y="436" on="0"/>
        <pt x="479" y="402" on="0"/>
        <pt x="479" y="366" on="1"/>
        <pt x="479" y="175" on="1"/>
        <pt x="479" y="140" on="0"/>
        <pt x="514" y="105" on="0"/>
        <pt x="557" y="105" on="1"/>
        <pt x="600" y="105" on="0"/>
        <pt x="635" y="139" on="0"/>
        <pt x="635" y="175" on="1"/>
      </contour>
      <contour>
        <pt x="259" y="346" on="1"/>
        <pt x="177" y="346" on="1"/>
        <pt x="128" y="346" on="0"/>
        <pt x="95" y="313" on="0"/>
        <pt x="95" y="276" on="1"/>
        <pt x="95" y="175" on="1"/>
        <pt x="95" y="139" on="0"/>
        <pt x="128" y="105" on="0"/>
        <pt x="177" y="105" on="1"/>
        <pt x="226" y="105" on="0"/>
        <pt x="259" y="138" on="0"/>
        <pt x="259" y="175" on="1"/>
      </contour>
    </TTGlyph>
    <TTGlyph name="dvBH_R" xMin="57" yMin="-44" xMax="487" yMax="649">
      <contour>
        <pt x="311" y="376" on="1"/>
        <pt x="311" y="245" on="1"/>
        <pt x="311" y="188" on="0"/>
        <pt x="251" y="133" on="0"/>
        <pt x="184" y="133" on="1"/>
        <pt x="117" y="133" on="0"/>
        <pt x="57" y="188" on="0"/>
        <pt x="57" y="245" on="1"/>
        <pt x="57" y="306" on="1"/>
        <pt x="57" y="363" on="0"/>
        <pt x="117" y="416" on="0"/>
        <pt x="184" y="416" on="1"/>
        <pt x="266" y="416" on="1"/>
        <pt x="266" y="532" on="1"/>
        <pt x="266" y="570" on="0"/>
        <pt x="233" y="607" on="0"/>
        <pt x="187" y="607" on="1"/>
        <pt x="141" y="607" on="0"/>
        <pt x="108" y="569" on="0"/>
        <pt x="108" y="532" on="1"/>
        <pt x="108" y="514" on="0"/>
        <pt x="112" y="481" on="0"/>
        <pt x="113" y="476" on="1"/>
        <pt x="68" y="476" on="1"/>
        <pt x="67" y="481" on="0"/>
        <pt x="63" y="516" on="0"/>
        <pt x="63" y="532" on="1"/>
        <pt x="63" y="649" on="0"/>
        <pt x="187" y="649" on="1"/>
        <pt x="311" y="649" on="0"/>
        <pt x="311" y="532" on="1"/>
        <pt x="311" y="416" on="1"/>
        <pt x="487" y="416" on="1"/>
        <pt x="487" y="376" on="1"/>
      </contour>
      <contour>
        <pt x="184" y="376" on="1"/>
        <pt x="135" y="376" on="0"/>
        <pt x="102" y="343" on="0"/>
        <pt x="102" y="306" on="1"/>
        <pt x="102" y="245" on="1"/>
        <pt x="102" y="209" on="0"/>
        <pt x="135" y="175" on="0"/>
        <pt x="184" y="175" on="1"/>
        <pt x="233" y="175" on="0"/>
        <pt x="266" y="208" on="0"/>
        <pt x="266" y="245" on="1"/>
        <pt x="266" y="376" on="1"/>
      </contour>
      <contour>
        <pt x="466" y="189" on="0"/>
        <pt x="393" y="102" on="0"/>
        <pt x="364" y="73" on="1"/>
        <pt x="253" y="-44" on="1"/>
        <pt x="190" y="-44" on="1"/>
        <pt x="487" y="265" on="1"/>
        <pt x="487" y="216" on="1"/>
      </contour>
    </TTGlyph>
    <TTGlyph name="dvBH_RA" xMin="57" yMin="-44" xMax="601" yMax="649">
      <contour>
        <pt x="311" y="376" on="1"/>
        <pt x="311" y="245" on="1"/>
        <pt x="311" y="188" on="0"/>
        <pt x="251" y="133" on="0"/>
        <pt x="184" y="133" on="1"/>
        <pt x="117" y="133" on="0"/>
        <pt x="57" y="188" on="0"/>
        <pt x="57" y="245" on="1"/>
        <pt x="57" y="306" on="1"/>
        <pt x="57" y="363" on="0"/>
        <pt x="117" y="416" on="0"/>
        <pt x="184" y="416" on="1"/>
        <pt x="266" y="416" on="1"/>
        <pt x="266" y="532" on="1"/>
        <pt x="266" y="570" on="0"/>
        <pt x="233" y="607" on="0"/>
        <pt x="187" y="607" on="1"/>
        <pt x="141" y="607" on="0"/>
        <pt x="108" y="569" on="0"/>
        <pt x="108" y="532" on="1"/>
        <pt x="108" y="510" on="0"/>
        <pt x="111" y="480" on="0"/>
        <pt x="112" y="476" on="1"/>
        <pt x="67" y="476" on="1"/>
        <pt x="66" y="481" on="0"/>
        <pt x="63" y="513" on="0"/>
        <pt x="63" y="532" on="1"/>
        <pt x="63" y="649" on="0"/>
        <pt x="187" y="649" on="1"/>
        <pt x="311" y="649" on="0"/>
        <pt x="311" y="532" on="1"/>
        <pt x="311" y="416" on="1"/>
        <pt x="456" y="416" on="1"/>
        <pt x="456" y="644" on="1"/>
        <pt x="601" y="644" on="1"/>
        <pt x="601" y="604" on="1"/>
        <pt x="501" y="604" on="1"/>
        <pt x="501" y="0" on="1"/>
        <pt x="456" y="0" on="1"/>
        <pt x="456" y="36" on="1"/>
        <pt x="456" y="89" on="0"/>
        <pt x="458" y="168" on="0"/>
        <pt x="459" y="178" on="1"/>
        <pt x="449" y="163" on="0"/>
        <pt x="364" y="73" on="1"/>
        <pt x="253" y="-44" on="1"/>
        <pt x="190" y="-44" on="1"/>
        <pt x="456" y="233" on="1"/>
        <pt x="456" y="376" on="1"/>
      </contour>
      <contour>
        <pt x="184" y="376" on="1"/>
        <pt x="135" y="376" on="0"/>
        <pt x="102" y="343" on="0"/>
        <pt x="102" y="306" on="1"/>
        <pt x="102" y="245" on="1"/>
        <pt x="102" y="209" on="0"/>
        <pt x="135" y="175" on="0"/>
        <pt x="184" y="175" on="1"/>
        <pt x="233" y="175" on="0"/>
        <pt x="266" y="208" on="0"/>
        <pt x="266" y="245" on="1"/>
        <pt x="266" y="376" on="1"/>
      </contour>
    </TTGlyph>
    <TTGlyph name="dvBH_R_YA" xMin="50" yMin="-44" xMax="895" yMax="649">
      <contour>
        <pt x="895" y="644" on="1"/>
        <pt x="895" y="604" on="1"/>
        <pt x="795" y="604" on="1"/>
        <pt x="795" y="0" on="1"/>
        <pt x="750" y="0" on="1"/>
        <pt x="750" y="132" on="1"/>
        <pt x="718" y="85" on="0"/>
        <pt x="618" y="85" on="1"/>
        <pt x="555" y="85" on="0"/>
        <pt x="472" y="125" on="0"/>
        <pt x="455" y="176" on="1"/>
        <pt x="406" y="117" on="0"/>
        <pt x="364" y="73" on="1"/>
        <pt x="253" y="-44" on="1"/>
        <pt x="190" y="-44" on="1"/>
        <pt x="445" y="222" on="1"/>
        <pt x="444" y="253" on="1"/>
        <pt x="444" y="347" on="1"/>
        <pt x="436" y="361" on="0"/>
        <pt x="404" y="361" on="1"/>
        <pt x="304" y="361" on="1"/>
        <pt x="304" y="245" on="1"/>
        <pt x="304" y="188" on="0"/>
        <pt x="244" y="133" on="0"/>
        <pt x="177" y="133" on="1"/>
        <pt x="110" y="133" on="0"/>
        <pt x="50" y="188" on="0"/>
        <pt x="50" y="245" on="1"/>
        <pt x="50" y="291" on="1"/>
        <pt x="50" y="348" on="0"/>
        <pt x="110" y="401" on="0"/>
        <pt x="177" y="401" on="1"/>
        <pt x="259" y="401" on="1"/>
        <pt x="259" y="532" on="1"/>
        <pt x="259" y="570" on="0"/>
        <pt x="226" y="607" on="0"/>
        <pt x="180" y="607" on="1"/>
        <pt x="134" y="607" on="0"/>
        <pt x="101" y="569" on="0"/>
        <pt x="101" y="532" on="1"/>
        <pt x="101" y="491" on="1"/>
        <pt x="56" y="491" on="1"/>
        <pt x="56" y="532" on="1"/>
        <pt x="56" y="649" on="0"/>
        <pt x="180" y="649" on="1"/>
        <pt x="304" y="649" on="0"/>
        <pt x="304" y="532" on="1"/>
        <pt x="304" y="401" on="1"/>
        <pt x="410" y="401" on="1"/>
        <pt x="452" y="401" on="0"/>
        <pt x="468" y="386" on="1"/>
        <pt x="511" y="386" on="0"/>
        <pt x="558" y="399" on="0"/>
        <pt x="578" y="431" on="0"/>
        <pt x="578" y="461" on="1"/>
        <pt x="578" y="529" on="1"/>
        <pt x="578" y="566" on="0"/>
        <pt x="540" y="604" on="0"/>
        <pt x="491" y="604" on="1"/>
        <pt x="364" y="604" on="1"/>
        <pt x="364" y="644" on="1"/>
      </contour>
      <contour>
        <pt x="750" y="604" on="1"/>
        <pt x="591" y="604" on="1"/>
        <pt x="623" y="586" on="0"/>
        <pt x="623" y="529" on="1"/>
        <pt x="623" y="461" on="1"/>
        <pt x="623" y="344" on="0"/>
        <pt x="489" y="344" on="1"/>
        <pt x="489" y="253" on="1"/>
        <pt x="489" y="186" on="0"/>
        <pt x="545" y="127" on="0"/>
        <pt x="618" y="127" on="1"/>
        <pt x="692" y="127" on="0"/>
        <pt x="750" y="186" on="0"/>
        <pt x="750" y="253" on="1"/>
      </contour>
      <contour>
        <pt x="259" y="361" on="1"/>
        <pt x="177" y="361" on="1"/>
        <pt x="128" y="361" on="0"/>
        <pt x="95" y="328" on="0"/>
        <pt x="95" y="291" on="1"/>
        <pt x="95" y="245" on="1"/>
        <pt x="95" y="209" on="0"/>
        <pt x="128" y="175" on="0"/>
        <pt x="177" y="175" on="1"/>
        <pt x="226" y="175" on="0"/>
        <pt x="259" y="208" on="0"/>
        <pt x="259" y="245" on="1"/>
      </contour>
    </TTGlyph>
    <TTGlyph name="dvBH_VA" xMin="50" yMin="0" xMax="827" yMax="649">
      <contour>
        <pt x="827" y="644" on="1"/>
        <pt x="827" y="604" on="1"/>
        <pt x="727" y="604" on="1"/>
        <pt x="727" y="0" on="1"/>
        <pt x="682" y="0" on="1"/>
        <pt x="682" y="88" on="1"/>
        <pt x="673" y="84" on="0"/>
        <pt x="615" y="74" on="0"/>
        <pt x="583" y="74" on="1"/>
        <pt x="512" y="74" on="0"/>
        <pt x="437" y="139" on="0"/>
        <pt x="437" y="199" on="1"/>
        <pt x="437" y="346" on="1"/>
        <pt x="304" y="346" on="1"/>
        <pt x="304" y="175" on="1"/>
        <pt x="304" y="118" on="0"/>
        <pt x="244" y="63" on="0"/>
        <pt x="177" y="63" on="1"/>
        <pt x="110" y="63" on="0"/>
        <pt x="50" y="118" on="0"/>
        <pt x="50" y="175" on="1"/>
        <pt x="50" y="276" on="1"/>
        <pt x="50" y="333" on="0"/>
        <pt x="110" y="386" on="0"/>
        <pt x="177" y="386" on="1"/>
        <pt x="259" y="386" on="1"/>
        <pt x="259" y="532" on="1"/>
        <pt x="259" y="570" on="0"/>
        <pt x="226" y="607" on="0"/>
        <pt x="180" y="607" on="1"/>
        <pt x="134" y="607" on="0"/>
        <pt x="101" y="569" on="0"/>
        <pt x="101" y="532" on="1"/>
        <pt x="101" y="516" on="0"/>
        <pt x="105" y="481" on="0"/>
        <pt x="106" y="476" on="1"/>
        <pt x="61" y="476" on="1"/>
        <pt x="60" y="481" on="0"/>
        <pt x="56" y="517" on="0"/>
        <pt x="56" y="532" on="1"/>
        <pt x="56" y="649" on="0"/>
        <pt x="180" y="649" on="1"/>
        <pt x="304" y="649" on="0"/>
        <pt x="304" y="532" on="1"/>
        <pt x="304" y="386" on="1"/>
        <pt x="437" y="386" on="1"/>
        <pt x="439" y="440" on="0"/>
        <pt x="515" y="505" on="0"/>
        <pt x="583" y="505" on="1"/>
        <pt x="615" y="505" on="0"/>
        <pt x="673" y="495" on="0"/>
        <pt x="682" y="491" on="1"/>
        <pt x="682" y="604" on="1"/>
        <pt x="367" y="604" on="1"/>
        <pt x="367" y="644" on="1"/>
      </contour>
      <contour>
        <pt x="682" y="449" on="1"/>
        <pt x="673" y="453" on="0"/>
        <pt x="615" y="463" on="0"/>
        <pt x="583" y="463" on="1"/>
        <pt x="530" y="463" on="0"/>
        <pt x="482" y="417" on="0"/>
        <pt x="482" y="380" on="1"/>
        <pt x="482" y="199" on="1"/>
        <pt x="482" y="116" on="0"/>
        <pt x="583" y="116" on="1"/>
        <pt x="615" y="116" on="0"/>
        <pt x="673" y="126" on="0"/>
        <pt x="682" y="130" on="1"/>
      </contour>
      <contour>
        <pt x="259" y="346" on="1"/>
        <pt x="177" y="346" on="1"/>
        <pt x="128" y="346" on="0"/>
        <pt x="95" y="313" on="0"/>
        <pt x="95" y="276" on="1"/>
        <pt x="95" y="175" on="1"/>
        <pt x="95" y="139" on="0"/>
        <pt x="128" y="105" on="0"/>
        <pt x="177" y="105" on="1"/>
        <pt x="226" y="105" on="0"/>
        <pt x="259" y="138" on="0"/>
        <pt x="259" y="175" on="1"/>
      </contour>
    </TTGlyph>
    <TTGlyph name="dvBH_YA" xMin="50" yMin="0" xMax="895" yMax="649">
      <contour>
        <pt x="895" y="644" on="1"/>
        <pt x="895" y="604" on="1"/>
        <pt x="795" y="604" on="1"/>
        <pt x="795" y="0" on="1"/>
        <pt x="750" y="0" on="1"/>
        <pt x="750" y="97" on="1"/>
        <pt x="692" y="85" on="0"/>
        <pt x="632" y="85" on="1"/>
        <pt x="548" y="85" on="0"/>
        <pt x="444" y="158" on="0"/>
        <pt x="444" y="253" on="1"/>
        <pt x="444" y="335" on="1"/>
        <pt x="444" y="361" on="0"/>
        <pt x="401" y="361" on="1"/>
        <pt x="304" y="361" on="1"/>
        <pt x="304" y="175" on="1"/>
        <pt x="304" y="118" on="0"/>
        <pt x="244" y="63" on="0"/>
        <pt x="177" y="63" on="1"/>
        <pt x="110" y="63" on="0"/>
        <pt x="50" y="118" on="0"/>
        <pt x="50" y="175" on="1"/>
        <pt x="50" y="291" on="1"/>
        <pt x="50" y="348" on="0"/>
        <pt x="110" y="401" on="0"/>
        <pt x="177" y="401" on="1"/>
        <pt x="259" y="401" on="1"/>
        <pt x="259" y="532" on="1"/>
        <pt x="259" y="570" on="0"/>
        <pt x="226" y="607" on="0"/>
        <pt x="180" y="607" on="1"/>
        <pt x="134" y="607" on="0"/>
        <pt x="101" y="569" on="0"/>
        <pt x="101" y="532" on="1"/>
        <pt x="101" y="516" on="0"/>
        <pt x="105" y="481" on="0"/>
        <pt x="106" y="476" on="1"/>
        <pt x="61" y="476" on="1"/>
        <pt x="60" y="481" on="0"/>
        <pt x="56" y="517" on="0"/>
        <pt x="56" y="532" on="1"/>
        <pt x="56" y="649" on="0"/>
        <pt x="180" y="649" on="1"/>
        <pt x="304" y="649" on="0"/>
        <pt x="304" y="532" on="1"/>
        <pt x="304" y="401" on="1"/>
        <pt x="407" y="401" on="1"/>
        <pt x="455" y="401" on="0"/>
        <pt x="469" y="381" on="1"/>
        <pt x="512" y="382" on="0"/>
        <pt x="558" y="394" on="0"/>
        <pt x="578" y="426" on="0"/>
        <pt x="578" y="456" on="1"/>
        <pt x="578" y="529" on="1"/>
        <pt x="578" y="558" on="0"/>
        <pt x="571" y="599" on="0"/>
        <pt x="570" y="604" on="1"/>
        <pt x="364" y="604" on="1"/>
        <pt x="364" y="644" on="1"/>
      </contour>
      <contour>
        <pt x="750" y="604" on="1"/>
        <pt x="615" y="604" on="1"/>
        <pt x="616" y="602" on="0"/>
        <pt x="619" y="585" on="0"/>
        <pt x="623" y="551" on="0"/>
        <pt x="623" y="529" on="1"/>
        <pt x="623" y="456" on="1"/>
        <pt x="623" y="339" on="0"/>
        <pt x="489" y="339" on="1"/>
        <pt x="489" y="253" on="1"/>
        <pt x="489" y="188" on="0"/>
        <pt x="557" y="127" on="0"/>
        <pt x="632" y="127" on="1"/>
        <pt x="688" y="127" on="0"/>
        <pt x="750" y="139" on="1"/>
      </contour>
      <contour>
        <pt x="259" y="361" on="1"/>
        <pt x="177" y="361" on="1"/>
        <pt x="128" y="361" on="0"/>
        <pt x="95" y="328" on="0"/>
        <pt x="95" y="291" on="1"/>
        <pt x="95" y="175" on="1"/>
        <pt x="95" y="139" on="0"/>
        <pt x="128" y="105" on="0"/>
        <pt x="177" y="105" on="1"/>
        <pt x="226" y="105" on="0"/>
        <pt x="259" y="138" on="0"/>
        <pt x="259" y="175" on="1"/>
      </contour>
    </TTGlyph>
    <TTGlyph name="dvB_BA" xMin="-20" yMin="0" xMax="662" yMax="644">
      <contour>
        <pt x="662" y="604" on="1"/>
        <pt x="562" y="604" on="1"/>
        <pt x="562" y="0" on="1"/>
        <pt x="520" y="0" on="1"/>
        <pt x="520" y="88" on="1"/>
        <pt x="509" y="83" on="0"/>
        <pt x="463" y="74" on="0"/>
        <pt x="431" y="74" on="1"/>
        <pt x="348" y="74" on="0"/>
        <pt x="310" y="118" on="1"/>
        <pt x="278" y="74" on="0"/>
        <pt x="190" y="74" on="1"/>
        <pt x="120" y="74" on="0"/>
        <pt x="50" y="134" on="0"/>
        <pt x="50" y="191" on="1"/>
        <pt x="50" y="388" on="1"/>
        <pt x="50" y="445" on="0"/>
        <pt x="120" y="505" on="0"/>
        <pt x="190" y="505" on="1"/>
        <pt x="206" y="505" on="0"/>
        <pt x="233" y="501" on="0"/>
        <pt x="237" y="500" on="1"/>
        <pt x="237" y="458" on="1"/>
        <pt x="233" y="459" on="0"/>
        <pt x="206" y="463" on="0"/>
        <pt x="190" y="463" on="1"/>
        <pt x="139" y="463" on="0"/>
        <pt x="97" y="427" on="0"/>
        <pt x="95" y="393" on="1"/>
        <pt x="285" y="248" on="1"/>
        <pt x="285" y="385" on="1"/>
        <pt x="285" y="441" on="0"/>
        <pt x="361" y="505" on="0"/>
        <pt x="431" y="505" on="1"/>
        <pt x="463" y="505" on="0"/>
        <pt x="509" y="496" on="0"/>
        <pt x="520" y="491" on="1"/>
        <pt x="520" y="604" on="1"/>
        <pt x="-20" y="604" on="1"/>
        <pt x="-20" y="644" on="1"/>
        <pt x="662" y="644" on="1"/>
      </contour>
      <contour>
        <pt x="337" y="463" on="0"/>
        <pt x="330" y="393" on="1"/>
        <pt x="520" y="248" on="1"/>
        <pt x="520" y="449" on="1"/>
        <pt x="509" y="454" on="0"/>
        <pt x="463" y="463" on="0"/>
        <pt x="431" y="463" on="1"/>
      </contour>
      <contour>
        <pt x="285" y="202" on="1"/>
        <pt x="95" y="346" on="1"/>
        <pt x="95" y="191" on="1"/>
        <pt x="95" y="154" on="0"/>
        <pt x="137" y="116" on="0"/>
        <pt x="190" y="116" on="1"/>
        <pt x="241" y="116" on="0"/>
        <pt x="285" y="153" on="0"/>
        <pt x="285" y="191" on="1"/>
      </contour>
      <contour>
        <pt x="463" y="116" on="0"/>
        <pt x="509" y="125" on="0"/>
        <pt x="520" y="130" on="1"/>
        <pt x="520" y="202" on="1"/>
        <pt x="330" y="346" on="1"/>
        <pt x="330" y="195" on="1"/>
        <pt x="330" y="116" on="0"/>
        <pt x="431" y="116" on="1"/>
      </contour>
    </TTGlyph>
    <TTGlyph name="dvB_BHA" xMin="-20" yMin="0" xMax="826" yMax="649">
      <contour>
        <pt x="826" y="644" on="1"/>
        <pt x="826" y="604" on="1"/>
        <pt x="726" y="604" on="1"/>
        <pt x="726" y="0" on="1"/>
        <pt x="681" y="0" on="1"/>
        <pt x="681" y="346" on="1"/>
        <pt x="539" y="346" on="1"/>
        <pt x="539" y="175" on="1"/>
        <pt x="539" y="118" on="0"/>
        <pt x="479" y="63" on="0"/>
        <pt x="412" y="63" on="1"/>
        <pt x="328" y="63" on="0"/>
        <pt x="301" y="108" on="1"/>
        <pt x="267" y="74" on="0"/>
        <pt x="190" y="74" on="1"/>
        <pt x="120" y="74" on="0"/>
        <pt x="50" y="134" on="0"/>
        <pt x="50" y="191" on="1"/>
        <pt x="50" y="388" on="1"/>
        <pt x="50" y="445" on="0"/>
        <pt x="120" y="505" on="0"/>
        <pt x="190" y="505" on="1"/>
        <pt x="206" y="505" on="0"/>
        <pt x="233" y="501" on="0"/>
        <pt x="237" y="500" on="1"/>
        <pt x="237" y="458" on="1"/>
        <pt x="233" y="459" on="0"/>
        <pt x="206" y="463" on="0"/>
        <pt x="190" y="463" on="1"/>
        <pt x="139" y="463" on="0"/>
        <pt x="97" y="427" on="0"/>
        <pt x="95" y="393" on="1"/>
        <pt x="285" y="248" on="1"/>
        <pt x="285" y="276" on="1"/>
        <pt x="285" y="333" on="0"/>
        <pt x="345" y="386" on="0"/>
        <pt x="412" y="386" on="1"/>
        <pt x="494" y="386" on="1"/>
        <pt x="494" y="532" on="1"/>
        <pt x="494" y="570" on="0"/>
        <pt x="461" y="607" on="0"/>
        <pt x="415" y="607" on="1"/>
        <pt x="369" y="607" on="0"/>
        <pt x="336" y="569" on="0"/>
        <pt x="336" y="532" on="1"/>
        <pt x="336" y="518" on="0"/>
        <pt x="339" y="482" on="0"/>
        <pt x="340" y="476" on="1"/>
        <pt x="295" y="476" on="1"/>
        <pt x="294" y="481" on="0"/>
        <pt x="291" y="516" on="0"/>
        <pt x="291" y="532" on="1"/>
        <pt x="291" y="649" on="0"/>
        <pt x="415" y="649" on="1"/>
        <pt x="539" y="649" on="0"/>
        <pt x="539" y="532" on="1"/>
        <pt x="539" y="386" on="1"/>
        <pt x="681" y="386" on="1"/>
        <pt x="681" y="644" on="1"/>
      </contour>
      <contour>
        <pt x="232" y="604" on="1"/>
        <pt x="-20" y="604" on="1"/>
        <pt x="-20" y="644" on="1"/>
        <pt x="232" y="644" on="1"/>
      </contour>
      <contour>
        <pt x="241" y="116" on="0"/>
        <pt x="285" y="153" on="0"/>
        <pt x="285" y="191" on="1"/>
        <pt x="285" y="202" on="1"/>
        <pt x="95" y="346" on="1"/>
        <pt x="95" y="191" on="1"/>
        <pt x="95" y="154" on="0"/>
        <pt x="137" y="116" on="0"/>
        <pt x="190" y="116" on="1"/>
      </contour>
      <contour>
        <pt x="494" y="346" on="1"/>
        <pt x="412" y="346" on="1"/>
        <pt x="363" y="346" on="0"/>
        <pt x="330" y="313" on="0"/>
        <pt x="330" y="276" on="1"/>
        <pt x="330" y="175" on="1"/>
        <pt x="330" y="139" on="0"/>
        <pt x="363" y="105" on="0"/>
        <pt x="412" y="105" on="1"/>
        <pt x="461" y="105" on="0"/>
        <pt x="494" y="138" on="0"/>
        <pt x="494" y="175" on="1"/>
      </contour>
    </TTGlyph>
    <TTGlyph name="dvB_BH_RA" xMin="-20" yMin="-44" xMax="829" yMax="649">
      <contour>
        <pt x="829" y="644" on="1"/>
        <pt x="829" y="604" on="1"/>
        <pt x="729" y="604" on="1"/>
        <pt x="729" y="0" on="1"/>
        <pt x="684" y="0" on="1"/>
        <pt x="684" y="36" on="1"/>
        <pt x="684" y="89" on="0"/>
        <pt x="686" y="168" on="0"/>
        <pt x="687" y="178" on="1"/>
        <pt x="677" y="163" on="0"/>
        <pt x="592" y="73" on="1"/>
        <pt x="481" y="-44" on="1"/>
        <pt x="418" y="-44" on="1"/>
        <pt x="684" y="233" on="1"/>
        <pt x="684" y="376" on="1"/>
        <pt x="539" y="376" on="1"/>
        <pt x="539" y="245" on="1"/>
        <pt x="539" y="188" on="0"/>
        <pt x="479" y="133" on="0"/>
        <pt x="412" y="133" on="1"/>
        <pt x="355" y="133" on="0"/>
        <pt x="326" y="153" on="1"/>
        <pt x="306" y="74" on="0"/>
        <pt x="190" y="74" on="1"/>
        <pt x="120" y="74" on="0"/>
        <pt x="50" y="134" on="0"/>
        <pt x="50" y="191" on="1"/>
        <pt x="50" y="388" on="1"/>
        <pt x="50" y="445" on="0"/>
        <pt x="120" y="505" on="0"/>
        <pt x="190" y="505" on="1"/>
        <pt x="206" y="505" on="0"/>
        <pt x="233" y="501" on="0"/>
        <pt x="237" y="500" on="1"/>
        <pt x="237" y="458" on="1"/>
        <pt x="233" y="459" on="0"/>
        <pt x="206" y="463" on="0"/>
        <pt x="190" y="463" on="1"/>
        <pt x="139" y="463" on="0"/>
        <pt x="97" y="427" on="0"/>
        <pt x="95" y="393" on="1"/>
        <pt x="285" y="248" on="1"/>
        <pt x="285" y="306" on="1"/>
        <pt x="285" y="363" on="0"/>
        <pt x="345" y="416" on="0"/>
        <pt x="412" y="416" on="1"/>
        <pt x="494" y="416" on="1"/>
        <pt x="494" y="532" on="1"/>
        <pt x="494" y="570" on="0"/>
        <pt x="461" y="607" on="0"/>
        <pt x="415" y="607" on="1"/>
        <pt x="369" y="607" on="0"/>
        <pt x="336" y="569" on="0"/>
        <pt x="336" y="532" on="1"/>
        <pt x="336" y="510" on="0"/>
        <pt x="339" y="480" on="0"/>
        <pt x="340" y="476" on="1"/>
        <pt x="295" y="476" on="1"/>
        <pt x="294" y="481" on="0"/>
        <pt x="291" y="513" on="0"/>
        <pt x="291" y="532" on="1"/>
        <pt x="291" y="649" on="0"/>
        <pt x="415" y="649" on="1"/>
        <pt x="539" y="649" on="0"/>
        <pt x="539" y="532" on="1"/>
        <pt x="539" y="416" on="1"/>
        <pt x="684" y="416" on="1"/>
        <pt x="684" y="644" on="1"/>
      </contour>
      <contour>
        <pt x="238" y="604" on="1"/>
        <pt x="-20" y="604" on="1"/>
        <pt x="-20" y="644" on="1"/>
        <pt x="238" y="644" on="1"/>
      </contour>
      <contour>
        <pt x="494" y="376" on="1"/>
        <pt x="412" y="376" on="1"/>
        <pt x="363" y="376" on="0"/>
        <pt x="330" y="343" on="0"/>
        <pt x="330" y="306" on="1"/>
        <pt x="330" y="245" on="1"/>
        <pt x="330" y="209" on="0"/>
        <pt x="363" y="175" on="0"/>
        <pt x="412" y="175" on="1"/>
        <pt x="461" y="175" on="0"/>
        <pt x="494" y="208" on="0"/>
        <pt x="494" y="245" on="1"/>
      </contour>
      <contour>
        <pt x="241" y="116" on="0"/>
        <pt x="285" y="153" on="0"/>
        <pt x="285" y="191" on="1"/>
        <pt x="285" y="202" on="1"/>
        <pt x="95" y="346" on="1"/>
        <pt x="95" y="191" on="1"/>
        <pt x="95" y="154" on="0"/>
        <pt x="137" y="116" on="0"/>
        <pt x="190" y="116" on="1"/>
      </contour>
    </TTGlyph>
    <TTGlyph name="dvB_DA" xMin="-20" yMin="-10" xMax="655" yMax="644">
      <contour>
        <pt x="330" y="203" on="1"/>
        <pt x="330" y="163" on="0"/>
        <pt x="383" y="119" on="0"/>
        <pt x="437" y="119" on="1"/>
        <pt x="466" y="119" on="0"/>
        <pt x="505" y="123" on="0"/>
        <pt x="530" y="129" on="1"/>
        <pt x="530" y="228" on="1"/>
        <pt x="572" y="228" on="1"/>
        <pt x="572" y="-10" on="1"/>
        <pt x="530" y="-10" on="1"/>
        <pt x="530" y="87" on="1"/>
        <pt x="489" y="77" on="0"/>
        <pt x="437" y="77" on="1"/>
        <pt x="353" y="77" on="0"/>
        <pt x="313" y="122" on="1"/>
        <pt x="282" y="74" on="0"/>
        <pt x="190" y="74" on="1"/>
        <pt x="120" y="74" on="0"/>
        <pt x="50" y="134" on="0"/>
        <pt x="50" y="191" on="1"/>
        <pt x="50" y="388" on="1"/>
        <pt x="50" y="445" on="0"/>
        <pt x="120" y="505" on="0"/>
        <pt x="190" y="505" on="1"/>
        <pt x="206" y="505" on="0"/>
        <pt x="233" y="501" on="0"/>
        <pt x="237" y="500" on="1"/>
        <pt x="237" y="458" on="1"/>
        <pt x="233" y="459" on="0"/>
        <pt x="206" y="463" on="0"/>
        <pt x="190" y="463" on="1"/>
        <pt x="139" y="463" on="0"/>
        <pt x="97" y="427" on="0"/>
        <pt x="95" y="393" on="1"/>
        <pt x="285" y="248" on="1"/>
        <pt x="285" y="387" on="1"/>
        <pt x="285" y="444" on="0"/>
        <pt x="355" y="504" on="0"/>
        <pt x="425" y="504" on="1"/>
        <pt x="510" y="504" on="1"/>
        <pt x="510" y="604" on="1"/>
        <pt x="-20" y="604" on="1"/>
        <pt x="-20" y="644" on="1"/>
        <pt x="655" y="644" on="1"/>
        <pt x="655" y="604" on="1"/>
        <pt x="555" y="604" on="1"/>
        <pt x="555" y="462" on="1"/>
        <pt x="425" y="462" on="1"/>
        <pt x="372" y="462" on="0"/>
        <pt x="330" y="424" on="0"/>
        <pt x="330" y="387" on="1"/>
      </contour>
      <contour>
        <pt x="241" y="116" on="0"/>
        <pt x="285" y="153" on="0"/>
        <pt x="285" y="191" on="1"/>
        <pt x="285" y="202" on="1"/>
        <pt x="95" y="346" on="1"/>
        <pt x="95" y="191" on="1"/>
        <pt x="95" y="154" on="0"/>
        <pt x="137" y="116" on="0"/>
        <pt x="190" y="116" on="1"/>
      </contour>
    </TTGlyph>
    <TTGlyph name="dvB_DHA" xMin="-20" yMin="0" xMax="724" yMax="644">
      <contour>
        <pt x="724" y="644" on="1"/>
        <pt x="724" y="604" on="1"/>
        <pt x="624" y="604" on="1"/>
        <pt x="624" y="0" on="1"/>
        <pt x="579" y="0" on="1"/>
        <pt x="579" y="79" on="1"/>
        <pt x="527" y="64" on="0"/>
        <pt x="462" y="64" on="1"/>
        <pt x="356" y="64" on="0"/>
        <pt x="311" y="120" on="1"/>
        <pt x="280" y="74" on="0"/>
        <pt x="190" y="74" on="1"/>
        <pt x="120" y="74" on="0"/>
        <pt x="50" y="134" on="0"/>
        <pt x="50" y="191" on="1"/>
        <pt x="50" y="388" on="1"/>
        <pt x="50" y="445" on="0"/>
        <pt x="120" y="505" on="0"/>
        <pt x="190" y="505" on="1"/>
        <pt x="206" y="505" on="0"/>
        <pt x="233" y="501" on="0"/>
        <pt x="237" y="500" on="1"/>
        <pt x="237" y="458" on="1"/>
        <pt x="233" y="459" on="0"/>
        <pt x="206" y="463" on="0"/>
        <pt x="190" y="463" on="1"/>
        <pt x="139" y="463" on="0"/>
        <pt x="97" y="427" on="0"/>
        <pt x="95" y="393" on="1"/>
        <pt x="285" y="248" on="1"/>
        <pt x="285" y="264" on="1"/>
        <pt x="285" y="343" on="0"/>
        <pt x="349" y="359" on="1"/>
        <pt x="316" y="370" on="0"/>
        <pt x="291" y="418" on="0"/>
        <pt x="291" y="456" on="1"/>
        <pt x="291" y="529" on="1"/>
        <pt x="291" y="551" on="0"/>
        <pt x="295" y="585" on="0"/>
        <pt x="299" y="602" on="0"/>
        <pt x="300" y="604" on="1"/>
        <pt x="-20" y="604" on="1"/>
        <pt x="-20" y="644" on="1"/>
        <pt x="454" y="644" on="1"/>
        <pt x="454" y="604" on="1"/>
        <pt x="345" y="604" on="1"/>
        <pt x="344" y="602" on="0"/>
        <pt x="340" y="584" on="0"/>
        <pt x="336" y="550" on="0"/>
        <pt x="336" y="529" on="1"/>
        <pt x="336" y="456" on="1"/>
        <pt x="336" y="419" on="0"/>
        <pt x="374" y="382" on="0"/>
        <pt x="427" y="381" on="1"/>
        <pt x="460" y="381" on="1"/>
        <pt x="460" y="339" on="1"/>
        <pt x="427" y="339" on="1"/>
        <pt x="373" y="339" on="0"/>
        <pt x="330" y="301" on="0"/>
        <pt x="330" y="264" on="1"/>
        <pt x="330" y="206" on="1"/>
        <pt x="330" y="152" on="0"/>
        <pt x="397" y="106" on="0"/>
        <pt x="462" y="106" on="1"/>
        <pt x="527" y="106" on="0"/>
        <pt x="579" y="121" on="1"/>
        <pt x="579" y="644" on="1"/>
      </contour>
      <contour>
        <pt x="241" y="116" on="0"/>
        <pt x="285" y="153" on="0"/>
        <pt x="285" y="191" on="1"/>
        <pt x="285" y="202" on="1"/>
        <pt x="95" y="346" on="1"/>
        <pt x="95" y="191" on="1"/>
        <pt x="95" y="154" on="0"/>
        <pt x="137" y="116" on="0"/>
        <pt x="190" y="116" on="1"/>
      </contour>
    </TTGlyph>
    <TTGlyph name="dvB_DH_VA" xMin="-20" yMin="0" xMax="953" yMax="644">
      <contour>
        <pt x="953" y="644" on="1"/>
        <pt x="953" y="604" on="1"/>
        <pt x="853" y="604" on="1"/>
        <pt x="853" y="0" on="1"/>
        <pt x="808" y="0" on="1"/>
        <pt x="808" y="88" on="1"/>
        <pt x="799" y="84" on="0"/>
        <pt x="741" y="74" on="0"/>
        <pt x="709" y="74" on="1"/>
        <pt x="635" y="74" on="0"/>
        <pt x="597" y="109" on="1"/>
        <pt x="566" y="101" on="0"/>
        <pt x="491" y="90" on="0"/>
        <pt x="462" y="90" on="1"/>
        <pt x="366" y="90" on="0"/>
        <pt x="320" y="136" on="1"/>
        <pt x="294" y="74" on="0"/>
        <pt x="190" y="74" on="1"/>
        <pt x="120" y="74" on="0"/>
        <pt x="50" y="134" on="0"/>
        <pt x="50" y="191" on="1"/>
        <pt x="50" y="388" on="1"/>
        <pt x="50" y="445" on="0"/>
        <pt x="120" y="505" on="0"/>
        <pt x="190" y="505" on="1"/>
        <pt x="206" y="505" on="0"/>
        <pt x="233" y="501" on="0"/>
        <pt x="237" y="500" on="1"/>
        <pt x="237" y="458" on="1"/>
        <pt x="233" y="459" on="0"/>
        <pt x="206" y="463" on="0"/>
        <pt x="190" y="463" on="1"/>
        <pt x="139" y="463" on="0"/>
        <pt x="97" y="427" on="0"/>
        <pt x="95" y="393" on="1"/>
        <pt x="285" y="248" on="1"/>
        <pt x="285" y="284" on="1"/>
        <pt x="285" y="363" on="0"/>
        <pt x="349" y="379" on="1"/>
        <pt x="316" y="390" on="0"/>
        <pt x="291" y="438" on="0"/>
        <pt x="291" y="476" on="1"/>
        <pt x="291" y="529" on="1"/>
        <pt x="291" y="551" on="0"/>
        <pt x="295" y="585" on="0"/>
        <pt x="299" y="602" on="0"/>
        <pt x="300" y="604" on="1"/>
        <pt x="-20" y="604" on="1"/>
        <pt x="-20" y="644" on="1"/>
        <pt x="424" y="644" on="1"/>
        <pt x="424" y="604" on="1"/>
        <pt x="345" y="604" on="1"/>
        <pt x="344" y="602" on="0"/>
        <pt x="340" y="584" on="0"/>
        <pt x="336" y="550" on="0"/>
        <pt x="336" y="529" on="1"/>
        <pt x="336" y="476" on="1"/>
        <pt x="336" y="439" on="0"/>
        <pt x="374" y="402" on="0"/>
        <pt x="427" y="401" on="1"/>
        <pt x="460" y="401" on="1"/>
        <pt x="460" y="359" on="1"/>
        <pt x="427" y="359" on="1"/>
        <pt x="373" y="359" on="0"/>
        <pt x="330" y="321" on="0"/>
        <pt x="330" y="284" on="1"/>
        <pt x="330" y="232" on="1"/>
        <pt x="330" y="178" on="0"/>
        <pt x="397" y="132" on="0"/>
        <pt x="462" y="132" on="1"/>
        <pt x="506" y="132" on="0"/>
        <pt x="573" y="145" on="1"/>
        <pt x="563" y="168" on="0"/>
        <pt x="563" y="199" on="1"/>
        <pt x="563" y="381" on="1"/>
        <pt x="563" y="438" on="0"/>
        <pt x="639" y="505" on="0"/>
        <pt x="709" y="505" on="1"/>
        <pt x="741" y="505" on="0"/>
        <pt x="799" y="495" on="0"/>
        <pt x="808" y="491" on="1"/>
        <pt x="808" y="604" on="1"/>
        <pt x="547" y="604" on="1"/>
        <pt x="547" y="644" on="1"/>
      </contour>
      <contour>
        <pt x="808" y="449" on="1"/>
        <pt x="799" y="453" on="0"/>
        <pt x="741" y="463" on="0"/>
        <pt x="709" y="463" on="1"/>
        <pt x="656" y="463" on="0"/>
        <pt x="608" y="417" on="0"/>
        <pt x="608" y="380" on="1"/>
        <pt x="608" y="199" on="1"/>
        <pt x="608" y="116" on="0"/>
        <pt x="709" y="116" on="1"/>
        <pt x="741" y="116" on="0"/>
        <pt x="799" y="126" on="0"/>
        <pt x="808" y="130" on="1"/>
      </contour>
      <contour>
        <pt x="241" y="116" on="0"/>
        <pt x="285" y="153" on="0"/>
        <pt x="285" y="191" on="1"/>
        <pt x="285" y="202" on="1"/>
        <pt x="95" y="346" on="1"/>
        <pt x="95" y="191" on="1"/>
        <pt x="95" y="154" on="0"/>
        <pt x="137" y="116" on="0"/>
        <pt x="190" y="116" on="1"/>
      </contour>
    </TTGlyph>
    <TTGlyph name="dvB_JA" xMin="-20" yMin="0" xMax="860" yMax="644">
      <contour>
        <pt x="860" y="604" on="1"/>
        <pt x="760" y="604" on="1"/>
        <pt x="760" y="0" on="1"/>
        <pt x="715" y="0" on="1"/>
        <pt x="715" y="455" on="1"/>
        <pt x="557" y="455" on="1"/>
        <pt x="558" y="453" on="0"/>
        <pt x="561" y="436" on="0"/>
        <pt x="565" y="402" on="0"/>
        <pt x="565" y="380" on="1"/>
        <pt x="565" y="192" on="1"/>
        <pt x="565" y="132" on="0"/>
        <pt x="492" y="66" on="0"/>
        <pt x="422" y="66" on="1"/>
        <pt x="394" y="66" on="0"/>
        <pt x="309" y="82" on="0"/>
        <pt x="276" y="90" on="1"/>
        <pt x="242" y="74" on="0"/>
        <pt x="190" y="74" on="1"/>
        <pt x="120" y="74" on="0"/>
        <pt x="50" y="134" on="0"/>
        <pt x="50" y="191" on="1"/>
        <pt x="50" y="388" on="1"/>
        <pt x="50" y="445" on="0"/>
        <pt x="120" y="505" on="0"/>
        <pt x="190" y="505" on="1"/>
        <pt x="263" y="505" on="0"/>
        <pt x="330" y="446" on="0"/>
        <pt x="330" y="388" on="1"/>
        <pt x="330" y="191" on="1"/>
        <pt x="330" y="150" on="0"/>
        <pt x="314" y="124" on="1"/>
        <pt x="386" y="108" on="0"/>
        <pt x="422" y="108" on="1"/>
        <pt x="520" y="108" on="0"/>
        <pt x="520" y="192" on="1"/>
        <pt x="520" y="380" on="1"/>
        <pt x="520" y="409" on="0"/>
        <pt x="513" y="450" on="0"/>
        <pt x="512" y="455" on="1"/>
        <pt x="399" y="455" on="1"/>
        <pt x="399" y="495" on="1"/>
        <pt x="715" y="495" on="1"/>
        <pt x="715" y="604" on="1"/>
        <pt x="-20" y="604" on="1"/>
        <pt x="-20" y="644" on="1"/>
        <pt x="860" y="644" on="1"/>
      </contour>
      <contour>
        <pt x="128" y="463" on="0"/>
        <pt x="106" y="429" on="1"/>
        <pt x="285" y="203" on="1"/>
        <pt x="285" y="387" on="1"/>
        <pt x="285" y="463" on="0"/>
        <pt x="190" y="463" on="1"/>
      </contour>
      <contour>
        <pt x="226" y="116" on="0"/>
        <pt x="268" y="134" on="0"/>
        <pt x="277" y="152" on="1"/>
        <pt x="95" y="382" on="1"/>
        <pt x="95" y="191" on="1"/>
        <pt x="95" y="154" on="0"/>
        <pt x="137" y="116" on="0"/>
        <pt x="190" y="116" on="1"/>
      </contour>
    </TTGlyph>
    <TTGlyph name="dvB_JHA" xMin="-20" yMin="-55" xMax="928" yMax="644">
      <contour>
        <pt x="928" y="604" on="1"/>
        <pt x="828" y="604" on="1"/>
        <pt x="828" y="0" on="1"/>
        <pt x="783" y="0" on="1"/>
        <pt x="783" y="268" on="1"/>
        <pt x="619" y="268" on="1"/>
        <pt x="652" y="247" on="0"/>
        <pt x="652" y="193" on="1"/>
        <pt x="652" y="143" on="1"/>
        <pt x="652" y="85" on="0"/>
        <pt x="583" y="25" on="0"/>
        <pt x="506" y="25" on="1"/>
        <pt x="456" y="25" on="0"/>
        <pt x="417" y="35" on="1"/>
        <pt x="417" y="-55" on="1"/>
        <pt x="375" y="-55" on="1"/>
        <pt x="375" y="154" on="1"/>
        <pt x="417" y="154" on="1"/>
        <pt x="417" y="78" on="1"/>
        <pt x="456" y="67" on="0"/>
        <pt x="506" y="67" on="1"/>
        <pt x="607" y="67" on="0"/>
        <pt x="607" y="143" on="1"/>
        <pt x="607" y="193" on="1"/>
        <pt x="607" y="229" on="0"/>
        <pt x="566" y="267" on="0"/>
        <pt x="515" y="267" on="1"/>
        <pt x="511" y="267" on="1"/>
        <pt x="504" y="267" on="1"/>
        <pt x="330" y="267" on="1"/>
        <pt x="330" y="191" on="1"/>
        <pt x="330" y="133" on="0"/>
        <pt x="263" y="74" on="0"/>
        <pt x="190" y="74" on="1"/>
        <pt x="120" y="74" on="0"/>
        <pt x="50" y="134" on="0"/>
        <pt x="50" y="191" on="1"/>
        <pt x="50" y="388" on="1"/>
        <pt x="50" y="445" on="0"/>
        <pt x="120" y="505" on="0"/>
        <pt x="190" y="505" on="1"/>
        <pt x="208" y="505" on="0"/>
        <pt x="242" y="501" on="0"/>
        <pt x="247" y="500" on="1"/>
        <pt x="247" y="458" on="1"/>
        <pt x="242" y="459" on="0"/>
        <pt x="209" y="463" on="0"/>
        <pt x="190" y="463" on="1"/>
        <pt x="139" y="463" on="0"/>
        <pt x="97" y="427" on="0"/>
        <pt x="95" y="393" on="1"/>
        <pt x="285" y="248" on="1"/>
        <pt x="285" y="309" on="1"/>
        <pt x="394" y="309" on="1"/>
        <pt x="372" y="337" on="0"/>
        <pt x="372" y="383" on="1"/>
        <pt x="372" y="390" on="1"/>
        <pt x="372" y="505" on="0"/>
        <pt x="512" y="505" on="1"/>
        <pt x="600" y="505" on="1"/>
        <pt x="600" y="604" on="1"/>
        <pt x="-20" y="604" on="1"/>
        <pt x="-20" y="644" on="1"/>
        <pt x="928" y="644" on="1"/>
      </contour>
      <contour>
        <pt x="783" y="604" on="1"/>
        <pt x="645" y="604" on="1"/>
        <pt x="645" y="463" on="1"/>
        <pt x="512" y="463" on="1"/>
        <pt x="459" y="463" on="0"/>
        <pt x="417" y="426" on="0"/>
        <pt x="417" y="390" on="1"/>
        <pt x="417" y="383" on="1"/>
        <pt x="417" y="347" on="0"/>
        <pt x="457" y="310" on="0"/>
        <pt x="509" y="309" on="1"/>
        <pt x="783" y="309" on="1"/>
      </contour>
      <contour>
        <pt x="241" y="116" on="0"/>
        <pt x="285" y="153" on="0"/>
        <pt x="285" y="191" on="1"/>
        <pt x="285" y="202" on="1"/>
        <pt x="95" y="346" on="1"/>
        <pt x="95" y="191" on="1"/>
        <pt x="95" y="154" on="0"/>
        <pt x="137" y="116" on="0"/>
        <pt x="190" y="116" on="1"/>
      </contour>
    </TTGlyph>
    <TTGlyph name="dvB_J_YA" xMin="-20" yMin="0" xMax="1136" yMax="644">
      <contour>
        <pt x="1136" y="604" on="1"/>
        <pt x="1036" y="604" on="1"/>
        <pt x="1036" y="0" on="1"/>
        <pt x="991" y="0" on="1"/>
        <pt x="991" y="97" on="1"/>
        <pt x="933" y="85" on="0"/>
        <pt x="873" y="85" on="1"/>
        <pt x="789" y="85" on="0"/>
        <pt x="685" y="158" on="0"/>
        <pt x="685" y="253" on="1"/>
        <pt x="685" y="400" on="1"/>
        <pt x="685" y="435" on="0"/>
        <pt x="649" y="455" on="0"/>
        <pt x="602" y="455" on="1"/>
        <pt x="557" y="455" on="1"/>
        <pt x="558" y="453" on="0"/>
        <pt x="561" y="436" on="0"/>
        <pt x="565" y="402" on="0"/>
        <pt x="565" y="380" on="1"/>
        <pt x="565" y="192" on="1"/>
        <pt x="565" y="132" on="0"/>
        <pt x="492" y="66" on="0"/>
        <pt x="422" y="66" on="1"/>
        <pt x="394" y="66" on="0"/>
        <pt x="309" y="82" on="0"/>
        <pt x="276" y="90" on="1"/>
        <pt x="242" y="74" on="0"/>
        <pt x="190" y="74" on="1"/>
        <pt x="120" y="74" on="0"/>
        <pt x="50" y="134" on="0"/>
        <pt x="50" y="191" on="1"/>
        <pt x="50" y="388" on="1"/>
        <pt x="50" y="445" on="0"/>
        <pt x="120" y="505" on="0"/>
        <pt x="190" y="505" on="1"/>
        <pt x="263" y="505" on="0"/>
        <pt x="330" y="446" on="0"/>
        <pt x="330" y="388" on="1"/>
        <pt x="330" y="191" on="1"/>
        <pt x="330" y="150" on="0"/>
        <pt x="314" y="124" on="1"/>
        <pt x="386" y="108" on="0"/>
        <pt x="422" y="108" on="1"/>
        <pt x="520" y="108" on="0"/>
        <pt x="520" y="192" on="1"/>
        <pt x="520" y="380" on="1"/>
        <pt x="520" y="409" on="0"/>
        <pt x="513" y="450" on="0"/>
        <pt x="512" y="455" on="1"/>
        <pt x="399" y="455" on="1"/>
        <pt x="399" y="495" on="1"/>
        <pt x="616" y="495" on="1"/>
        <pt x="669" y="495" on="0"/>
        <pt x="725" y="455" on="0"/>
        <pt x="727" y="402" on="1"/>
        <pt x="779" y="404" on="0"/>
        <pt x="819" y="436" on="0"/>
        <pt x="819" y="477" on="1"/>
        <pt x="819" y="529" on="1"/>
        <pt x="819" y="558" on="0"/>
        <pt x="812" y="599" on="0"/>
        <pt x="811" y="604" on="1"/>
        <pt x="-20" y="604" on="1"/>
        <pt x="-20" y="644" on="1"/>
        <pt x="1136" y="644" on="1"/>
      </contour>
      <contour>
        <pt x="991" y="604" on="1"/>
        <pt x="856" y="604" on="1"/>
        <pt x="857" y="602" on="0"/>
        <pt x="860" y="585" on="0"/>
        <pt x="864" y="551" on="0"/>
        <pt x="864" y="529" on="1"/>
        <pt x="864" y="477" on="1"/>
        <pt x="864" y="360" on="0"/>
        <pt x="730" y="360" on="1"/>
        <pt x="730" y="253" on="1"/>
        <pt x="730" y="188" on="0"/>
        <pt x="798" y="127" on="0"/>
        <pt x="873" y="127" on="1"/>
        <pt x="929" y="127" on="0"/>
        <pt x="991" y="139" on="1"/>
      </contour>
      <contour>
        <pt x="128" y="463" on="0"/>
        <pt x="106" y="429" on="1"/>
        <pt x="285" y="203" on="1"/>
        <pt x="285" y="387" on="1"/>
        <pt x="285" y="463" on="0"/>
        <pt x="190" y="463" on="1"/>
      </contour>
      <contour>
        <pt x="226" y="116" on="0"/>
        <pt x="268" y="134" on="0"/>
        <pt x="277" y="152" on="1"/>
        <pt x="95" y="382" on="1"/>
        <pt x="95" y="191" on="1"/>
        <pt x="95" y="154" on="0"/>
        <pt x="137" y="116" on="0"/>
        <pt x="190" y="116" on="1"/>
      </contour>
    </TTGlyph>
    <TTGlyph name="dvB_JxA" xMin="-20" yMin="-56" xMax="860" yMax="644">
      <contour>
        <pt x="860" y="604" on="1"/>
        <pt x="760" y="604" on="1"/>
        <pt x="760" y="0" on="1"/>
        <pt x="715" y="0" on="1"/>
        <pt x="715" y="455" on="1"/>
        <pt x="557" y="455" on="1"/>
        <pt x="558" y="453" on="0"/>
        <pt x="561" y="436" on="0"/>
        <pt x="565" y="402" on="0"/>
        <pt x="565" y="380" on="1"/>
        <pt x="565" y="192" on="1"/>
        <pt x="565" y="132" on="0"/>
        <pt x="492" y="66" on="0"/>
        <pt x="422" y="66" on="1"/>
        <pt x="394" y="66" on="0"/>
        <pt x="309" y="82" on="0"/>
        <pt x="276" y="90" on="1"/>
        <pt x="242" y="74" on="0"/>
        <pt x="190" y="74" on="1"/>
        <pt x="120" y="74" on="0"/>
        <pt x="50" y="134" on="0"/>
        <pt x="50" y="191" on="1"/>
        <pt x="50" y="388" on="1"/>
        <pt x="50" y="445" on="0"/>
        <pt x="120" y="505" on="0"/>
        <pt x="190" y="505" on="1"/>
        <pt x="263" y="505" on="0"/>
        <pt x="330" y="446" on="0"/>
        <pt x="330" y="388" on="1"/>
        <pt x="330" y="191" on="1"/>
        <pt x="330" y="150" on="0"/>
        <pt x="314" y="124" on="1"/>
        <pt x="386" y="108" on="0"/>
        <pt x="422" y="108" on="1"/>
        <pt x="520" y="108" on="0"/>
        <pt x="520" y="192" on="1"/>
        <pt x="520" y="380" on="1"/>
        <pt x="520" y="409" on="0"/>
        <pt x="513" y="450" on="0"/>
        <pt x="512" y="455" on="1"/>
        <pt x="399" y="455" on="1"/>
        <pt x="399" y="495" on="1"/>
        <pt x="715" y="495" on="1"/>
        <pt x="715" y="604" on="1"/>
        <pt x="-20" y="604" on="1"/>
        <pt x="-20" y="644" on="1"/>
        <pt x="860" y="644" on="1"/>
      </contour>
      <contour>
        <pt x="128" y="463" on="0"/>
        <pt x="106" y="429" on="1"/>
        <pt x="285" y="203" on="1"/>
        <pt x="285" y="387" on="1"/>
        <pt x="285" y="463" on="0"/>
        <pt x="190" y="463" on="1"/>
      </contour>
      <contour>
        <pt x="226" y="116" on="0"/>
        <pt x="268" y="134" on="0"/>
        <pt x="277" y="152" on="1"/>
        <pt x="95" y="382" on="1"/>
        <pt x="95" y="191" on="1"/>
        <pt x="95" y="154" on="0"/>
        <pt x="137" y="116" on="0"/>
        <pt x="190" y="116" on="1"/>
      </contour>
      <contour>
        <pt x="329" y="10" on="0"/>
        <pt x="329" y="-23" on="1"/>
        <pt x="329" y="-56" on="0"/>
        <pt x="296" y="-56" on="1"/>
        <pt x="263" y="-56" on="0"/>
        <pt x="263" y="-23" on="1"/>
        <pt x="263" y="10" on="0"/>
        <pt x="296" y="10" on="1"/>
      </contour>
    </TTGlyph>
    <TTGlyph name="dvB_LA" xMin="-20" yMin="0" xMax="860" yMax="644">
      <contour>
        <pt x="860" y="604" on="1"/>
        <pt x="760" y="604" on="1"/>
        <pt x="760" y="0" on="1"/>
        <pt x="715" y="0" on="1"/>
        <pt x="715" y="418" on="1"/>
        <pt x="680" y="434" on="0"/>
        <pt x="635" y="434" on="1"/>
        <pt x="588" y="434" on="0"/>
        <pt x="545" y="392" on="0"/>
        <pt x="545" y="357" on="1"/>
        <pt x="545" y="206" on="1"/>
        <pt x="500" y="206" on="1"/>
        <pt x="500" y="357" on="1"/>
        <pt x="500" y="393" on="0"/>
        <pt x="462" y="434" on="0"/>
        <pt x="415" y="434" on="1"/>
        <pt x="366" y="434" on="0"/>
        <pt x="330" y="392" on="0"/>
        <pt x="330" y="354" on="1"/>
        <pt x="330" y="146" on="1"/>
        <pt x="330" y="95" on="0"/>
        <pt x="377" y="40" on="0"/>
        <pt x="440" y="40" on="1"/>
        <pt x="465" y="40" on="0"/>
        <pt x="497" y="45" on="1"/>
        <pt x="497" y="5" on="1"/>
        <pt x="470" y="0" on="0"/>
        <pt x="440" y="0" on="1"/>
        <pt x="312" y="0" on="0"/>
        <pt x="290" y="98" on="1"/>
        <pt x="257" y="74" on="0"/>
        <pt x="190" y="74" on="1"/>
        <pt x="120" y="74" on="0"/>
        <pt x="50" y="134" on="0"/>
        <pt x="50" y="191" on="1"/>
        <pt x="50" y="388" on="1"/>
        <pt x="50" y="445" on="0"/>
        <pt x="120" y="505" on="0"/>
        <pt x="190" y="505" on="1"/>
        <pt x="206" y="505" on="0"/>
        <pt x="233" y="501" on="0"/>
        <pt x="237" y="500" on="1"/>
        <pt x="237" y="458" on="1"/>
        <pt x="233" y="459" on="0"/>
        <pt x="206" y="463" on="0"/>
        <pt x="190" y="463" on="1"/>
        <pt x="139" y="463" on="0"/>
        <pt x="97" y="427" on="0"/>
        <pt x="95" y="393" on="1"/>
        <pt x="285" y="248" on="1"/>
        <pt x="285" y="354" on="1"/>
        <pt x="285" y="412" on="0"/>
        <pt x="349" y="476" on="0"/>
        <pt x="415" y="476" on="1"/>
        <pt x="490" y="476" on="0"/>
        <pt x="522" y="433" on="1"/>
        <pt x="538" y="453" on="0"/>
        <pt x="596" y="476" on="0"/>
        <pt x="635" y="476" on="1"/>
        <pt x="658" y="476" on="0"/>
        <pt x="694" y="469" on="0"/>
        <pt x="715" y="460" on="1"/>
        <pt x="715" y="604" on="1"/>
        <pt x="-20" y="604" on="1"/>
        <pt x="-20" y="644" on="1"/>
        <pt x="860" y="644" on="1"/>
      </contour>
      <contour>
        <pt x="241" y="116" on="0"/>
        <pt x="285" y="153" on="0"/>
        <pt x="285" y="191" on="1"/>
        <pt x="285" y="202" on="1"/>
        <pt x="95" y="346" on="1"/>
        <pt x="95" y="191" on="1"/>
        <pt x="95" y="154" on="0"/>
        <pt x="137" y="116" on="0"/>
        <pt x="190" y="116" on="1"/>
      </contour>
    </TTGlyph>
    <TTGlyph name="dvB_L_YA" xMin="-20" yMin="0" xMax="1151" yMax="644">
      <contour>
        <pt x="1151" y="604" on="1"/>
        <pt x="1051" y="604" on="1"/>
        <pt x="1051" y="0" on="1"/>
        <pt x="1006" y="0" on="1"/>
        <pt x="1006" y="97" on="1"/>
        <pt x="948" y="85" on="0"/>
        <pt x="888" y="85" on="1"/>
        <pt x="804" y="85" on="0"/>
        <pt x="700" y="158" on="0"/>
        <pt x="700" y="253" on="1"/>
        <pt x="700" y="354" on="1"/>
        <pt x="700" y="395" on="0"/>
        <pt x="669" y="434" on="0"/>
        <pt x="620" y="434" on="1"/>
        <pt x="577" y="434" on="0"/>
        <pt x="545" y="394" on="0"/>
        <pt x="545" y="354" on="1"/>
        <pt x="545" y="206" on="1"/>
        <pt x="500" y="206" on="1"/>
        <pt x="500" y="354" on="1"/>
        <pt x="500" y="392" on="0"/>
        <pt x="464" y="434" on="0"/>
        <pt x="415" y="434" on="1"/>
        <pt x="366" y="434" on="0"/>
        <pt x="330" y="392" on="0"/>
        <pt x="330" y="354" on="1"/>
        <pt x="330" y="146" on="1"/>
        <pt x="330" y="95" on="0"/>
        <pt x="377" y="40" on="0"/>
        <pt x="440" y="40" on="1"/>
        <pt x="499" y="40" on="1"/>
        <pt x="499" y="0" on="1"/>
        <pt x="440" y="0" on="1"/>
        <pt x="312" y="0" on="0"/>
        <pt x="290" y="98" on="1"/>
        <pt x="257" y="74" on="0"/>
        <pt x="190" y="74" on="1"/>
        <pt x="120" y="74" on="0"/>
        <pt x="50" y="134" on="0"/>
        <pt x="50" y="191" on="1"/>
        <pt x="50" y="388" on="1"/>
        <pt x="50" y="445" on="0"/>
        <pt x="120" y="505" on="0"/>
        <pt x="190" y="505" on="1"/>
        <pt x="206" y="505" on="0"/>
        <pt x="233" y="501" on="0"/>
        <pt x="237" y="500" on="1"/>
        <pt x="237" y="458" on="1"/>
        <pt x="233" y="459" on="0"/>
        <pt x="206" y="463" on="0"/>
        <pt x="190" y="463" on="1"/>
        <pt x="139" y="463" on="0"/>
        <pt x="97" y="427" on="0"/>
        <pt x="95" y="393" on="1"/>
        <pt x="285" y="248" on="1"/>
        <pt x="285" y="354" on="1"/>
        <pt x="285" y="412" on="0"/>
        <pt x="349" y="476" on="0"/>
        <pt x="415" y="476" on="1"/>
        <pt x="490" y="476" on="0"/>
        <pt x="522" y="433" on="1"/>
        <pt x="555" y="476" on="0"/>
        <pt x="620" y="476" on="1"/>
        <pt x="729" y="476" on="0"/>
        <pt x="743" y="381" on="1"/>
        <pt x="795" y="383" on="0"/>
        <pt x="834" y="415" on="0"/>
        <pt x="834" y="456" on="1"/>
        <pt x="834" y="529" on="1"/>
        <pt x="834" y="558" on="0"/>
        <pt x="827" y="599" on="0"/>
        <pt x="826" y="604" on="1"/>
        <pt x="-20" y="604" on="1"/>
        <pt x="-20" y="644" on="1"/>
        <pt x="1151" y="644" on="1"/>
      </contour>
      <contour>
        <pt x="1006" y="604" on="1"/>
        <pt x="871" y="604" on="1"/>
        <pt x="872" y="602" on="0"/>
        <pt x="875" y="585" on="0"/>
        <pt x="879" y="551" on="0"/>
        <pt x="879" y="529" on="1"/>
        <pt x="879" y="456" on="1"/>
        <pt x="879" y="339" on="0"/>
        <pt x="745" y="339" on="1"/>
        <pt x="745" y="253" on="1"/>
        <pt x="745" y="188" on="0"/>
        <pt x="813" y="127" on="0"/>
        <pt x="888" y="127" on="1"/>
        <pt x="944" y="127" on="0"/>
        <pt x="1006" y="139" on="1"/>
      </contour>
      <contour>
        <pt x="241" y="116" on="0"/>
        <pt x="285" y="153" on="0"/>
        <pt x="285" y="191" on="1"/>
        <pt x="285" y="202" on="1"/>
        <pt x="95" y="346" on="1"/>
        <pt x="95" y="191" on="1"/>
        <pt x="95" y="154" on="0"/>
        <pt x="137" y="116" on="0"/>
        <pt x="190" y="116" on="1"/>
      </contour>
    </TTGlyph>
    <TTGlyph name="dvB_NA" xMin="-20" yMin="0" xMax="818" yMax="644">
      <contour>
        <pt x="818" y="604" on="1"/>
        <pt x="718" y="604" on="1"/>
        <pt x="718" y="0" on="1"/>
        <pt x="673" y="0" on="1"/>
        <pt x="673" y="436" on="1"/>
        <pt x="518" y="436" on="1"/>
        <pt x="519" y="434" on="0"/>
        <pt x="525" y="417" on="0"/>
        <pt x="531" y="383" on="0"/>
        <pt x="531" y="361" on="1"/>
        <pt x="531" y="175" on="1"/>
        <pt x="531" y="119" on="0"/>
        <pt x="468" y="63" on="0"/>
        <pt x="408" y="63" on="1"/>
        <pt x="331" y="63" on="0"/>
        <pt x="302" y="108" on="1"/>
        <pt x="266" y="74" on="0"/>
        <pt x="190" y="74" on="1"/>
        <pt x="120" y="74" on="0"/>
        <pt x="50" y="134" on="0"/>
        <pt x="50" y="191" on="1"/>
        <pt x="50" y="388" on="1"/>
        <pt x="50" y="445" on="0"/>
        <pt x="120" y="505" on="0"/>
        <pt x="190" y="505" on="1"/>
        <pt x="288" y="505" on="0"/>
        <pt x="317" y="450" on="1"/>
        <pt x="349" y="476" on="0"/>
        <pt x="408" y="476" on="1"/>
        <pt x="673" y="476" on="1"/>
        <pt x="673" y="604" on="1"/>
        <pt x="-20" y="604" on="1"/>
        <pt x="-20" y="644" on="1"/>
        <pt x="818" y="644" on="1"/>
      </contour>
      <contour>
        <pt x="139" y="463" on="0"/>
        <pt x="97" y="427" on="0"/>
        <pt x="95" y="393" on="1"/>
        <pt x="285" y="248" on="1"/>
        <pt x="285" y="388" on="1"/>
        <pt x="285" y="426" on="0"/>
        <pt x="242" y="463" on="0"/>
        <pt x="190" y="463" on="1"/>
      </contour>
      <contour>
        <pt x="486" y="361" on="1"/>
        <pt x="486" y="382" on="0"/>
        <pt x="480" y="415" on="0"/>
        <pt x="474" y="434" on="0"/>
        <pt x="473" y="436" on="1"/>
        <pt x="408" y="436" on="1"/>
        <pt x="365" y="436" on="0"/>
        <pt x="330" y="402" on="0"/>
        <pt x="330" y="366" on="1"/>
        <pt x="330" y="175" on="1"/>
        <pt x="330" y="140" on="0"/>
        <pt x="365" y="105" on="0"/>
        <pt x="408" y="105" on="1"/>
        <pt x="451" y="105" on="0"/>
        <pt x="486" y="139" on="0"/>
        <pt x="486" y="175" on="1"/>
      </contour>
      <contour>
        <pt x="241" y="116" on="0"/>
        <pt x="285" y="153" on="0"/>
        <pt x="285" y="191" on="1"/>
        <pt x="285" y="202" on="1"/>
        <pt x="95" y="346" on="1"/>
        <pt x="95" y="191" on="1"/>
        <pt x="95" y="154" on="0"/>
        <pt x="137" y="116" on="0"/>
        <pt x="190" y="116" on="1"/>
      </contour>
    </TTGlyph>
    <TTGlyph name="dvB_R" xMin="-20" yMin="-63" xMax="355" yMax="644">
      <contour>
        <pt x="355" y="644" on="1"/>
        <pt x="355" y="604" on="1"/>
        <pt x="-20" y="604" on="1"/>
        <pt x="-20" y="644" on="1"/>
      </contour>
      <contour>
        <pt x="268" y="505" on="0"/>
        <pt x="335" y="446" on="0"/>
        <pt x="335" y="388" on="1"/>
        <pt x="335" y="200" on="1"/>
        <pt x="335" y="161" on="0"/>
        <pt x="308" y="117" on="0"/>
        <pt x="269" y="82" on="1"/>
        <pt x="113" y="-63" on="1"/>
        <pt x="48" y="-63" on="1"/>
        <pt x="208" y="83" on="1"/>
        <pt x="55" y="79" on="0"/>
        <pt x="55" y="200" on="1"/>
        <pt x="55" y="388" on="1"/>
        <pt x="55" y="445" on="0"/>
        <pt x="125" y="505" on="0"/>
        <pt x="195" y="505" on="1"/>
      </contour>
      <contour>
        <pt x="144" y="463" on="0"/>
        <pt x="102" y="428" on="0"/>
        <pt x="100" y="394" on="1"/>
        <pt x="290" y="256" on="1"/>
        <pt x="290" y="388" on="1"/>
        <pt x="290" y="426" on="0"/>
        <pt x="247" y="463" on="0"/>
        <pt x="195" y="463" on="1"/>
      </contour>
      <contour>
        <pt x="246" y="125" on="0"/>
        <pt x="290" y="162" on="0"/>
        <pt x="290" y="200" on="1"/>
        <pt x="290" y="210" on="1"/>
        <pt x="100" y="348" on="1"/>
        <pt x="100" y="200" on="1"/>
        <pt x="100" y="163" on="0"/>
        <pt x="142" y="125" on="0"/>
        <pt x="195" y="125" on="1"/>
      </contour>
    </TTGlyph>
    <TTGlyph name="dvB_RA" xMin="-20" yMin="-56" xMax="432" yMax="644">
      <contour>
        <pt x="432" y="644" on="1"/>
        <pt x="432" y="604" on="1"/>
        <pt x="332" y="604" on="1"/>
        <pt x="332" y="0" on="1"/>
        <pt x="290" y="0" on="1"/>
        <pt x="290" y="114" on="1"/>
        <pt x="289" y="114" on="1"/>
        <pt x="107" y="-56" on="1"/>
        <pt x="42" y="-56" on="1"/>
        <pt x="213" y="100" on="1"/>
        <pt x="201" y="100" on="1"/>
        <pt x="131" y="100" on="0"/>
        <pt x="55" y="164" on="0"/>
        <pt x="55" y="221" on="1"/>
        <pt x="55" y="385" on="1"/>
        <pt x="55" y="441" on="0"/>
        <pt x="131" y="505" on="0"/>
        <pt x="201" y="505" on="1"/>
        <pt x="233" y="505" on="0"/>
        <pt x="279" y="496" on="0"/>
        <pt x="290" y="491" on="1"/>
        <pt x="290" y="604" on="1"/>
        <pt x="-20" y="604" on="1"/>
        <pt x="-20" y="644" on="1"/>
      </contour>
      <contour>
        <pt x="107" y="463" on="0"/>
        <pt x="100" y="393" on="1"/>
        <pt x="290" y="248" on="1"/>
        <pt x="290" y="449" on="1"/>
        <pt x="279" y="454" on="0"/>
        <pt x="233" y="463" on="0"/>
        <pt x="201" y="463" on="1"/>
      </contour>
      <contour>
        <pt x="100" y="142" on="0"/>
        <pt x="201" y="142" on="1"/>
        <pt x="233" y="142" on="0"/>
        <pt x="279" y="151" on="0"/>
        <pt x="290" y="156" on="1"/>
        <pt x="290" y="202" on="1"/>
        <pt x="100" y="346" on="1"/>
        <pt x="100" y="221" on="1"/>
      </contour>
    </TTGlyph>
    <TTGlyph name="dvB_SA" xMin="-20" yMin="-5" xMax="830" yMax="644">
      <contour>
        <pt x="830" y="604" on="1"/>
        <pt x="730" y="604" on="1"/>
        <pt x="730" y="0" on="1"/>
        <pt x="685" y="0" on="1"/>
        <pt x="685" y="297" on="1"/>
        <pt x="514" y="297" on="1"/>
        <pt x="478" y="261" on="0"/>
        <pt x="405" y="261" on="1"/>
        <pt x="368" y="261" on="0"/>
        <pt x="330" y="271" on="1"/>
        <pt x="330" y="133" on="1"/>
        <pt x="330" y="83" on="0"/>
        <pt x="389" y="37" on="0"/>
        <pt x="447" y="37" on="1"/>
        <pt x="483" y="37" on="0"/>
        <pt x="531" y="44" on="0"/>
        <pt x="565" y="52" on="0"/>
        <pt x="570" y="53" on="1"/>
        <pt x="570" y="11" on="1"/>
        <pt x="511" y="-5" on="0"/>
        <pt x="447" y="-5" on="1"/>
        <pt x="383" y="-5" on="0"/>
        <pt x="299" y="46" on="0"/>
        <pt x="288" y="97" on="1"/>
        <pt x="254" y="74" on="0"/>
        <pt x="190" y="74" on="1"/>
        <pt x="120" y="74" on="0"/>
        <pt x="50" y="134" on="0"/>
        <pt x="50" y="191" on="1"/>
        <pt x="50" y="388" on="1"/>
        <pt x="50" y="445" on="0"/>
        <pt x="120" y="505" on="0"/>
        <pt x="190" y="505" on="1"/>
        <pt x="202" y="505" on="0"/>
        <pt x="220" y="503" on="0"/>
        <pt x="223" y="502" on="1"/>
        <pt x="223" y="460" on="1"/>
        <pt x="220" y="461" on="0"/>
        <pt x="202" y="463" on="0"/>
        <pt x="190" y="463" on="1"/>
        <pt x="139" y="463" on="0"/>
        <pt x="97" y="427" on="0"/>
        <pt x="95" y="393" on="1"/>
        <pt x="285" y="248" on="1"/>
        <pt x="285" y="450" on="1"/>
        <pt x="330" y="450" on="1"/>
        <pt x="330" y="313" on="1"/>
        <pt x="374" y="303" on="0"/>
        <pt x="405" y="303" on="1"/>
        <pt x="458" y="303" on="0"/>
        <pt x="500" y="346" on="0"/>
        <pt x="500" y="383" on="1"/>
        <pt x="500" y="529" on="1"/>
        <pt x="500" y="558" on="0"/>
        <pt x="493" y="599" on="0"/>
        <pt x="492" y="604" on="1"/>
        <pt x="-20" y="604" on="1"/>
        <pt x="-20" y="644" on="1"/>
        <pt x="830" y="644" on="1"/>
      </contour>
      <contour>
        <pt x="685" y="604" on="1"/>
        <pt x="537" y="604" on="1"/>
        <pt x="538" y="602" on="0"/>
        <pt x="541" y="585" on="0"/>
        <pt x="545" y="551" on="0"/>
        <pt x="545" y="529" on="1"/>
        <pt x="545" y="383" on="1"/>
        <pt x="545" y="357" on="0"/>
        <pt x="538" y="337" on="1"/>
        <pt x="685" y="337" on="1"/>
      </contour>
      <contour>
        <pt x="241" y="116" on="0"/>
        <pt x="285" y="153" on="0"/>
        <pt x="285" y="191" on="1"/>
        <pt x="285" y="202" on="1"/>
        <pt x="95" y="346" on="1"/>
        <pt x="95" y="191" on="1"/>
        <pt x="95" y="154" on="0"/>
        <pt x="137" y="116" on="0"/>
        <pt x="190" y="116" on="1"/>
      </contour>
    </TTGlyph>
    <TTGlyph name="dvB_SHA" xMin="-20" yMin="-5" xMax="822" yMax="649">
      <contour>
        <pt x="495" y="649" on="0"/>
        <pt x="565" y="585" on="0"/>
        <pt x="565" y="527" on="1"/>
        <pt x="565" y="382" on="1"/>
        <pt x="565" y="324" on="0"/>
        <pt x="495" y="260" on="0"/>
        <pt x="425" y="260" on="1"/>
        <pt x="375" y="260" on="0"/>
        <pt x="330" y="276" on="1"/>
        <pt x="330" y="133" on="1"/>
        <pt x="330" y="86" on="0"/>
        <pt x="395" y="37" on="0"/>
        <pt x="452" y="37" on="1"/>
        <pt x="503" y="37" on="0"/>
        <pt x="565" y="53" on="1"/>
        <pt x="565" y="11" on="1"/>
        <pt x="512" y="-5" on="0"/>
        <pt x="452" y="-5" on="1"/>
        <pt x="389" y="-5" on="0"/>
        <pt x="302" y="49" on="0"/>
        <pt x="289" y="98" on="1"/>
        <pt x="256" y="74" on="0"/>
        <pt x="190" y="74" on="1"/>
        <pt x="120" y="74" on="0"/>
        <pt x="50" y="134" on="0"/>
        <pt x="50" y="191" on="1"/>
        <pt x="50" y="388" on="1"/>
        <pt x="50" y="445" on="0"/>
        <pt x="120" y="505" on="0"/>
        <pt x="190" y="505" on="1"/>
        <pt x="206" y="505" on="0"/>
        <pt x="233" y="501" on="0"/>
        <pt x="237" y="500" on="1"/>
        <pt x="237" y="458" on="1"/>
        <pt x="233" y="459" on="0"/>
        <pt x="206" y="463" on="0"/>
        <pt x="190" y="463" on="1"/>
        <pt x="139" y="463" on="0"/>
        <pt x="97" y="427" on="0"/>
        <pt x="95" y="393" on="1"/>
        <pt x="285" y="248" on="1"/>
        <pt x="285" y="404" on="1"/>
        <pt x="330" y="404" on="1"/>
        <pt x="330" y="318" on="1"/>
        <pt x="378" y="302" on="0"/>
        <pt x="425" y="302" on="1"/>
        <pt x="478" y="302" on="0"/>
        <pt x="520" y="345" on="0"/>
        <pt x="520" y="382" on="1"/>
        <pt x="520" y="527" on="1"/>
        <pt x="520" y="565" on="0"/>
        <pt x="478" y="607" on="0"/>
        <pt x="425" y="607" on="1"/>
        <pt x="373" y="607" on="0"/>
        <pt x="330" y="565" on="0"/>
        <pt x="330" y="527" on="1"/>
        <pt x="330" y="513" on="0"/>
        <pt x="332" y="493" on="0"/>
        <pt x="333" y="490" on="1"/>
        <pt x="288" y="490" on="1"/>
        <pt x="287" y="493" on="0"/>
        <pt x="285" y="514" on="0"/>
        <pt x="285" y="527" on="1"/>
        <pt x="285" y="585" on="0"/>
        <pt x="355" y="649" on="0"/>
        <pt x="425" y="649" on="1"/>
      </contour>
      <contour>
        <pt x="230" y="604" on="1"/>
        <pt x="-20" y="604" on="1"/>
        <pt x="-20" y="644" on="1"/>
        <pt x="230" y="644" on="1"/>
      </contour>
      <contour>
        <pt x="822" y="644" on="1"/>
        <pt x="822" y="604" on="1"/>
        <pt x="722" y="604" on="1"/>
        <pt x="722" y="0" on="1"/>
        <pt x="677" y="0" on="1"/>
        <pt x="677" y="644" on="1"/>
      </contour>
      <contour>
        <pt x="241" y="116" on="0"/>
        <pt x="285" y="153" on="0"/>
        <pt x="285" y="191" on="1"/>
        <pt x="285" y="202" on="1"/>
        <pt x="95" y="346" on="1"/>
        <pt x="95" y="191" on="1"/>
        <pt x="95" y="154" on="0"/>
        <pt x="137" y="116" on="0"/>
        <pt x="190" y="116" on="1"/>
      </contour>
    </TTGlyph>
    <TTGlyph name="dvB_TA" xMin="-20" yMin="-1" xMax="675" yMax="644">
      <contour>
        <pt x="675" y="604" on="1"/>
        <pt x="575" y="604" on="1"/>
        <pt x="575" y="0" on="1"/>
        <pt x="530" y="0" on="1"/>
        <pt x="530" y="449" on="1"/>
        <pt x="472" y="463" on="0"/>
        <pt x="430" y="463" on="1"/>
        <pt x="330" y="463" on="0"/>
        <pt x="330" y="383" on="1"/>
        <pt x="330" y="115" on="1"/>
        <pt x="330" y="78" on="0"/>
        <pt x="372" y="40" on="0"/>
        <pt x="425" y="41" on="1"/>
        <pt x="425" y="-1" on="1"/>
        <pt x="407" y="-1" on="1"/>
        <pt x="353" y="-1" on="0"/>
        <pt x="291" y="51" on="0"/>
        <pt x="286" y="96" on="1"/>
        <pt x="254" y="74" on="0"/>
        <pt x="190" y="74" on="1"/>
        <pt x="120" y="74" on="0"/>
        <pt x="50" y="134" on="0"/>
        <pt x="50" y="191" on="1"/>
        <pt x="50" y="388" on="1"/>
        <pt x="50" y="445" on="0"/>
        <pt x="120" y="505" on="0"/>
        <pt x="190" y="505" on="1"/>
        <pt x="206" y="505" on="0"/>
        <pt x="233" y="501" on="0"/>
        <pt x="237" y="500" on="1"/>
        <pt x="237" y="458" on="1"/>
        <pt x="233" y="459" on="0"/>
        <pt x="206" y="463" on="0"/>
        <pt x="190" y="463" on="1"/>
        <pt x="139" y="463" on="0"/>
        <pt x="97" y="427" on="0"/>
        <pt x="95" y="393" on="1"/>
        <pt x="285" y="248" on="1"/>
        <pt x="285" y="383" on="1"/>
        <pt x="285" y="440" on="0"/>
        <pt x="360" y="505" on="0"/>
        <pt x="430" y="505" on="1"/>
        <pt x="479" y="505" on="0"/>
        <pt x="530" y="490" on="1"/>
        <pt x="530" y="604" on="1"/>
        <pt x="-20" y="604" on="1"/>
        <pt x="-20" y="644" on="1"/>
        <pt x="675" y="644" on="1"/>
      </contour>
      <contour>
        <pt x="241" y="116" on="0"/>
        <pt x="285" y="153" on="0"/>
        <pt x="285" y="191" on="1"/>
        <pt x="285" y="202" on="1"/>
        <pt x="95" y="346" on="1"/>
        <pt x="95" y="191" on="1"/>
        <pt x="95" y="154" on="0"/>
        <pt x="137" y="116" on="0"/>
        <pt x="190" y="116" on="1"/>
      </contour>
    </TTGlyph>
    <TTGlyph name="dvB_VA" xMin="-20" yMin="0" xMax="675" yMax="644">
      <contour>
        <pt x="675" y="604" on="1"/>
        <pt x="575" y="604" on="1"/>
        <pt x="575" y="0" on="1"/>
        <pt x="530" y="0" on="1"/>
        <pt x="530" y="88" on="1"/>
        <pt x="521" y="84" on="0"/>
        <pt x="463" y="74" on="0"/>
        <pt x="431" y="74" on="1"/>
        <pt x="348" y="74" on="0"/>
        <pt x="311" y="119" on="1"/>
        <pt x="278" y="74" on="0"/>
        <pt x="190" y="74" on="1"/>
        <pt x="120" y="74" on="0"/>
        <pt x="50" y="134" on="0"/>
        <pt x="50" y="191" on="1"/>
        <pt x="50" y="388" on="1"/>
        <pt x="50" y="445" on="0"/>
        <pt x="120" y="505" on="0"/>
        <pt x="190" y="505" on="1"/>
        <pt x="206" y="505" on="0"/>
        <pt x="233" y="501" on="0"/>
        <pt x="237" y="500" on="1"/>
        <pt x="237" y="458" on="1"/>
        <pt x="233" y="459" on="0"/>
        <pt x="206" y="463" on="0"/>
        <pt x="190" y="463" on="1"/>
        <pt x="139" y="463" on="0"/>
        <pt x="97" y="427" on="0"/>
        <pt x="95" y="393" on="1"/>
        <pt x="285" y="248" on="1"/>
        <pt x="285" y="381" on="1"/>
        <pt x="285" y="438" on="0"/>
        <pt x="361" y="505" on="0"/>
        <pt x="431" y="505" on="1"/>
        <pt x="463" y="505" on="0"/>
        <pt x="521" y="495" on="0"/>
        <pt x="530" y="491" on="1"/>
        <pt x="530" y="604" on="1"/>
        <pt x="-20" y="604" on="1"/>
        <pt x="-20" y="644" on="1"/>
        <pt x="675" y="644" on="1"/>
      </contour>
      <contour>
        <pt x="530" y="449" on="1"/>
        <pt x="521" y="453" on="0"/>
        <pt x="463" y="463" on="0"/>
        <pt x="431" y="463" on="1"/>
        <pt x="378" y="463" on="0"/>
        <pt x="330" y="417" on="0"/>
        <pt x="330" y="380" on="1"/>
        <pt x="330" y="199" on="1"/>
        <pt x="330" y="116" on="0"/>
        <pt x="431" y="116" on="1"/>
        <pt x="463" y="116" on="0"/>
        <pt x="521" y="126" on="0"/>
        <pt x="530" y="130" on="1"/>
      </contour>
      <contour>
        <pt x="285" y="202" on="1"/>
        <pt x="95" y="346" on="1"/>
        <pt x="95" y="191" on="1"/>
        <pt x="95" y="154" on="0"/>
        <pt x="137" y="116" on="0"/>
        <pt x="190" y="116" on="1"/>
        <pt x="241" y="116" on="0"/>
        <pt x="285" y="153" on="0"/>
        <pt x="285" y="191" on="1"/>
      </contour>
    </TTGlyph>
    <TTGlyph name="dvB_YA" xMin="-20" yMin="0" xMax="736" yMax="644">
      <contour>
        <pt x="736" y="604" on="1"/>
        <pt x="636" y="604" on="1"/>
        <pt x="636" y="0" on="1"/>
        <pt x="591" y="0" on="1"/>
        <pt x="591" y="97" on="1"/>
        <pt x="533" y="85" on="0"/>
        <pt x="473" y="85" on="1"/>
        <pt x="365" y="85" on="0"/>
        <pt x="321" y="137" on="1"/>
        <pt x="295" y="74" on="0"/>
        <pt x="190" y="74" on="1"/>
        <pt x="120" y="74" on="0"/>
        <pt x="50" y="134" on="0"/>
        <pt x="50" y="191" on="1"/>
        <pt x="50" y="388" on="1"/>
        <pt x="50" y="445" on="0"/>
        <pt x="120" y="505" on="0"/>
        <pt x="190" y="505" on="1"/>
        <pt x="206" y="505" on="0"/>
        <pt x="233" y="501" on="0"/>
        <pt x="237" y="500" on="1"/>
        <pt x="237" y="458" on="1"/>
        <pt x="233" y="459" on="0"/>
        <pt x="206" y="463" on="0"/>
        <pt x="190" y="463" on="1"/>
        <pt x="139" y="463" on="0"/>
        <pt x="97" y="427" on="0"/>
        <pt x="95" y="393" on="1"/>
        <pt x="285" y="248" on="1"/>
        <pt x="285" y="381" on="1"/>
        <pt x="305" y="381" on="1"/>
        <pt x="350" y="381" on="0"/>
        <pt x="398" y="393" on="0"/>
        <pt x="419" y="425" on="0"/>
        <pt x="419" y="456" on="1"/>
        <pt x="419" y="529" on="1"/>
        <pt x="419" y="558" on="0"/>
        <pt x="412" y="599" on="0"/>
        <pt x="411" y="604" on="1"/>
        <pt x="-20" y="604" on="1"/>
        <pt x="-20" y="644" on="1"/>
        <pt x="736" y="644" on="1"/>
      </contour>
      <contour>
        <pt x="591" y="604" on="1"/>
        <pt x="456" y="604" on="1"/>
        <pt x="457" y="602" on="0"/>
        <pt x="460" y="585" on="0"/>
        <pt x="464" y="551" on="0"/>
        <pt x="464" y="529" on="1"/>
        <pt x="464" y="456" on="1"/>
        <pt x="464" y="339" on="0"/>
        <pt x="330" y="339" on="1"/>
        <pt x="330" y="253" on="1"/>
        <pt x="330" y="188" on="0"/>
        <pt x="398" y="127" on="0"/>
        <pt x="473" y="127" on="1"/>
        <pt x="529" y="127" on="0"/>
        <pt x="591" y="139" on="1"/>
      </contour>
      <contour>
        <pt x="241" y="116" on="0"/>
        <pt x="285" y="153" on="0"/>
        <pt x="285" y="191" on="1"/>
        <pt x="285" y="202" on="1"/>
        <pt x="95" y="346" on="1"/>
        <pt x="95" y="191" on="1"/>
        <pt x="95" y="154" on="0"/>
        <pt x="137" y="116" on="0"/>
        <pt x="190" y="116" on="1"/>
      </contour>
    </TTGlyph>
    <TTGlyph name="dvC" xMin="-30" yMin="64" xMax="340" yMax="644">
      <contour>
        <pt x="-30" y="604" on="1"/>
        <pt x="-30" y="644" on="1"/>
        <pt x="328" y="644" on="1"/>
        <pt x="328" y="604" on="1"/>
      </contour>
      <contour>
        <pt x="320" y="75" on="0"/>
        <pt x="254" y="64" on="0"/>
        <pt x="227" y="64" on="1"/>
        <pt x="155" y="64" on="0"/>
        <pt x="85" y="128" on="0"/>
        <pt x="85" y="187" on="1"/>
        <pt x="85" y="344" on="1"/>
        <pt x="85" y="372" on="0"/>
        <pt x="89" y="414" on="0"/>
        <pt x="94" y="436" on="0"/>
        <pt x="95" y="439" on="1"/>
        <pt x="2" y="439" on="1"/>
        <pt x="2" y="479" on="1"/>
        <pt x="261" y="479" on="1"/>
        <pt x="261" y="439" on="1"/>
        <pt x="140" y="439" on="1"/>
        <pt x="139" y="436" on="0"/>
        <pt x="134" y="414" on="0"/>
        <pt x="130" y="372" on="0"/>
        <pt x="130" y="344" on="1"/>
        <pt x="130" y="187" on="1"/>
        <pt x="130" y="146" on="0"/>
        <pt x="174" y="106" on="0"/>
        <pt x="227" y="106" on="1"/>
        <pt x="253" y="106" on="0"/>
        <pt x="315" y="116" on="0"/>
        <pt x="340" y="124" on="1"/>
        <pt x="340" y="82" on="1"/>
      </contour>
    </TTGlyph>
    <TTGlyph name="dvCA" xMin="-20" yMin="0" xMax="475" yMax="644">
      <contour>
        <pt x="140" y="146" on="0"/>
        <pt x="184" y="106" on="0"/>
        <pt x="237" y="106" on="1"/>
        <pt x="263" y="106" on="0"/>
        <pt x="305" y="113" on="0"/>
        <pt x="330" y="121" on="1"/>
        <pt x="330" y="604" on="1"/>
        <pt x="-20" y="604" on="1"/>
        <pt x="-20" y="644" on="1"/>
        <pt x="475" y="644" on="1"/>
        <pt x="475" y="604" on="1"/>
        <pt x="375" y="604" on="1"/>
        <pt x="375" y="0" on="1"/>
        <pt x="330" y="0" on="1"/>
        <pt x="330" y="79" on="1"/>
        <pt x="288" y="64" on="0"/>
        <pt x="237" y="64" on="1"/>
        <pt x="165" y="64" on="0"/>
        <pt x="95" y="128" on="0"/>
        <pt x="95" y="187" on="1"/>
        <pt x="95" y="344" on="1"/>
        <pt x="95" y="372" on="0"/>
        <pt x="99" y="414" on="0"/>
        <pt x="104" y="436" on="0"/>
        <pt x="105" y="439" on="1"/>
        <pt x="12" y="439" on="1"/>
        <pt x="12" y="479" on="1"/>
        <pt x="271" y="479" on="1"/>
        <pt x="271" y="439" on="1"/>
        <pt x="150" y="439" on="1"/>
        <pt x="149" y="436" on="0"/>
        <pt x="144" y="414" on="0"/>
        <pt x="140" y="372" on="0"/>
        <pt x="140" y="344" on="1"/>
        <pt x="140" y="187" on="1"/>
      </contour>
    </TTGlyph>
    <TTGlyph name="dvCH" xMin="-20" yMin="27" xMax="513" yMax="644">
      <contour>
        <pt x="434" y="493" on="0"/>
        <pt x="434" y="376" on="1"/>
        <pt x="434" y="167" on="1"/>
        <pt x="434" y="90" on="0"/>
        <pt x="350" y="27" on="0"/>
        <pt x="250" y="27" on="1"/>
        <pt x="150" y="27" on="0"/>
        <pt x="65" y="91" on="0"/>
        <pt x="65" y="167" on="1"/>
        <pt x="65" y="205" on="1"/>
        <pt x="65" y="284" on="0"/>
        <pt x="129" y="300" on="1"/>
        <pt x="96" y="311" on="0"/>
        <pt x="71" y="359" on="0"/>
        <pt x="71" y="397" on="1"/>
        <pt x="71" y="529" on="1"/>
        <pt x="71" y="561" on="0"/>
        <pt x="87" y="596" on="0"/>
        <pt x="103" y="604" on="1"/>
        <pt x="-20" y="604" on="1"/>
        <pt x="-20" y="644" on="1"/>
        <pt x="513" y="644" on="1"/>
        <pt x="513" y="604" on="1"/>
        <pt x="193" y="604" on="1"/>
        <pt x="155" y="604" on="0"/>
        <pt x="116" y="570" on="0"/>
        <pt x="116" y="529" on="1"/>
        <pt x="116" y="397" on="1"/>
        <pt x="116" y="360" on="0"/>
        <pt x="154" y="323" on="0"/>
        <pt x="207" y="322" on="1"/>
        <pt x="254" y="322" on="1"/>
        <pt x="254" y="280" on="1"/>
        <pt x="207" y="280" on="1"/>
        <pt x="153" y="280" on="0"/>
        <pt x="110" y="242" on="0"/>
        <pt x="110" y="205" on="1"/>
        <pt x="110" y="167" on="1"/>
        <pt x="110" y="128" on="0"/>
        <pt x="134" y="87" on="0"/>
        <pt x="193" y="69" on="0"/>
        <pt x="250" y="69" on="1"/>
        <pt x="307" y="69" on="0"/>
        <pt x="366" y="87" on="0"/>
        <pt x="389" y="128" on="0"/>
        <pt x="389" y="167" on="1"/>
        <pt x="389" y="376" on="1"/>
        <pt x="389" y="414" on="0"/>
        <pt x="357" y="451" on="0"/>
        <pt x="309" y="451" on="1"/>
        <pt x="290" y="451" on="0"/>
        <pt x="253" y="441" on="0"/>
        <pt x="253" y="440" on="1"/>
        <pt x="253" y="484" on="1"/>
        <pt x="257" y="486" on="0"/>
        <pt x="291" y="493" on="0"/>
        <pt x="310" y="493" on="1"/>
      </contour>
    </TTGlyph>
    <TTGlyph name="dvCHA" xMin="-20" yMin="27" xMax="514" yMax="644">
      <contour>
        <pt x="71" y="551" on="0"/>
        <pt x="75" y="585" on="0"/>
        <pt x="80" y="602" on="0"/>
        <pt x="81" y="604" on="1"/>
        <pt x="-20" y="604" on="1"/>
        <pt x="-20" y="644" on="1"/>
        <pt x="514" y="644" on="1"/>
        <pt x="514" y="604" on="1"/>
        <pt x="356" y="604" on="1"/>
        <pt x="356" y="488" on="1"/>
        <pt x="434" y="471" on="0"/>
        <pt x="434" y="376" on="1"/>
        <pt x="434" y="167" on="1"/>
        <pt x="434" y="90" on="0"/>
        <pt x="350" y="27" on="0"/>
        <pt x="250" y="27" on="1"/>
        <pt x="150" y="27" on="0"/>
        <pt x="65" y="91" on="0"/>
        <pt x="65" y="167" on="1"/>
        <pt x="65" y="205" on="1"/>
        <pt x="65" y="284" on="0"/>
        <pt x="129" y="300" on="1"/>
        <pt x="96" y="311" on="0"/>
        <pt x="71" y="359" on="0"/>
        <pt x="71" y="397" on="1"/>
        <pt x="71" y="529" on="1"/>
      </contour>
      <contour>
        <pt x="116" y="360" on="0"/>
        <pt x="154" y="323" on="0"/>
        <pt x="207" y="322" on="1"/>
        <pt x="254" y="322" on="1"/>
        <pt x="254" y="280" on="1"/>
        <pt x="207" y="280" on="1"/>
        <pt x="153" y="280" on="0"/>
        <pt x="110" y="242" on="0"/>
        <pt x="110" y="205" on="1"/>
        <pt x="110" y="167" on="1"/>
        <pt x="110" y="128" on="0"/>
        <pt x="134" y="87" on="0"/>
        <pt x="193" y="69" on="0"/>
        <pt x="250" y="69" on="1"/>
        <pt x="307" y="69" on="0"/>
        <pt x="366" y="87" on="0"/>
        <pt x="389" y="128" on="0"/>
        <pt x="389" y="167" on="1"/>
        <pt x="389" y="376" on="1"/>
        <pt x="389" y="414" on="0"/>
        <pt x="357" y="451" on="0"/>
        <pt x="309" y="451" on="1"/>
        <pt x="290" y="451" on="0"/>
        <pt x="257" y="444" on="0"/>
        <pt x="253" y="443" on="1"/>
        <pt x="253" y="485" on="1"/>
        <pt x="258" y="486" on="0"/>
        <pt x="293" y="493" on="0"/>
        <pt x="315" y="493" on="1"/>
        <pt x="315" y="604" on="1"/>
        <pt x="126" y="604" on="1"/>
        <pt x="125" y="602" on="0"/>
        <pt x="121" y="584" on="0"/>
        <pt x="116" y="550" on="0"/>
        <pt x="116" y="529" on="1"/>
        <pt x="116" y="397" on="1"/>
      </contour>
    </TTGlyph>
    <TTGlyph name="dvCH_R" xMin="-20" yMin="-300" xMax="514" yMax="644">
      <component glyphName="dvCHA" x="0" y="0" flags="0x0"/>
      <component glyphName="dvRashtrasign" x="468" y="23" flags="0x4"/>
      <component glyphName="dvVirama" x="355" y="-98" flags="0x4"/>
    </TTGlyph>
    <TTGlyph name="dvCH_RA" xMin="-20" yMin="-132" xMax="514" yMax="644">
      <component glyphName="dvCHA" x="0" y="0" flags="0x0"/>
      <component glyphName="dvRashtrasign" x="468" y="23" flags="0x4"/>
    </TTGlyph>
    <TTGlyph name="dvCH_R_YA" xMin="-20" yMin="-132" xMax="1001" yMax="644">
      <contour>
        <pt x="1001" y="604" on="1"/>
        <pt x="901" y="604" on="1"/>
        <pt x="901" y="0" on="1"/>
        <pt x="856" y="0" on="1"/>
        <pt x="856" y="97" on="1"/>
        <pt x="779" y="85" on="0"/>
        <pt x="733" y="85" on="1"/>
        <pt x="649" y="85" on="0"/>
        <pt x="550" y="158" on="0"/>
        <pt x="550" y="253" on="1"/>
        <pt x="550" y="296" on="1"/>
        <pt x="570" y="296" on="1"/>
        <pt x="614" y="296" on="0"/>
        <pt x="663" y="308" on="0"/>
        <pt x="684" y="340" on="0"/>
        <pt x="684" y="370" on="1"/>
        <pt x="684" y="377" on="1"/>
        <pt x="684" y="415" on="0"/>
        <pt x="651" y="452" on="0"/>
        <pt x="605" y="452" on="1"/>
        <pt x="415" y="452" on="1"/>
        <pt x="434" y="424" on="0"/>
        <pt x="434" y="376" on="1"/>
        <pt x="434" y="167" on="1"/>
        <pt x="434" y="100" on="0"/>
        <pt x="371" y="36" on="0"/>
        <pt x="298" y="29" on="1"/>
        <pt x="299" y="29" on="1"/>
        <pt x="389" y="-132" on="1"/>
        <pt x="340" y="-132" on="1"/>
        <pt x="254" y="27" on="1"/>
        <pt x="252" y="27" on="1"/>
        <pt x="166" y="-132" on="1"/>
        <pt x="117" y="-132" on="1"/>
        <pt x="207" y="29" on="1"/>
        <pt x="131" y="35" on="0"/>
        <pt x="65" y="99" on="0"/>
        <pt x="65" y="167" on="1"/>
        <pt x="65" y="205" on="1"/>
        <pt x="65" y="284" on="0"/>
        <pt x="129" y="300" on="1"/>
        <pt x="96" y="311" on="0"/>
        <pt x="71" y="359" on="0"/>
        <pt x="71" y="397" on="1"/>
        <pt x="71" y="529" on="1"/>
        <pt x="71" y="551" on="0"/>
        <pt x="75" y="585" on="0"/>
        <pt x="80" y="602" on="0"/>
        <pt x="81" y="604" on="1"/>
        <pt x="-20" y="604" on="1"/>
        <pt x="-20" y="644" on="1"/>
        <pt x="1001" y="644" on="1"/>
      </contour>
      <contour>
        <pt x="389" y="376" on="1"/>
        <pt x="389" y="414" on="0"/>
        <pt x="357" y="451" on="0"/>
        <pt x="309" y="451" on="1"/>
        <pt x="290" y="451" on="0"/>
        <pt x="257" y="444" on="0"/>
        <pt x="253" y="443" on="1"/>
        <pt x="253" y="485" on="1"/>
        <pt x="258" y="486" on="0"/>
        <pt x="293" y="493" on="0"/>
        <pt x="315" y="493" on="1"/>
        <pt x="315" y="604" on="1"/>
        <pt x="126" y="604" on="1"/>
        <pt x="125" y="602" on="0"/>
        <pt x="121" y="584" on="0"/>
        <pt x="116" y="550" on="0"/>
        <pt x="116" y="529" on="1"/>
        <pt x="116" y="397" on="1"/>
        <pt x="116" y="360" on="0"/>
        <pt x="154" y="323" on="0"/>
        <pt x="207" y="322" on="1"/>
        <pt x="254" y="322" on="1"/>
        <pt x="254" y="280" on="1"/>
        <pt x="207" y="280" on="1"/>
        <pt x="153" y="280" on="0"/>
        <pt x="110" y="242" on="0"/>
        <pt x="110" y="205" on="1"/>
        <pt x="110" y="167" on="1"/>
        <pt x="110" y="128" on="0"/>
        <pt x="134" y="87" on="0"/>
        <pt x="193" y="69" on="0"/>
        <pt x="250" y="69" on="1"/>
        <pt x="307" y="69" on="0"/>
        <pt x="366" y="87" on="0"/>
        <pt x="389" y="128" on="0"/>
        <pt x="389" y="167" on="1"/>
      </contour>
      <contour>
        <pt x="856" y="604" on="1"/>
        <pt x="356" y="604" on="1"/>
        <pt x="356" y="494" on="1"/>
        <pt x="605" y="494" on="1"/>
        <pt x="729" y="494" on="0"/>
        <pt x="729" y="377" on="1"/>
        <pt x="729" y="370" on="1"/>
        <pt x="729" y="310" on="0"/>
        <pt x="658" y="254" on="0"/>
        <pt x="595" y="254" on="1"/>
        <pt x="595" y="253" on="1"/>
        <pt x="595" y="187" on="0"/>
        <pt x="659" y="127" on="0"/>
        <pt x="733" y="127" on="1"/>
        <pt x="790" y="127" on="0"/>
        <pt x="856" y="139" on="1"/>
      </contour>
    </TTGlyph>
</ttFont>
